<svg width="100" height="132" viewBox="0 0 100 132" fill="none" xmlns="http://www.w3.org/2000/svg">
<g clip-path="url(#clip0_776_58796)">
<rect x="28.2744" y="30.4829" width="27.4023" height="24.1626" fill="#272727"/>
<mask id="path-2-outside-1_776_58796" maskUnits="userSpaceOnUse" x="0.148438" y="0.626465" width="99" height="131" fill="black">
<rect fill="white" x="0.148438" y="0.626465" width="99" height="131"/>
<path fill-rule="evenodd" clip-rule="evenodd" d="M17.5362 50.7682C16.8253 47.9467 16.448 44.9947 16.448 41.9556C16.448 21.8916 32.8938 5.62646 53.1807 5.62646C70.379 5.62646 84.8166 17.3158 88.8143 33.0995C92.1839 41.7013 94.1484 52.0387 94.1484 63.1582C94.1484 84.6174 86.8319 103.164 76.219 111.944C75.5589 112.49 74.9406 113.085 74.3792 113.73C67.6428 121.471 57.6635 126.373 46.5265 126.373C42.2937 126.373 38.2283 125.665 34.4445 124.362C18.0559 120.563 5.85253 106.015 5.85253 88.648C5.85253 79.837 8.99359 71.7516 14.2287 65.4273C17.5589 61.4041 18.8073 55.8134 17.5362 50.7682ZM36.3233 36.5682C37.3305 36.6061 38.1913 37.344 38.1795 38.3409C38.177 38.5511 38.1682 38.7641 38.1528 38.9791C37.9308 42.0817 36.4201 44.4456 34.7786 44.2591C33.1371 44.0726 31.9864 41.4062 32.2085 38.3037C32.214 38.2267 32.2203 38.1502 32.2274 38.0742C32.3182 37.0986 33.2221 36.4514 34.212 36.4887L36.3233 36.5682ZM36.3646 49.224C37.0547 49.2071 37.223 49.0322 37.2416 48.6333C37.2206 47.7961 34.9957 47.8508 33.8714 47.8784C33.5023 47.8874 33.1302 47.8502 32.7884 47.816C32.0404 47.7413 31.4378 47.681 31.3312 48.1524C31.1758 48.8392 35.6745 49.2409 36.3646 49.224ZM77.0113 63.6383C76.4475 63.401 75.954 63.195 75.1347 63.1105C74.5534 63.0506 74.1313 62.5359 74.1919 61.961C74.2525 61.3861 74.7729 60.9686 75.3542 61.0286C76.4957 61.1463 77.2275 61.4544 77.8314 61.7086L77.8402 61.7122C78.7137 62.08 79.2868 62.5706 79.9055 63.1759C80.1505 63.4156 80.2523 63.7444 80.2103 64.0581C80.229 64.1953 80.2204 64.3385 80.1803 64.4803C79.3155 67.5343 76.9851 69.7633 73.8453 71.2187C70.7151 72.6697 66.7087 73.392 62.2788 73.4327C53.4222 73.5141 42.6233 70.8733 33.1256 65.4611C26.2034 61.9444 22.9591 64.5287 22.2717 65.6618C21.971 66.1575 21.3209 66.3182 20.8198 66.0208C20.3186 65.7234 20.1561 65.0805 20.4568 64.5848C21.8789 62.2407 26.49 59.7268 34.1167 63.6114C34.1316 63.619 34.1463 63.6269 34.1609 63.6352C43.351 68.8774 53.7899 71.4174 62.2592 71.3396C66.4957 71.3007 70.177 70.6074 72.9471 69.3234C75.5544 68.1148 77.2893 66.4195 78.0232 64.2947C77.6764 63.9883 77.3882 63.7969 77.0113 63.6383ZM42.7773 48.628C42.767 49.0275 42.9439 49.2178 43.7245 49.3C44.5051 49.3823 49.6338 49.4078 49.5118 48.7083C49.428 48.2282 48.7406 48.2312 47.8872 48.2349C47.4973 48.2366 47.0727 48.2385 46.6552 48.1945C45.3836 48.0605 42.8671 47.7953 42.7773 48.628ZM49.5499 38.4057C49.5932 37.3428 48.6712 36.5419 47.5956 36.5419H44.2314C43.3667 36.5419 42.6107 37.1488 42.5496 38.0019C42.289 41.6442 43.6398 44.7743 45.5669 44.9933C47.4939 45.2123 49.2674 42.4371 49.5281 38.7948C49.5374 38.6644 49.5447 38.5347 49.5499 38.4057Z"/>
</mask>
<path fill-rule="evenodd" clip-rule="evenodd" d="M17.5362 50.7682C16.8253 47.9467 16.448 44.9947 16.448 41.9556C16.448 21.8916 32.8938 5.62646 53.1807 5.62646C70.379 5.62646 84.8166 17.3158 88.8143 33.0995C92.1839 41.7013 94.1484 52.0387 94.1484 63.1582C94.1484 84.6174 86.8319 103.164 76.219 111.944C75.5589 112.49 74.9406 113.085 74.3792 113.73C67.6428 121.471 57.6635 126.373 46.5265 126.373C42.2937 126.373 38.2283 125.665 34.4445 124.362C18.0559 120.563 5.85253 106.015 5.85253 88.648C5.85253 79.837 8.99359 71.7516 14.2287 65.4273C17.5589 61.4041 18.8073 55.8134 17.5362 50.7682ZM36.3233 36.5682C37.3305 36.6061 38.1913 37.344 38.1795 38.3409C38.177 38.5511 38.1682 38.7641 38.1528 38.9791C37.9308 42.0817 36.4201 44.4456 34.7786 44.2591C33.1371 44.0726 31.9864 41.4062 32.2085 38.3037C32.214 38.2267 32.2203 38.1502 32.2274 38.0742C32.3182 37.0986 33.2221 36.4514 34.212 36.4887L36.3233 36.5682ZM36.3646 49.224C37.0547 49.2071 37.223 49.0322 37.2416 48.6333C37.2206 47.7961 34.9957 47.8508 33.8714 47.8784C33.5023 47.8874 33.1302 47.8502 32.7884 47.816C32.0404 47.7413 31.4378 47.681 31.3312 48.1524C31.1758 48.8392 35.6745 49.2409 36.3646 49.224ZM77.0113 63.6383C76.4475 63.401 75.954 63.195 75.1347 63.1105C74.5534 63.0506 74.1313 62.5359 74.1919 61.961C74.2525 61.3861 74.7729 60.9686 75.3542 61.0286C76.4957 61.1463 77.2275 61.4544 77.8314 61.7086L77.8402 61.7122C78.7137 62.08 79.2868 62.5706 79.9055 63.1759C80.1505 63.4156 80.2523 63.7444 80.2103 64.0581C80.229 64.1953 80.2204 64.3385 80.1803 64.4803C79.3155 67.5343 76.9851 69.7633 73.8453 71.2187C70.7151 72.6697 66.7087 73.392 62.2788 73.4327C53.4222 73.5141 42.6233 70.8733 33.1256 65.4611C26.2034 61.9444 22.9591 64.5287 22.2717 65.6618C21.971 66.1575 21.3209 66.3182 20.8198 66.0208C20.3186 65.7234 20.1561 65.0805 20.4568 64.5848C21.8789 62.2407 26.49 59.7268 34.1167 63.6114C34.1316 63.619 34.1463 63.6269 34.1609 63.6352C43.351 68.8774 53.7899 71.4174 62.2592 71.3396C66.4957 71.3007 70.177 70.6074 72.9471 69.3234C75.5544 68.1148 77.2893 66.4195 78.0232 64.2947C77.6764 63.9883 77.3882 63.7969 77.0113 63.6383ZM42.7773 48.628C42.767 49.0275 42.9439 49.2178 43.7245 49.3C44.5051 49.3823 49.6338 49.4078 49.5118 48.7083C49.428 48.2282 48.7406 48.2312 47.8872 48.2349C47.4973 48.2366 47.0727 48.2385 46.6552 48.1945C45.3836 48.0605 42.8671 47.7953 42.7773 48.628ZM49.5499 38.4057C49.5932 37.3428 48.6712 36.5419 47.5956 36.5419H44.2314C43.3667 36.5419 42.6107 37.1488 42.5496 38.0019C42.289 41.6442 43.6398 44.7743 45.5669 44.9933C47.4939 45.2123 49.2674 42.4371 49.5281 38.7948C49.5374 38.6644 49.5447 38.5347 49.5499 38.4057Z" fill="#DEE2E2"/>
<path d="M17.5362 50.7682L12.6877 51.9898L12.6877 51.9898L17.5362 50.7682ZM88.8143 33.0995L84.1587 34.9232L84.0443 34.6312L83.9673 34.3271L88.8143 33.0995ZM76.219 111.944L79.4064 115.797L79.4064 115.797L76.219 111.944ZM74.3792 113.73L70.6074 110.448L70.6074 110.448L74.3792 113.73ZM34.4445 124.362L35.5736 119.492L35.8267 119.55L36.0723 119.635L34.4445 124.362ZM14.2287 65.4273L18.0803 68.6155L18.0803 68.6155L14.2287 65.4273ZM38.1795 38.3409L33.1799 38.2816L33.1799 38.2816L38.1795 38.3409ZM36.3233 36.5682L36.5115 31.5717L36.5115 31.5717L36.3233 36.5682ZM38.1528 38.9791L33.1656 38.6222L33.1656 38.6222L38.1528 38.9791ZM32.2085 38.3037L27.2212 37.9468L27.2212 37.9467L32.2085 38.3037ZM32.2274 38.0742L27.2489 37.6108L27.2489 37.6108L32.2274 38.0742ZM34.212 36.4887L34.0238 41.4851L34.0238 41.4851L34.212 36.4887ZM37.2416 48.6333L42.24 48.5078L42.2445 48.687L42.2362 48.8661L37.2416 48.6333ZM33.8714 47.8784L33.9941 52.8769L33.9941 52.8769L33.8714 47.8784ZM32.7884 47.816L33.2859 42.8409L33.2859 42.8409L32.7884 47.816ZM31.3312 48.1524L36.2079 49.2558L36.2079 49.2558L31.3312 48.1524ZM75.1347 63.1105L74.6217 68.0841L74.6217 68.0841L75.1347 63.1105ZM77.0113 63.6383L78.9511 59.0299L78.9511 59.0299L77.0113 63.6383ZM74.1919 61.961L69.2195 61.4367L69.2195 61.4366L74.1919 61.961ZM75.3542 61.0286L75.8672 56.055L75.8672 56.055L75.3542 61.0286ZM77.8314 61.7086L75.8926 66.3174L75.8916 66.3169L77.8314 61.7086ZM77.8402 61.7122L79.779 57.1034L79.7799 57.1039L77.8402 61.7122ZM79.9055 63.1759L76.4087 66.7498L76.4087 66.7498L79.9055 63.1759ZM80.2103 64.0581L75.2564 64.736L75.1647 64.0655L75.2545 63.3947L80.2103 64.0581ZM80.1803 64.4803L84.9911 65.8425L84.9911 65.8425L80.1803 64.4803ZM73.8453 71.2187L71.7426 66.6824L71.7426 66.6824L73.8453 71.2187ZM62.2788 73.4327L62.2329 68.4329L62.2329 68.4329L62.2788 73.4327ZM33.1256 65.4611L35.3903 61.0034L35.4971 61.0576L35.6011 61.1169L33.1256 65.4611ZM22.2717 65.6618L17.9968 63.0684L17.9968 63.0684L22.2717 65.6618ZM20.4568 64.5848L24.7316 67.1782L24.7316 67.1782L20.4568 64.5848ZM34.1167 63.6114L36.386 59.156L36.3865 59.1563L34.1167 63.6114ZM34.1609 63.6352L36.6378 59.2919L36.6383 59.2921L34.1609 63.6352ZM62.2592 71.3396L62.2132 66.3398L62.2132 66.3398L62.2592 71.3396ZM72.9471 69.3234L75.0498 73.8597L75.0498 73.8597L72.9471 69.3234ZM78.0232 64.2947L81.3338 60.5478L83.842 62.7638L82.7492 65.9273L78.0232 64.2947ZM43.7245 49.3L44.2485 44.3276L44.2485 44.3276L43.7245 49.3ZM42.7773 48.628L37.779 48.4987L37.7843 48.295L37.8061 48.0924L42.7773 48.628ZM49.5118 48.7083L44.5862 49.5675L44.5862 49.5675L49.5118 48.7083ZM47.8872 48.2349L47.8653 43.235L47.8653 43.235L47.8872 48.2349ZM46.6552 48.1945L46.1312 53.167L46.1312 53.167L46.6552 48.1945ZM49.5499 38.4057L54.5458 38.609L54.5458 38.6091L49.5499 38.4057ZM42.5496 38.0019L37.5624 37.645L37.5624 37.645L42.5496 38.0019ZM49.5281 38.7948L44.5408 38.4379L44.5408 38.4379L49.5281 38.7948ZM21.448 41.9556C21.448 44.5793 21.7736 47.1211 22.3847 49.5467L12.6877 51.9898C11.8771 48.7723 11.448 45.4101 11.448 41.9556H21.448ZM53.1807 10.6265C35.603 10.6265 21.448 24.7049 21.448 41.9556H11.448C11.448 19.0782 30.1846 0.626465 53.1807 0.626465V10.6265ZM83.9673 34.3271C80.5266 20.7425 68.0703 10.6265 53.1807 10.6265V0.626465C72.6877 0.626465 89.1066 13.8892 93.6612 31.8719L83.9673 34.3271ZM89.1484 63.1582C89.1484 52.6079 87.2816 42.8949 84.1587 34.9232L93.4698 31.2757C97.0863 40.5078 99.1484 51.4696 99.1484 63.1582H89.1484ZM73.0317 108.092C82.0764 100.609 89.1484 83.7754 89.1484 63.1582H99.1484C99.1484 85.4593 91.5874 105.719 79.4064 115.797L73.0317 108.092ZM70.6074 110.448C71.3633 109.579 72.1806 108.796 73.0317 108.092L79.4064 115.797C78.9373 116.185 78.518 116.591 78.1511 117.012L70.6074 110.448ZM46.5265 121.373C56.1668 121.373 64.7872 117.136 70.6074 110.448L78.1511 117.012C70.4985 125.807 59.1601 131.373 46.5265 131.373V121.373ZM36.0723 119.635C39.3388 120.759 42.8545 121.373 46.5265 121.373V131.373C41.733 131.373 37.1177 130.571 32.8166 129.09L36.0723 119.635ZM10.8525 88.648C10.8525 103.601 21.3653 116.198 35.5736 119.492L33.3153 129.233C14.7464 124.929 0.852528 108.429 0.852528 88.648H10.8525ZM18.0803 68.6155C13.5564 74.0806 10.8525 81.0487 10.8525 88.648H0.852528C0.852528 78.6252 4.43073 69.4225 10.377 62.239L18.0803 68.6155ZM22.3847 49.5467C24.0431 56.1293 22.4312 63.3593 18.0803 68.6155L10.377 62.239C12.6866 59.4489 13.5715 55.4975 12.6877 51.9898L22.3847 49.5467ZM33.1799 38.2816C33.1675 39.3237 33.6363 40.2091 34.2403 40.7672C34.8106 41.2942 35.4934 41.5405 36.1351 41.5646L36.5115 31.5717C39.6113 31.6885 43.2299 34.1146 43.1791 38.4001L33.1799 38.2816ZM33.1656 38.6222C33.1739 38.5062 33.1785 38.3925 33.1799 38.2816L43.1791 38.4001C43.1755 38.7097 43.1625 39.0219 43.1401 39.3361L33.1656 38.6222ZM35.3431 39.291C34.4084 39.1848 33.6657 39.4821 33.246 39.7544C32.8708 39.9977 32.7525 40.2107 32.7849 40.16C32.8563 40.0483 33.1007 39.5286 33.1656 38.6222L43.1401 39.3361C42.9829 41.5323 42.361 43.7457 41.2112 45.545C40.1834 47.1532 37.8434 49.6395 34.2141 49.2271L35.3431 39.291ZM37.1957 38.6606C37.1314 39.5591 37.2918 40.1767 37.3855 40.3937C37.4305 40.498 37.3869 40.3415 37.1318 40.0945C36.8549 39.8263 36.2555 39.3947 35.3431 39.291L34.2141 49.2271C30.7256 48.8307 28.9347 46.0492 28.204 44.3561C27.3674 42.4177 27.0635 40.1508 27.2212 37.9468L37.1957 38.6606ZM37.2059 38.5375C37.2021 38.5781 37.1987 38.6192 37.1957 38.6607L27.2212 37.9467C27.2293 37.8343 27.2385 37.7223 27.2489 37.6108L37.2059 38.5375ZM34.0238 41.4851C35.0981 41.5256 36.9996 40.7536 37.2058 38.5376L27.2489 37.6108C27.6368 33.4435 31.346 31.3772 34.4002 31.4922L34.0238 41.4851ZM36.1351 41.5646L34.0238 41.4851L34.4002 31.4922L36.5115 31.5717L36.1351 41.5646ZM42.2362 48.8661C42.1991 49.661 41.9445 51.6883 40.0093 53.1057C38.5425 54.18 36.9442 54.2113 36.4873 54.2225L36.2419 44.2255C36.2387 44.2256 36.0283 44.2283 35.7107 44.2986C35.3909 44.3693 34.7661 44.5506 34.1005 45.0381C32.4267 46.264 32.2655 48.0045 32.247 48.4005L42.2362 48.8661ZM33.7487 42.8799C34.2319 42.868 35.4545 42.828 36.5912 42.9703C37.1155 43.0359 38.0854 43.189 39.063 43.6677C40.0348 44.1435 42.1667 45.5875 42.24 48.5078L32.2432 48.7588C32.2708 49.8619 32.6931 50.8324 33.2853 51.5477C33.8147 52.1873 34.3794 52.5088 34.6655 52.6489C35.1849 52.9032 35.5243 52.9147 35.3492 52.8928C35.0872 52.86 34.6352 52.8611 33.9941 52.8769L33.7487 42.8799ZM33.2859 42.8409C33.468 42.8591 33.5696 42.8688 33.6609 42.8751C33.7458 42.8809 33.7673 42.8794 33.7487 42.8799L33.9941 52.8769C33.2635 52.8948 32.584 52.8205 32.291 52.7912L33.2859 42.8409ZM26.4544 47.049C26.7355 45.8068 27.4518 44.6374 28.5904 43.8233C29.5911 43.1077 30.5953 42.8987 31.155 42.8237C32.1253 42.6937 33.1388 42.8261 33.2859 42.8409L32.291 52.7912C32.1922 52.7814 32.1279 52.775 32.0706 52.7699C32.0441 52.7675 32.0248 52.7659 32.0108 52.7649C31.9968 52.7638 31.9908 52.7635 31.9911 52.7635C31.9915 52.7635 32.0011 52.7641 32.0184 52.7645C32.0357 52.7649 32.064 52.7653 32.1016 52.7647C32.1714 52.7637 32.3057 52.7589 32.4836 52.7351C32.7858 52.6946 33.5726 52.5543 34.4069 51.9577C35.3791 51.2625 35.9802 50.2624 36.2079 49.2558L26.4544 47.049ZM36.4873 54.2225C35.7044 54.2417 34.0677 54.0945 32.7671 53.8934C32.101 53.7905 31.2093 53.628 30.4043 53.3654C30.0566 53.252 29.3286 52.9977 28.6063 52.4918C28.1292 52.1577 25.7187 50.3005 26.4544 47.049L36.2079 49.2558C36.5254 47.8524 36.1725 46.583 35.6334 45.6912C35.1646 44.9157 34.6004 44.4813 34.3428 44.3008C34.0522 44.0973 33.8144 43.9854 33.7119 43.9398C33.5957 43.8881 33.52 43.8632 33.5058 43.8585C33.4831 43.8511 33.5415 43.8707 33.7093 43.9062C33.8651 43.9392 34.0623 43.9749 34.2946 44.0108C34.7619 44.083 35.2746 44.1413 35.7089 44.18C36.2349 44.2269 36.3866 44.222 36.2419 44.2255L36.4873 54.2225ZM75.6477 58.1369C77.2351 58.3006 78.2917 58.7524 78.9511 59.0299L75.0716 68.2467C74.9233 68.1843 74.8454 68.1519 74.7775 68.1254C74.7188 68.1025 74.6952 68.095 74.6902 68.0935C74.6876 68.0927 74.6876 68.0927 74.6893 68.0931C74.6909 68.0936 74.6916 68.0937 74.6905 68.0935C74.6898 68.0933 74.6694 68.0891 74.6217 68.0841L75.6477 58.1369ZM79.1644 62.4853C79.3991 60.2589 77.7667 58.3555 75.6477 58.1369L74.6217 68.0841C71.3401 67.7456 68.8635 64.8129 69.2195 61.4367L79.1644 62.4853ZM74.8412 66.0022C76.9517 66.2199 78.9305 64.7026 79.1644 62.4853L69.2195 61.4366C69.5745 58.0696 72.5942 55.7174 75.8672 56.055L74.8412 66.0022ZM75.8916 66.3169C75.5826 66.1869 75.4579 66.1375 75.3231 66.096C75.2116 66.0617 75.0641 66.0252 74.8412 66.0022L75.8672 56.055C77.7699 56.2512 79.0591 56.8004 79.7712 57.1002L75.8916 66.3169ZM75.9014 66.3211L75.8926 66.3174L79.7702 57.0998L79.779 57.1034L75.9014 66.3211ZM76.4087 66.7498C76.1572 66.5037 76.0494 66.4151 75.9923 66.3728C75.9603 66.3491 75.9441 66.339 75.9004 66.3206L79.7799 57.1039C81.5094 57.8318 82.6151 58.8319 83.4023 59.6021L76.4087 66.7498ZM75.2545 63.3947C75.0949 64.5871 75.4854 65.8465 76.4087 66.7498L83.4023 59.6021C84.8155 60.9848 85.4097 62.9017 85.1661 64.7215L75.2545 63.3947ZM75.3694 63.118C75.2185 63.651 75.1835 64.2029 75.2564 64.736L85.1641 63.3802C85.2746 64.1878 85.2224 65.0259 84.9911 65.8425L75.3694 63.118ZM71.7426 66.6824C73.9999 65.6361 75.017 64.3626 75.3694 63.118L84.9911 65.8425C83.614 70.7059 79.9704 73.8906 75.948 75.7551L71.7426 66.6824ZM62.2329 68.4329C66.212 68.3964 69.4575 67.7416 71.7426 66.6824L75.948 75.7551C71.9727 77.5978 67.2054 78.3877 62.3247 78.4325L62.2329 68.4329ZM35.6011 61.1169C44.3628 66.1097 54.2958 68.5058 62.2329 68.4329L62.3247 78.4325C52.5486 78.5223 40.8837 75.6368 30.6501 69.8053L35.6011 61.1169ZM17.9968 63.0684C20.413 59.0857 26.8355 56.6572 35.3903 61.0034L30.8609 69.9188C28.1131 68.5228 26.7179 68.6463 26.3296 68.723C25.8557 68.8166 26.1159 68.965 26.5465 68.2552L17.9968 63.0684ZM23.3714 61.7209C21.5349 60.6311 19.131 61.1988 17.9968 63.0684L26.5465 68.2552C24.8109 71.1162 21.1069 72.0053 18.2681 70.3207L23.3714 61.7209ZM24.7316 67.1782C25.886 65.2755 25.24 62.8297 23.3714 61.7209L18.2681 70.3207C15.3972 68.6171 14.4262 64.8855 16.1819 61.9915L24.7316 67.1782ZM31.8474 68.0668C25.8016 64.9874 24.3985 67.7274 24.7316 67.1782L16.1819 61.9915C19.3594 56.7539 27.1783 54.4662 36.386 59.156L31.8474 68.0668ZM31.6839 67.9786C31.7376 68.0092 31.7919 68.0385 31.8469 68.0665L36.3865 59.1563C36.4713 59.1995 36.5551 59.2447 36.6378 59.2919L31.6839 67.9786ZM62.3051 76.3394C52.9157 76.4256 41.6102 73.6407 31.6835 67.9783L36.6383 59.2921C45.0918 64.1142 54.664 66.4091 62.2132 66.3398L62.3051 76.3394ZM75.0498 73.8597C71.4347 75.5354 66.9925 76.2963 62.3051 76.3394L62.2132 66.3398C65.9989 66.305 68.9193 65.6793 70.8444 64.787L75.0498 73.8597ZM82.7492 65.9273C81.4456 69.7011 78.489 72.2656 75.0498 73.8597L70.8444 64.787C72.6197 63.9641 73.1329 63.138 73.2973 62.6622L82.7492 65.9273ZM78.9511 59.0299C79.9282 59.4412 80.6696 59.9609 81.3338 60.5478L74.7126 68.0417C74.6669 68.0013 74.7033 68.0379 74.7973 68.0992C74.8441 68.1297 74.8952 68.1599 74.948 68.1877C75.0002 68.2153 75.0431 68.2347 75.0716 68.2467L78.9511 59.0299ZM43.2005 54.2725C42.7443 54.2244 41.2489 54.0765 39.9109 53.05C37.98 51.5687 37.753 49.5034 37.779 48.4987L47.7757 48.7573C47.7818 48.52 47.7773 47.9172 47.5113 47.1843C47.2102 46.3548 46.6768 45.6369 45.9977 45.1159C45.3974 44.6554 44.8453 44.4727 44.605 44.4048C44.356 44.3345 44.2063 44.3231 44.2485 44.3276L43.2005 54.2725ZM54.4374 47.8492C54.7385 49.5754 54.1212 51.0424 53.356 51.9842C52.7022 52.7888 51.9629 53.2087 51.5947 53.3957C50.8405 53.7789 50.1038 53.9398 49.7445 54.0113C48.9044 54.1785 47.9589 54.2521 47.2156 54.2906C45.7526 54.3665 43.9739 54.354 43.2005 54.2725L44.2485 44.3276C44.166 44.3189 44.4041 44.3376 45.001 44.3407C45.5171 44.3434 46.1302 44.3335 46.6976 44.304C47.3189 44.2718 47.6814 44.2258 47.793 44.2036C47.9096 44.1804 47.5597 44.2292 47.0656 44.4802C46.8275 44.6011 46.1866 44.95 45.595 45.6781C44.8918 46.5434 44.3003 47.9287 44.5862 49.5675L54.4374 47.8492ZM47.8653 43.235C48.0922 43.234 49.0761 43.2056 49.985 43.3906C50.4872 43.4928 51.4194 43.7387 52.3429 44.4315C53.4174 45.2374 54.1908 46.4351 54.4374 47.8492L44.5862 49.5675C44.7909 50.7415 45.447 51.7595 46.3423 52.4311C47.0868 52.9895 47.778 53.1464 47.9913 53.1898C48.2399 53.2404 48.3854 53.2393 48.3092 53.2366C48.2437 53.2342 48.1471 53.2338 47.909 53.2349L47.8653 43.235ZM47.1792 43.222C47.2102 43.2253 47.2766 43.2304 47.398 43.2332C47.5249 43.2362 47.6605 43.2359 47.8653 43.235L47.909 53.2349C47.5617 53.2364 46.8651 53.2443 46.1312 53.167L47.1792 43.222ZM37.8061 48.0924C38.1552 44.8524 40.8669 43.7135 41.6504 43.4503C42.6353 43.1195 43.5954 43.0648 44.1415 43.0505C45.3289 43.0192 46.6129 43.1623 47.1793 43.222L46.1312 53.167C45.4259 53.0926 44.8158 53.0362 44.4046 53.047C44.1515 53.0537 44.3861 53.0804 44.8342 52.9299C45.0715 52.8502 45.659 52.6266 46.2698 52.0746C46.9695 51.4424 47.6104 50.4461 47.7486 49.1636L37.8061 48.0924ZM47.5956 31.5419C50.9337 31.5419 54.7268 34.1607 54.5458 38.609L44.554 38.2024C44.5112 39.2548 44.9731 40.1677 45.5943 40.7431C46.1825 41.288 46.9055 41.5419 47.5956 41.5419V31.5419ZM44.2314 31.5419H47.5956V41.5419H44.2314V31.5419ZM37.5624 37.645C37.8401 33.7647 41.1768 31.5419 44.2314 31.5419V41.5419C45.5566 41.5419 47.3813 40.533 47.5369 38.3588L37.5624 37.645ZM45.0024 49.9613C41.371 49.5487 39.4587 46.6431 38.6471 44.7626C37.7296 42.6366 37.3853 40.1189 37.5624 37.645L47.5369 38.3588C47.4532 39.5272 47.654 40.3957 47.8286 40.8001C47.914 40.9981 47.9211 40.9196 47.7243 40.729C47.5057 40.5174 46.9724 40.1208 46.1314 40.0253L45.0024 49.9613ZM54.5153 39.1518C54.3388 41.6178 53.6416 44.0691 52.3855 46.0345C51.2515 47.809 48.7745 50.3899 45.0024 49.9613L46.1314 40.0253C45.2681 39.9272 44.5953 40.2048 44.241 40.4347C43.9312 40.6356 43.8737 40.7833 43.9592 40.6496C44.1368 40.3716 44.4566 39.6141 44.5408 38.4379L54.5153 39.1518ZM54.5458 38.6091C54.5384 38.7892 54.5283 38.9701 54.5153 39.1518L44.5408 38.4379C44.5465 38.3587 44.5509 38.2802 44.5541 38.2023L54.5458 38.6091Z" fill="#171619" mask="url(#path-2-outside-1_776_58796)"/>
</g>
<defs>
<clipPath id="clip0_776_58796">
<rect width="100" height="132" fill="white"/>
</clipPath>
</defs>
</svg>
