<svg width="200" height="200" viewBox="0 0 200 200" fill="none" xmlns="http://www.w3.org/2000/svg">
<g clip-path="url(#clip0_808_58844)">
<path fill-rule="evenodd" clip-rule="evenodd" d="M128.803 75.7784C128.193 73.6732 127.936 71.3961 128.103 69.0395C128.238 67.144 128.637 65.3375 129.258 63.6624C130.36 60.6875 130.486 57.316 129.924 54.1967C129.645 52.6482 129.607 51.021 129.846 49.3659C129.971 48.502 130.166 47.6663 130.424 46.8642C131.812 42.5551 132.263 37.0918 131.425 32.6459C131.311 32.0392 131.227 31.4162 131.178 30.78C130.969 28.1236 131.374 25.6068 132.241 23.4669C133.029 21.5217 133.21 18.9051 133.379 16.4606C133.461 15.2654 133.541 14.1114 133.687 13.0972C134.155 9.85143 137.195 7.59588 140.476 8.05926C143.757 8.52264 146.037 11.5295 145.569 14.7752C145.321 16.4896 145.683 18.6314 146.892 19.8839C149.048 22.1177 150.553 25.4552 150.852 29.2701C150.865 29.4383 150.876 29.606 150.884 29.773C151.112 34.3628 153.036 39.6684 155.348 43.6542C156.946 46.4088 157.662 49.7553 157.161 53.2237C156.709 56.3591 157.002 59.7337 158.197 62.6719C159.248 65.2562 159.743 68.1741 159.526 71.2255C159.428 72.6172 159.186 73.9608 158.819 75.2397C157.87 78.5476 158.032 82.2508 159.273 85.4628C160.495 88.626 160.946 92.2384 160.408 95.9681C160.115 97.992 159.554 99.902 158.77 101.657C157.531 104.434 157.199 107.623 157.87 110.585C158.474 113.251 158.608 116.158 158.177 119.145C157.892 121.117 157.381 122.987 156.683 124.719C155.42 127.851 155.449 131.477 156.215 134.764C156.626 136.529 156.722 138.4 156.447 140.305C156.335 141.079 156.166 141.831 155.945 142.557C154.594 146.993 154.246 152.601 155.492 157.067C155.948 158.701 156.198 160.454 156.205 162.278C156.221 166.619 154.853 170.565 152.614 173.477C150.391 176.369 148.848 180.98 148.329 184.577C147.676 189.098 144.6 192.403 141.458 191.959C138.316 191.515 136.298 187.491 136.951 182.97C137.357 180.154 136.406 176.529 134.482 174.416C131.794 171.464 130.093 167.164 130.075 162.371C130.071 161.234 130.162 160.123 130.339 159.051C131.106 154.399 129.962 148.751 128.006 144.452C126.861 141.935 126.399 139.068 126.825 136.121C126.927 135.41 127.078 134.717 127.274 134.046C128.168 130.975 128.39 127.574 127.503 124.501C126.642 121.514 126.386 118.174 126.884 114.726C127.107 113.181 127.469 111.699 127.951 110.298C128.968 107.336 128.869 104.021 127.851 101.06C126.821 98.0663 126.469 94.7064 126.968 91.2454C127.227 89.4537 127.697 87.7511 128.345 86.1664C129.671 82.9227 129.777 79.1419 128.803 75.7784ZM155.837 28.8792C155.853 29.0948 155.867 29.31 155.878 29.5246C156.056 33.1035 157.637 37.6351 159.673 41.1455C161.828 44.8598 162.774 49.3399 162.11 53.9379C161.766 56.3236 162.014 58.7852 162.828 60.7877L158.197 62.6719L162.828 60.7877C164.168 64.0811 164.785 67.7649 164.514 71.5801C164.39 73.3194 164.088 75.0065 163.625 76.6189C162.976 78.8815 163.09 81.4678 163.937 83.6611C165.47 87.63 166.016 92.1091 165.356 96.6823C164.998 99.1639 164.307 101.519 163.336 103.695C162.529 105.504 162.318 107.591 162.746 109.48C163.488 112.752 163.643 116.275 163.125 119.859C162.784 122.226 162.169 124.484 161.32 126.589C160.551 128.496 160.476 131.015 161.085 133.629C161.635 135.991 161.761 138.49 161.396 141.019C161.247 142.046 161.023 143.046 160.728 144.014C159.595 147.733 159.368 152.353 160.308 155.723C160.885 157.791 161.196 159.99 161.205 162.26C161.224 167.641 159.533 172.681 156.579 176.524C155.048 178.516 153.721 182.218 153.277 185.291C152.824 188.434 151.505 191.367 149.487 193.536C147.486 195.687 144.404 197.425 140.759 196.91C137.109 196.394 134.631 193.865 133.312 191.234C131.984 188.585 131.548 185.398 132.002 182.255C132.221 180.74 131.588 178.664 130.785 177.782C127.198 173.844 125.097 168.323 125.075 162.389C125.07 160.974 125.183 159.585 125.405 158.238C125.97 154.81 125.118 150.177 123.455 146.523C121.924 143.159 121.31 139.327 121.876 135.407C122.012 134.464 122.213 133.542 122.473 132.647L127.264 134.043L122.473 132.647C123.172 130.249 123.263 127.84 122.699 125.887C121.637 122.204 121.339 118.147 121.935 114.012C122.203 112.158 122.638 110.371 123.222 108.673C123.842 106.867 123.815 104.701 123.122 102.686C121.833 98.9376 121.407 94.7752 122.019 90.5312C122.336 88.3343 122.914 86.2362 123.717 84.2741C124.581 82.1588 124.688 79.5419 124 77.1701C123.226 74.4993 122.906 71.6311 123.116 68.6849C123.284 66.3155 123.784 64.0437 124.569 61.9257C125.3 59.9527 125.441 57.5127 125.003 55.0828C124.63 53.0099 124.581 50.8422 124.897 48.6517C125.062 47.5091 125.321 46.3996 125.665 45.3315C126.82 41.7423 127.181 37.1252 126.512 33.5721C126.364 32.7882 126.257 31.9865 126.193 31.171C125.927 27.7759 126.436 24.4793 127.607 21.5893C128.033 20.5391 128.204 18.8194 128.39 16.1166C128.393 16.0849 128.395 16.053 128.397 16.021C128.474 14.8959 128.565 13.5838 128.738 12.383C129.607 6.3619 135.214 2.2665 141.175 3.10839C147.147 3.95187 151.388 9.4562 150.517 15.4894C150.5 15.6075 150.491 15.7582 150.497 15.9255C150.504 16.0924 150.525 16.2451 150.554 16.3708C150.57 16.4402 150.587 16.4916 150.599 16.5261C153.581 19.6743 155.461 24.0911 155.837 28.8792Z" fill="#171619"/>
<path fill-rule="evenodd" clip-rule="evenodd" d="M145.569 14.7753C145.321 16.4897 145.683 18.6315 146.892 19.884C149.048 22.1178 150.553 25.4553 150.852 29.2702C150.865 29.4384 150.876 29.6061 150.884 29.7731C151.112 34.3629 153.036 39.6685 155.348 43.6543C156.946 46.4089 157.662 49.7554 157.161 53.2238C156.709 56.3592 157.002 59.7338 158.197 62.672C159.248 65.2563 159.743 68.1742 159.526 71.2256C159.428 72.6173 159.186 73.9609 158.819 75.2398C157.87 78.5477 158.032 82.2509 159.273 85.4629C160.495 88.6261 160.946 92.2385 160.408 95.9682C160.115 97.9921 159.554 99.9021 158.77 101.657C157.531 104.434 157.199 107.623 157.87 110.585C158.474 113.251 158.608 116.158 158.177 119.145C157.892 121.117 157.381 122.987 156.683 124.719C155.42 127.851 155.449 131.477 156.215 134.764C156.626 136.529 156.722 138.4 156.447 140.305C156.335 141.079 156.166 141.831 155.945 142.557C154.594 146.993 154.246 152.601 155.492 157.067C155.948 158.701 156.198 160.454 156.205 162.278C156.221 166.619 154.853 170.565 152.614 173.477C150.391 176.369 148.848 180.98 148.329 184.577C147.676 189.098 144.6 192.403 141.458 191.959C138.316 191.515 136.298 187.491 136.951 182.97C137.357 180.154 136.406 176.529 134.482 174.416C131.794 171.464 130.093 167.164 130.075 162.371C130.071 161.234 130.162 160.123 130.339 159.051C131.106 154.399 129.962 148.751 128.006 144.452C126.861 141.935 126.399 139.068 126.825 136.121C126.927 135.41 127.078 134.717 127.274 134.046C128.168 130.975 128.39 127.574 127.503 124.501C126.642 121.514 126.387 118.174 126.884 114.726C127.107 113.181 127.469 111.7 127.951 110.298C128.968 107.337 128.869 104.021 127.851 101.06C126.821 98.0664 126.469 94.7065 126.968 91.2455C127.227 89.4538 127.697 87.7512 128.345 86.1665C129.671 82.9228 129.777 79.142 128.803 75.7785C128.193 73.6733 127.936 71.3962 128.103 69.0396C128.238 67.1441 128.637 65.3376 129.258 63.6625C130.36 60.6876 130.486 57.3161 129.924 54.1968C129.645 52.6483 129.607 51.0211 129.846 49.366C129.971 48.5021 130.166 47.6664 130.424 46.8643C131.812 42.5553 132.263 37.0919 131.425 32.646C131.311 32.0393 131.227 31.4164 131.178 30.7801C130.969 28.1238 131.374 25.6069 132.241 23.467C133.03 21.5218 133.21 18.9052 133.379 16.4607C133.461 15.2656 133.541 14.1116 133.687 13.0973C134.155 9.85153 137.195 7.59599 140.476 8.05937C143.757 8.52275 146.037 11.5296 145.569 14.7753Z" fill="#DEE2E2"/>
<path fill-rule="evenodd" clip-rule="evenodd" d="M136.826 59.4268C137.349 58.91 138.783 58.3878 139.828 58.3878C140.797 58.3878 140.655 57.0625 139.61 57.0625C138.123 57.0625 136.658 58.0251 136.136 58.5419C135.614 59.0588 136.304 59.9436 136.826 59.4268ZM141.039 69.9614C140.804 72.7374 139.35 74.8831 137.79 74.754C136.231 74.6249 135.157 72.2698 135.392 69.4939C135.626 66.7179 137.081 64.5722 138.641 64.7013C140.2 64.8304 141.274 67.1854 141.039 69.9614ZM144.643 116.845C145.073 109.609 146.327 84.1489 144.643 84.1489C143.451 84.1489 143.538 99.172 143.592 108.539C143.607 111.27 143.62 113.521 143.598 114.778C143.567 116.516 143.304 120.026 143.002 124.031C142.339 132.855 141.495 144.086 142.563 144.087C143.738 144.087 144.13 131.773 144.399 123.291C144.486 120.571 144.56 118.245 144.643 116.845ZM151.554 74.7561C153.156 74.6072 154.242 72.2418 153.979 69.4729C153.716 66.7039 152.204 64.5799 150.602 64.7287C149 64.8776 147.914 67.243 148.177 70.012C148.44 72.781 149.952 74.905 151.554 74.7561ZM149.609 58.3801C150.56 58.3801 151.867 58.8399 152.342 59.2949C152.818 59.75 153.446 58.9708 152.971 58.5158C152.495 58.0607 151.162 57.2131 149.808 57.2131C148.856 57.2131 148.727 58.3801 149.609 58.3801Z" fill="#171619"/>
<path fill-rule="evenodd" clip-rule="evenodd" d="M104.606 106.407C104.57 108.574 105.234 110.762 106.736 112.325C112.35 118.168 115.596 125.718 115.25 133.832C115.122 136.86 114.501 139.768 113.457 142.501C112.592 144.766 112.867 147.348 114.214 149.364C117.056 153.619 118.656 158.421 118.656 163.504C118.656 180.961 99.7879 195.112 76.5127 195.112C53.2375 195.112 34.3692 180.961 34.3692 163.504C34.3692 157.12 36.8931 151.177 41.2335 146.208C42.8745 144.329 43.4279 141.702 42.7564 139.3C41.987 136.547 41.6355 133.664 41.7614 130.706C42.0051 124.976 44.0094 119.678 47.3107 115.177C48.6365 113.37 49.0151 111.03 48.6415 108.819C48.4932 107.943 48.4169 107.049 48.4169 106.142C48.4169 94.5047 60.9957 85.0706 76.5125 85.0706C92.0294 85.0706 104.608 94.5047 104.608 106.142C104.608 106.231 104.608 106.319 104.606 106.407Z" fill="#171619"/>
<path fill-rule="evenodd" clip-rule="evenodd" d="M102.042 109.481C102.01 111.45 102.613 113.438 103.978 114.859C109.08 120.168 112.029 127.03 111.716 134.403C111.598 137.155 111.035 139.797 110.086 142.281C109.3 144.339 109.55 146.685 110.774 148.518C113.357 152.384 114.811 156.749 114.811 161.368C114.811 177.231 97.664 190.091 76.5127 190.091C55.3614 190.091 38.2148 177.231 38.2148 161.368C38.2148 155.566 40.5084 150.166 44.4527 145.649C45.9441 143.942 46.4469 141.555 45.8367 139.372C45.1375 136.87 44.8181 134.25 44.9325 131.562C45.154 126.355 46.9754 121.541 49.9754 117.451C51.1802 115.808 51.5243 113.681 51.1847 111.673C51.05 110.876 50.9806 110.064 50.9806 109.24C50.9806 98.6643 62.4117 90.0911 76.5125 90.0911C90.6134 90.0911 102.044 98.6643 102.044 109.24C102.044 109.32 102.044 109.401 102.042 109.481Z" fill="#DEE2E2"/>
<path fill-rule="evenodd" clip-rule="evenodd" d="M77.8675 140.131C78.2867 140.06 78.6248 140.048 78.9397 140.064C78.6336 145.208 72.9414 149.465 65.688 149.157C62.0742 149.003 59.4048 147.816 57.6728 146.059C55.9439 144.305 55.0758 141.91 55.1917 139.188C55.2121 138.707 54.8393 138.301 54.359 138.281C53.8788 138.261 53.4729 138.633 53.4524 139.114C53.3184 142.264 54.3283 145.146 56.4331 147.281C58.5348 149.413 61.6548 150.727 65.614 150.896C73.2778 151.222 80.1028 146.76 80.6576 140.439C80.8151 140.514 80.9853 140.603 81.1793 140.711C81.6622 140.979 82.2709 140.805 82.5391 140.322C82.8072 139.84 82.6332 139.231 82.1504 138.963C81.444 138.57 80.8058 138.269 79.9292 138.155L79.9203 138.154C79.3164 138.076 78.5827 137.98 77.5308 138.16C76.9864 138.253 76.6205 138.77 76.7134 139.314C76.8064 139.858 77.3231 140.224 77.8675 140.131ZM75.0544 120.194C75.0544 123.194 73.7895 125.626 72.2292 125.626C70.6688 125.626 69.4039 123.194 69.4039 120.194C69.4039 117.194 70.6688 114.761 72.2292 114.761C73.7895 114.761 75.0544 117.194 75.0544 120.194ZM61.9915 120.335C61.9915 123.087 60.8096 125.319 59.3515 125.319C57.8935 125.319 56.7116 123.087 56.7116 120.335C56.7116 117.582 57.8935 115.351 59.3515 115.351C60.8096 115.351 61.9915 117.582 61.9915 120.335Z" fill="#171619"/>
</g>
<defs>
<clipPath id="clip0_808_58844">
<rect width="200" height="200" fill="white"/>
</clipPath>
</defs>
</svg>
