<svg width="200" height="200" viewBox="0 0 200 200" fill="none" xmlns="http://www.w3.org/2000/svg">
<path d="M94.6722 149.662C98.5985 147.944 102.945 147.227 107.092 147.79C108.886 148.034 110.716 148.16 112.574 148.16C134.89 148.16 152.98 130.069 152.98 107.754C152.98 93.2025 145.286 80.45 133.756 73.3394C130.494 71.3276 127.789 68.3702 125.873 64.9434C120.058 54.5416 108.93 47.5 96.1547 47.5C77.362 47.5 62.1276 62.7344 62.1276 81.527C62.1276 86.3247 60.1284 91.2105 56.7662 94.6348C50.7409 100.772 47.0205 109.19 47.0205 118.473C47.0205 137.266 62.2549 152.5 81.0475 152.5C85.8873 152.5 90.4973 151.488 94.6722 149.662ZM85.4616 87.9669C85.3396 87.8631 85.134 87.6356 84.8827 87.1518C84.3867 86.1968 84.0054 84.7039 84.0054 82.9179C84.0054 81.132 84.3867 79.639 84.8827 78.6841C85.134 78.2003 85.3396 77.9728 85.4616 77.869C85.5836 77.9728 85.7892 78.2003 86.0405 78.6841C86.5365 79.639 86.9178 81.132 86.9178 82.9179C86.9178 84.7039 86.5365 86.1968 86.0405 87.1518C85.7892 87.6356 85.5836 87.8631 85.4616 87.9669Z" fill="#DEE2E2" stroke="#171619" stroke-width="5"/>
</svg>
