<svg width="227" height="170" viewBox="0 0 227 170" fill="none" xmlns="http://www.w3.org/2000/svg">
<g clip-path="url(#clip0_664_58152)">
<path fill-rule="evenodd" clip-rule="evenodd" d="M1.5 4.92234V4.92234C1.28273 4.92234 1.07028 4.85489 0.891362 4.73163C0.22432 4.27209 -0.60339 4 -1.5 4C-3.70914 4 -5.5 5.65178 -5.5 7.68935V7.68935C-5.5 8.24428 -5.47302 8.8135 -5.34622 9.35374C-5.04323 10.6447 -3.7418 11.9267 -1.88666 12.5843C-0.215474 13.1766 1.48998 13.115 2.66147 12.5329C3.46344 12.1344 4.16147 11.4991 4.72085 10.7998C5.21056 10.1876 5.5 9.43084 5.5 8.61169C5.5 6.57412 3.70914 4.92234 1.5 4.92234Z" fill="#0F0E12"/>
<path fill-rule="evenodd" clip-rule="evenodd" d="M1.5 38.9223V38.9223C1.28273 38.9223 1.07028 38.8549 0.891362 38.7316C0.22432 38.2721 -0.60339 38 -1.5 38C-3.70914 38 -5.5 39.6518 -5.5 41.6894V41.6894C-5.5 42.2443 -5.47302 42.8135 -5.34622 43.3537C-5.04323 44.6447 -3.7418 45.9267 -1.88666 46.5843C-0.215474 47.1766 1.48998 47.115 2.66147 46.5329C3.46344 46.1344 4.16147 45.4991 4.72085 44.7998C5.21056 44.1876 5.5 43.4308 5.5 42.6117C5.5 40.5741 3.70914 38.9223 1.5 38.9223Z" fill="#0F0E12"/>
<path fill-rule="evenodd" clip-rule="evenodd" d="M1.5 72.9223V72.9223C1.28273 72.9223 1.07028 72.8549 0.891362 72.7316C0.22432 72.2721 -0.60339 72 -1.5 72C-3.70914 72 -5.5 73.6518 -5.5 75.6894V75.6894C-5.5 76.2443 -5.47302 76.8135 -5.34622 77.3537C-5.04323 78.6447 -3.7418 79.9267 -1.88666 80.5843C-0.215474 81.1766 1.48998 81.115 2.66147 80.5329C3.46344 80.1344 4.16147 79.4991 4.72085 78.7998C5.21056 78.1876 5.5 77.4308 5.5 76.6117C5.5 74.5741 3.70914 72.9223 1.5 72.9223Z" fill="#0F0E12"/>
<path fill-rule="evenodd" clip-rule="evenodd" d="M1.5 106.922V106.922C1.28273 106.922 1.07028 106.855 0.891362 106.732C0.22432 106.272 -0.60339 106 -1.5 106C-3.70914 106 -5.5 107.652 -5.5 109.689V109.689C-5.5 110.244 -5.47302 110.813 -5.34622 111.354C-5.04323 112.645 -3.7418 113.927 -1.88666 114.584C-0.215474 115.177 1.48998 115.115 2.66147 114.533C3.46344 114.134 4.16147 113.499 4.72085 112.8C5.21056 112.188 5.5 111.431 5.5 110.612C5.5 108.574 3.70914 106.922 1.5 106.922Z" fill="#0F0E12"/>
<path fill-rule="evenodd" clip-rule="evenodd" d="M1.5 140.922V140.922C1.28273 140.922 1.07028 140.855 0.891362 140.732C0.22432 140.272 -0.60339 140 -1.5 140C-3.70914 140 -5.5 141.652 -5.5 143.689V143.689C-5.5 144.244 -5.47302 144.813 -5.34622 145.354C-5.04323 146.645 -3.7418 147.927 -1.88666 148.584C-0.215474 149.177 1.48998 149.115 2.66147 148.533C3.46344 148.134 4.16147 147.499 4.72085 146.8C5.21056 146.188 5.5 145.431 5.5 144.612C5.5 142.574 3.70914 140.922 1.5 140.922Z" fill="#0F0E12"/>
<path fill-rule="evenodd" clip-rule="evenodd" d="M29.5 21.9223V21.9223C29.2827 21.9223 29.0703 21.8549 28.8914 21.7316C28.2243 21.2721 27.3966 21 26.5 21C24.2909 21 22.5 22.6518 22.5 24.6894V24.6894C22.5 25.2443 22.527 25.8135 22.6538 26.3537C22.9568 27.6447 24.2582 28.9267 26.1133 29.5843C27.7845 30.1766 29.49 30.115 30.6615 29.5329C31.4634 29.1344 32.1615 28.4991 32.7209 27.7998C33.2106 27.1876 33.5 26.4308 33.5 25.6117C33.5 23.5741 31.7091 21.9223 29.5 21.9223Z" fill="#0F0E12"/>
<path fill-rule="evenodd" clip-rule="evenodd" d="M19.5 4.92234V4.92234C19.2827 4.92234 19.0703 4.85489 18.8914 4.73163C18.2243 4.27209 17.3966 4 16.5 4C14.2909 4 12.5 5.65178 12.5 7.68935V7.68935C12.5 8.24428 12.527 8.8135 12.6538 9.35374C12.9568 10.6447 14.2582 11.9267 16.1133 12.5843C17.7845 13.1766 19.49 13.115 20.6615 12.5329C21.4634 12.1344 22.1615 11.4991 22.7209 10.7998C23.2106 10.1876 23.5 9.43084 23.5 8.61169C23.5 6.57412 21.7091 4.92234 19.5 4.92234Z" fill="#0F0E12"/>
<path fill-rule="evenodd" clip-rule="evenodd" d="M38.5 4.92234V4.92234C38.2827 4.92234 38.0703 4.85489 37.8914 4.73163C37.2243 4.27209 36.3966 4 35.5 4C33.2909 4 31.5 5.65178 31.5 7.68935V7.68935C31.5 8.24428 31.527 8.8135 31.6538 9.35374C31.9568 10.6447 33.2582 11.9267 35.1133 12.5843C36.7845 13.1766 38.49 13.115 39.6615 12.5329C40.4634 12.1344 41.1615 11.4991 41.7209 10.7998C42.2106 10.1876 42.5 9.43084 42.5 8.61169C42.5 6.57412 40.7091 4.92234 38.5 4.92234Z" fill="#0F0E12"/>
<path fill-rule="evenodd" clip-rule="evenodd" d="M10.5 21.9223V21.9223C10.2827 21.9223 10.0703 21.8549 9.89136 21.7316C9.22432 21.2721 8.39661 21 7.5 21C5.29086 21 3.5 22.6518 3.5 24.6894V24.6894C3.5 25.2443 3.52698 25.8135 3.65378 26.3537C3.95677 27.6447 5.2582 28.9267 7.11334 29.5843C8.78453 30.1766 10.49 30.115 11.6615 29.5329C12.4634 29.1344 13.1615 28.4991 13.7209 27.7998C14.2106 27.1876 14.5 26.4308 14.5 25.6117C14.5 23.5741 12.7091 21.9223 10.5 21.9223Z" fill="#0F0E12"/>
<path fill-rule="evenodd" clip-rule="evenodd" d="M67.5 21.9223V21.9223C67.2827 21.9223 67.0703 21.8549 66.8914 21.7316C66.2243 21.2721 65.3966 21 64.5 21C62.2909 21 60.5 22.6518 60.5 24.6894V24.6894C60.5 25.2443 60.527 25.8135 60.6538 26.3537C60.9568 27.6447 62.2582 28.9267 64.1133 29.5843C65.7845 30.1766 67.49 30.115 68.6615 29.5329C69.4634 29.1344 70.1615 28.4991 70.7209 27.7998C71.2106 27.1876 71.5 26.4308 71.5 25.6117C71.5 23.5741 69.7091 21.9223 67.5 21.9223Z" fill="#0F0E12"/>
<path fill-rule="evenodd" clip-rule="evenodd" d="M57.5 4.92234V4.92234C57.2827 4.92234 57.0703 4.85489 56.8914 4.73163C56.2243 4.27209 55.3966 4 54.5 4C52.2909 4 50.5 5.65178 50.5 7.68935V7.68935C50.5 8.24428 50.527 8.8135 50.6538 9.35374C50.9568 10.6447 52.2582 11.9267 54.1133 12.5843C55.7845 13.1766 57.49 13.115 58.6615 12.5329C59.4634 12.1344 60.1615 11.4991 60.7209 10.7998C61.2106 10.1876 61.5 9.43084 61.5 8.61169C61.5 6.57412 59.7091 4.92234 57.5 4.92234Z" fill="#0F0E12"/>
<path fill-rule="evenodd" clip-rule="evenodd" d="M76.5 4.92234V4.92234C76.2827 4.92234 76.0703 4.85489 75.8914 4.73163C75.2243 4.27209 74.3966 4 73.5 4C71.2909 4 69.5 5.65178 69.5 7.68935V7.68935C69.5 8.24428 69.527 8.8135 69.6538 9.35374C69.9568 10.6447 71.2582 11.9267 73.1133 12.5843C74.7845 13.1766 76.49 13.115 77.6615 12.5329C78.4634 12.1344 79.1615 11.4991 79.7209 10.7998C80.2106 10.1876 80.5 9.43084 80.5 8.61169C80.5 6.57412 78.7091 4.92234 76.5 4.92234Z" fill="#0F0E12"/>
<path fill-rule="evenodd" clip-rule="evenodd" d="M48.5 21.9223V21.9223C48.2827 21.9223 48.0703 21.8549 47.8914 21.7316C47.2243 21.2721 46.3966 21 45.5 21C43.2909 21 41.5 22.6518 41.5 24.6894V24.6894C41.5 25.2443 41.527 25.8135 41.6538 26.3537C41.9568 27.6447 43.2582 28.9267 45.1133 29.5843C46.7845 30.1766 48.49 30.115 49.6615 29.5329C50.4634 29.1344 51.1615 28.4991 51.7209 27.7998C52.2106 27.1876 52.5 26.4308 52.5 25.6117C52.5 23.5741 50.7091 21.9223 48.5 21.9223Z" fill="#0F0E12"/>
<path fill-rule="evenodd" clip-rule="evenodd" d="M105.5 21.9223V21.9223C105.283 21.9223 105.07 21.8549 104.891 21.7316C104.224 21.2721 103.397 21 102.5 21C100.291 21 98.5 22.6518 98.5 24.6894V24.6894C98.5 25.2443 98.527 25.8135 98.6538 26.3537C98.9568 27.6447 100.258 28.9267 102.113 29.5843C103.785 30.1766 105.49 30.115 106.661 29.5329C107.463 29.1344 108.161 28.4991 108.721 27.7998C109.211 27.1876 109.5 26.4308 109.5 25.6117C109.5 23.5741 107.709 21.9223 105.5 21.9223Z" fill="#0F0E12"/>
<path fill-rule="evenodd" clip-rule="evenodd" d="M95.5 4.92234V4.92234C95.2827 4.92234 95.0703 4.85489 94.8914 4.73163C94.2243 4.27209 93.3966 4 92.5 4C90.2909 4 88.5 5.65178 88.5 7.68935V7.68935C88.5 8.24428 88.527 8.8135 88.6538 9.35374C88.9568 10.6447 90.2582 11.9267 92.1133 12.5843C93.7845 13.1766 95.49 13.115 96.6615 12.5329C97.4634 12.1344 98.1615 11.4991 98.7209 10.7998C99.2106 10.1876 99.5 9.43084 99.5 8.61169C99.5 6.57412 97.7091 4.92234 95.5 4.92234Z" fill="#0F0E12"/>
<path fill-rule="evenodd" clip-rule="evenodd" d="M114.5 4.92234V4.92234C114.283 4.92234 114.07 4.85489 113.891 4.73163C113.224 4.27209 112.397 4 111.5 4C109.291 4 107.5 5.65178 107.5 7.68935V7.68935C107.5 8.24428 107.527 8.8135 107.654 9.35374C107.957 10.6447 109.258 11.9267 111.113 12.5843C112.785 13.1766 114.49 13.115 115.661 12.5329C116.463 12.1344 117.161 11.4991 117.721 10.7998C118.211 10.1876 118.5 9.43084 118.5 8.61169C118.5 6.57412 116.709 4.92234 114.5 4.92234Z" fill="#0F0E12"/>
<path fill-rule="evenodd" clip-rule="evenodd" d="M86.5 21.9223V21.9223C86.2827 21.9223 86.0703 21.8549 85.8914 21.7316C85.2243 21.2721 84.3966 21 83.5 21C81.2909 21 79.5 22.6518 79.5 24.6894V24.6894C79.5 25.2443 79.527 25.8135 79.6538 26.3537C79.9568 27.6447 81.2582 28.9267 83.1133 29.5843C84.7845 30.1766 86.49 30.115 87.6615 29.5329C88.4634 29.1344 89.1615 28.4991 89.7209 27.7998C90.2106 27.1876 90.5 26.4308 90.5 25.6117C90.5 23.5741 88.7091 21.9223 86.5 21.9223Z" fill="#0F0E12"/>
<path fill-rule="evenodd" clip-rule="evenodd" d="M143.5 21.9223V21.9223C143.283 21.9223 143.07 21.8549 142.891 21.7316C142.224 21.2721 141.397 21 140.5 21C138.291 21 136.5 22.6518 136.5 24.6894V24.6894C136.5 25.2443 136.527 25.8135 136.654 26.3537C136.957 27.6447 138.258 28.9267 140.113 29.5843C141.785 30.1766 143.49 30.115 144.661 29.5329C145.463 29.1344 146.161 28.4991 146.721 27.7998C147.211 27.1876 147.5 26.4308 147.5 25.6117C147.5 23.5741 145.709 21.9223 143.5 21.9223Z" fill="#0F0E12"/>
<path fill-rule="evenodd" clip-rule="evenodd" d="M133.5 4.92234V4.92234C133.283 4.92234 133.07 4.85489 132.891 4.73163C132.224 4.27209 131.397 4 130.5 4C128.291 4 126.5 5.65178 126.5 7.68935V7.68935C126.5 8.24428 126.527 8.8135 126.654 9.35374C126.957 10.6447 128.258 11.9267 130.113 12.5843C131.785 13.1766 133.49 13.115 134.661 12.5329C135.463 12.1344 136.161 11.4991 136.721 10.7998C137.211 10.1876 137.5 9.43084 137.5 8.61169C137.5 6.57412 135.709 4.92234 133.5 4.92234Z" fill="#0F0E12"/>
<path fill-rule="evenodd" clip-rule="evenodd" d="M152.5 4.92234V4.92234C152.283 4.92234 152.07 4.85489 151.891 4.73163C151.224 4.27209 150.397 4 149.5 4C147.291 4 145.5 5.65178 145.5 7.68935V7.68935C145.5 8.24428 145.527 8.8135 145.654 9.35374C145.957 10.6447 147.258 11.9267 149.113 12.5843C150.785 13.1766 152.49 13.115 153.661 12.5329C154.463 12.1344 155.161 11.4991 155.721 10.7998C156.211 10.1876 156.5 9.43084 156.5 8.61169C156.5 6.57412 154.709 4.92234 152.5 4.92234Z" fill="#0F0E12"/>
<path fill-rule="evenodd" clip-rule="evenodd" d="M124.5 21.9223V21.9223C124.283 21.9223 124.07 21.8549 123.891 21.7316C123.224 21.2721 122.397 21 121.5 21C119.291 21 117.5 22.6518 117.5 24.6894V24.6894C117.5 25.2443 117.527 25.8135 117.654 26.3537C117.957 27.6447 119.258 28.9267 121.113 29.5843C122.785 30.1766 124.49 30.115 125.661 29.5329C126.463 29.1344 127.161 28.4991 127.721 27.7998C128.211 27.1876 128.5 26.4308 128.5 25.6117C128.5 23.5741 126.709 21.9223 124.5 21.9223Z" fill="#0F0E12"/>
<path fill-rule="evenodd" clip-rule="evenodd" d="M181.5 21.9223V21.9223C181.283 21.9223 181.07 21.8549 180.891 21.7316C180.224 21.2721 179.397 21 178.5 21C176.291 21 174.5 22.6518 174.5 24.6894V24.6894C174.5 25.2443 174.527 25.8135 174.654 26.3537C174.957 27.6447 176.258 28.9267 178.113 29.5843C179.785 30.1766 181.49 30.115 182.661 29.5329C183.463 29.1344 184.161 28.4991 184.721 27.7998C185.211 27.1876 185.5 26.4308 185.5 25.6117C185.5 23.5741 183.709 21.9223 181.5 21.9223Z" fill="#0F0E12"/>
<path fill-rule="evenodd" clip-rule="evenodd" d="M171.5 4.92234V4.92234C171.283 4.92234 171.07 4.85489 170.891 4.73163C170.224 4.27209 169.397 4 168.5 4C166.291 4 164.5 5.65178 164.5 7.68935V7.68935C164.5 8.24428 164.527 8.8135 164.654 9.35374C164.957 10.6447 166.258 11.9267 168.113 12.5843C169.785 13.1766 171.49 13.115 172.661 12.5329C173.463 12.1344 174.161 11.4991 174.721 10.7998C175.211 10.1876 175.5 9.43084 175.5 8.61169C175.5 6.57412 173.709 4.92234 171.5 4.92234Z" fill="#0F0E12"/>
<path fill-rule="evenodd" clip-rule="evenodd" d="M190.5 4.92234V4.92234C190.283 4.92234 190.07 4.85489 189.891 4.73163C189.224 4.27209 188.397 4 187.5 4C185.291 4 183.5 5.65178 183.5 7.68935V7.68935C183.5 8.24428 183.527 8.8135 183.654 9.35374C183.957 10.6447 185.258 11.9267 187.113 12.5843C188.785 13.1766 190.49 13.115 191.661 12.5329C192.463 12.1344 193.161 11.4991 193.721 10.7998C194.211 10.1876 194.5 9.43084 194.5 8.61169C194.5 6.57412 192.709 4.92234 190.5 4.92234Z" fill="#0F0E12"/>
<path fill-rule="evenodd" clip-rule="evenodd" d="M162.5 21.9223V21.9223C162.283 21.9223 162.07 21.8549 161.891 21.7316C161.224 21.2721 160.397 21 159.5 21C157.291 21 155.5 22.6518 155.5 24.6894V24.6894C155.5 25.2443 155.527 25.8135 155.654 26.3537C155.957 27.6447 157.258 28.9267 159.113 29.5843C160.785 30.1766 162.49 30.115 163.661 29.5329C164.463 29.1344 165.161 28.4991 165.721 27.7998C166.211 27.1876 166.5 26.4308 166.5 25.6117C166.5 23.5741 164.709 21.9223 162.5 21.9223Z" fill="#0F0E12"/>
<path fill-rule="evenodd" clip-rule="evenodd" d="M219.5 21.9223V21.9223C219.283 21.9223 219.07 21.8549 218.891 21.7316C218.224 21.2721 217.397 21 216.5 21C214.291 21 212.5 22.6518 212.5 24.6894V24.6894C212.5 25.2443 212.527 25.8135 212.654 26.3537C212.957 27.6447 214.258 28.9267 216.113 29.5843C217.785 30.1766 219.49 30.115 220.661 29.5329C221.463 29.1344 222.161 28.4991 222.721 27.7998C223.211 27.1876 223.5 26.4308 223.5 25.6117C223.5 23.5741 221.709 21.9223 219.5 21.9223Z" fill="#0F0E12"/>
<path fill-rule="evenodd" clip-rule="evenodd" d="M209.5 4.92234V4.92234C209.283 4.92234 209.07 4.85489 208.891 4.73163C208.224 4.27209 207.397 4 206.5 4C204.291 4 202.5 5.65178 202.5 7.68935V7.68935C202.5 8.24428 202.527 8.8135 202.654 9.35374C202.957 10.6447 204.258 11.9267 206.113 12.5843C207.785 13.1766 209.49 13.115 210.661 12.5329C211.463 12.1344 212.161 11.4991 212.721 10.7998C213.211 10.1876 213.5 9.43084 213.5 8.61169C213.5 6.57412 211.709 4.92234 209.5 4.92234Z" fill="#0F0E12"/>
<path fill-rule="evenodd" clip-rule="evenodd" d="M228.5 4.92234V4.92234C228.283 4.92234 228.07 4.85489 227.891 4.73163C227.224 4.27209 226.397 4 225.5 4C223.291 4 221.5 5.65178 221.5 7.68935V7.68935C221.5 8.24428 221.527 8.8135 221.654 9.35374C221.957 10.6447 223.258 11.9267 225.113 12.5843C226.785 13.1766 228.49 13.115 229.661 12.5329C230.463 12.1344 231.161 11.4991 231.721 10.7998C232.211 10.1876 232.5 9.43084 232.5 8.61169C232.5 6.57412 230.709 4.92234 228.5 4.92234Z" fill="#0F0E12"/>
<path fill-rule="evenodd" clip-rule="evenodd" d="M200.5 21.9223V21.9223C200.283 21.9223 200.07 21.8549 199.891 21.7316C199.224 21.2721 198.397 21 197.5 21C195.291 21 193.5 22.6518 193.5 24.6894V24.6894C193.5 25.2443 193.527 25.8135 193.654 26.3537C193.957 27.6447 195.258 28.9267 197.113 29.5843C198.785 30.1766 200.49 30.115 201.661 29.5329C202.463 29.1344 203.161 28.4991 203.721 27.7998C204.211 27.1876 204.5 26.4308 204.5 25.6117C204.5 23.5741 202.709 21.9223 200.5 21.9223Z" fill="#0F0E12"/>
<path fill-rule="evenodd" clip-rule="evenodd" d="M29.5 55.9223V55.9223C29.2827 55.9223 29.0703 55.8549 28.8914 55.7316C28.2243 55.2721 27.3966 55 26.5 55C24.2909 55 22.5 56.6518 22.5 58.6894V58.6894C22.5 59.2443 22.527 59.8135 22.6538 60.3537C22.9568 61.6447 24.2582 62.9267 26.1133 63.5843C27.7845 64.1766 29.49 64.115 30.6615 63.5329C31.4634 63.1344 32.1615 62.4991 32.7209 61.7998C33.2106 61.1876 33.5 60.4308 33.5 59.6117C33.5 57.5741 31.7091 55.9223 29.5 55.9223Z" fill="#0F0E12"/>
<path fill-rule="evenodd" clip-rule="evenodd" d="M19.5 38.9223V38.9223C19.2827 38.9223 19.0703 38.8549 18.8914 38.7316C18.2243 38.2721 17.3966 38 16.5 38C14.2909 38 12.5 39.6518 12.5 41.6894V41.6894C12.5 42.2443 12.527 42.8135 12.6538 43.3537C12.9568 44.6447 14.2582 45.9267 16.1133 46.5843C17.7845 47.1766 19.49 47.115 20.6615 46.5329C21.4634 46.1344 22.1615 45.4991 22.7209 44.7998C23.2106 44.1876 23.5 43.4308 23.5 42.6117C23.5 40.5741 21.7091 38.9223 19.5 38.9223Z" fill="#0F0E12"/>
<path fill-rule="evenodd" clip-rule="evenodd" d="M38.5 38.9223V38.9223C38.2827 38.9223 38.0703 38.8549 37.8914 38.7316C37.2243 38.2721 36.3966 38 35.5 38C33.2909 38 31.5 39.6518 31.5 41.6894V41.6894C31.5 42.2443 31.527 42.8135 31.6538 43.3537C31.9568 44.6447 33.2582 45.9267 35.1133 46.5843C36.7845 47.1766 38.49 47.115 39.6615 46.5329C40.4634 46.1344 41.1615 45.4991 41.7209 44.7998C42.2106 44.1876 42.5 43.4308 42.5 42.6117C42.5 40.5741 40.7091 38.9223 38.5 38.9223Z" fill="#0F0E12"/>
<path fill-rule="evenodd" clip-rule="evenodd" d="M10.5 55.9223V55.9223C10.2827 55.9223 10.0703 55.8549 9.89136 55.7316C9.22432 55.2721 8.39661 55 7.5 55C5.29086 55 3.5 56.6518 3.5 58.6894V58.6894C3.5 59.2443 3.52698 59.8135 3.65378 60.3537C3.95677 61.6447 5.2582 62.9267 7.11334 63.5843C8.78453 64.1766 10.49 64.115 11.6615 63.5329C12.4634 63.1344 13.1615 62.4991 13.7209 61.7998C14.2106 61.1876 14.5 60.4308 14.5 59.6117C14.5 57.5741 12.7091 55.9223 10.5 55.9223Z" fill="#0F0E12"/>
<path fill-rule="evenodd" clip-rule="evenodd" d="M67.5 55.9223V55.9223C67.2827 55.9223 67.0703 55.8549 66.8914 55.7316C66.2243 55.2721 65.3966 55 64.5 55C62.2909 55 60.5 56.6518 60.5 58.6894V58.6894C60.5 59.2443 60.527 59.8135 60.6538 60.3537C60.9568 61.6447 62.2582 62.9267 64.1133 63.5843C65.7845 64.1766 67.49 64.115 68.6615 63.5329C69.4634 63.1344 70.1615 62.4991 70.7209 61.7998C71.2106 61.1876 71.5 60.4308 71.5 59.6117C71.5 57.5741 69.7091 55.9223 67.5 55.9223Z" fill="#0F0E12"/>
<path fill-rule="evenodd" clip-rule="evenodd" d="M57.5 38.9223V38.9223C57.2827 38.9223 57.0703 38.8549 56.8914 38.7316C56.2243 38.2721 55.3966 38 54.5 38C52.2909 38 50.5 39.6518 50.5 41.6894V41.6894C50.5 42.2443 50.527 42.8135 50.6538 43.3537C50.9568 44.6447 52.2582 45.9267 54.1133 46.5843C55.7845 47.1766 57.49 47.115 58.6615 46.5329C59.4634 46.1344 60.1615 45.4991 60.7209 44.7998C61.2106 44.1876 61.5 43.4308 61.5 42.6117C61.5 40.5741 59.7091 38.9223 57.5 38.9223Z" fill="#0F0E12"/>
<path fill-rule="evenodd" clip-rule="evenodd" d="M76.5 38.9223V38.9223C76.2827 38.9223 76.0703 38.8549 75.8914 38.7316C75.2243 38.2721 74.3966 38 73.5 38C71.2909 38 69.5 39.6518 69.5 41.6894V41.6894C69.5 42.2443 69.527 42.8135 69.6538 43.3537C69.9568 44.6447 71.2582 45.9267 73.1133 46.5843C74.7845 47.1766 76.49 47.115 77.6615 46.5329C78.4634 46.1344 79.1615 45.4991 79.7209 44.7998C80.2106 44.1876 80.5 43.4308 80.5 42.6117C80.5 40.5741 78.7091 38.9223 76.5 38.9223Z" fill="#0F0E12"/>
<path fill-rule="evenodd" clip-rule="evenodd" d="M48.5 55.9223V55.9223C48.2827 55.9223 48.0703 55.8549 47.8914 55.7316C47.2243 55.2721 46.3966 55 45.5 55C43.2909 55 41.5 56.6518 41.5 58.6894V58.6894C41.5 59.2443 41.527 59.8135 41.6538 60.3537C41.9568 61.6447 43.2582 62.9267 45.1133 63.5843C46.7845 64.1766 48.49 64.115 49.6615 63.5329C50.4634 63.1344 51.1615 62.4991 51.7209 61.7998C52.2106 61.1876 52.5 60.4308 52.5 59.6117C52.5 57.5741 50.7091 55.9223 48.5 55.9223Z" fill="#0F0E12"/>
<path fill-rule="evenodd" clip-rule="evenodd" d="M105.5 55.9223V55.9223C105.283 55.9223 105.07 55.8549 104.891 55.7316C104.224 55.2721 103.397 55 102.5 55C100.291 55 98.5 56.6518 98.5 58.6894V58.6894C98.5 59.2443 98.527 59.8135 98.6538 60.3537C98.9568 61.6447 100.258 62.9267 102.113 63.5843C103.785 64.1766 105.49 64.115 106.661 63.5329C107.463 63.1344 108.161 62.4991 108.721 61.7998C109.211 61.1876 109.5 60.4308 109.5 59.6117C109.5 57.5741 107.709 55.9223 105.5 55.9223Z" fill="#0F0E12"/>
<path fill-rule="evenodd" clip-rule="evenodd" d="M95.5 38.9223V38.9223C95.2827 38.9223 95.0703 38.8549 94.8914 38.7316C94.2243 38.2721 93.3966 38 92.5 38C90.2909 38 88.5 39.6518 88.5 41.6894V41.6894C88.5 42.2443 88.527 42.8135 88.6538 43.3537C88.9568 44.6447 90.2582 45.9267 92.1133 46.5843C93.7845 47.1766 95.49 47.115 96.6615 46.5329C97.4634 46.1344 98.1615 45.4991 98.7209 44.7998C99.2106 44.1876 99.5 43.4308 99.5 42.6117C99.5 40.5741 97.7091 38.9223 95.5 38.9223Z" fill="#0F0E12"/>
<path fill-rule="evenodd" clip-rule="evenodd" d="M114.5 38.9223V38.9223C114.283 38.9223 114.07 38.8549 113.891 38.7316C113.224 38.2721 112.397 38 111.5 38C109.291 38 107.5 39.6518 107.5 41.6894V41.6894C107.5 42.2443 107.527 42.8135 107.654 43.3537C107.957 44.6447 109.258 45.9267 111.113 46.5843C112.785 47.1766 114.49 47.115 115.661 46.5329C116.463 46.1344 117.161 45.4991 117.721 44.7998C118.211 44.1876 118.5 43.4308 118.5 42.6117C118.5 40.5741 116.709 38.9223 114.5 38.9223Z" fill="#0F0E12"/>
<path fill-rule="evenodd" clip-rule="evenodd" d="M86.5 55.9223V55.9223C86.2827 55.9223 86.0703 55.8549 85.8914 55.7316C85.2243 55.2721 84.3966 55 83.5 55C81.2909 55 79.5 56.6518 79.5 58.6894V58.6894C79.5 59.2443 79.527 59.8135 79.6538 60.3537C79.9568 61.6447 81.2582 62.9267 83.1133 63.5843C84.7845 64.1766 86.49 64.115 87.6615 63.5329C88.4634 63.1344 89.1615 62.4991 89.7209 61.7998C90.2106 61.1876 90.5 60.4308 90.5 59.6117C90.5 57.5741 88.7091 55.9223 86.5 55.9223Z" fill="#0F0E12"/>
<path fill-rule="evenodd" clip-rule="evenodd" d="M143.5 55.9223V55.9223C143.283 55.9223 143.07 55.8549 142.891 55.7316C142.224 55.2721 141.397 55 140.5 55C138.291 55 136.5 56.6518 136.5 58.6894V58.6894C136.5 59.2443 136.527 59.8135 136.654 60.3537C136.957 61.6447 138.258 62.9267 140.113 63.5843C141.785 64.1766 143.49 64.115 144.661 63.5329C145.463 63.1344 146.161 62.4991 146.721 61.7998C147.211 61.1876 147.5 60.4308 147.5 59.6117C147.5 57.5741 145.709 55.9223 143.5 55.9223Z" fill="#0F0E12"/>
<path fill-rule="evenodd" clip-rule="evenodd" d="M133.5 38.9223V38.9223C133.283 38.9223 133.07 38.8549 132.891 38.7316C132.224 38.2721 131.397 38 130.5 38C128.291 38 126.5 39.6518 126.5 41.6894V41.6894C126.5 42.2443 126.527 42.8135 126.654 43.3537C126.957 44.6447 128.258 45.9267 130.113 46.5843C131.785 47.1766 133.49 47.115 134.661 46.5329C135.463 46.1344 136.161 45.4991 136.721 44.7998C137.211 44.1876 137.5 43.4308 137.5 42.6117C137.5 40.5741 135.709 38.9223 133.5 38.9223Z" fill="#0F0E12"/>
<path fill-rule="evenodd" clip-rule="evenodd" d="M152.5 38.9223V38.9223C152.283 38.9223 152.07 38.8549 151.891 38.7316C151.224 38.2721 150.397 38 149.5 38C147.291 38 145.5 39.6518 145.5 41.6894V41.6894C145.5 42.2443 145.527 42.8135 145.654 43.3537C145.957 44.6447 147.258 45.9267 149.113 46.5843C150.785 47.1766 152.49 47.115 153.661 46.5329C154.463 46.1344 155.161 45.4991 155.721 44.7998C156.211 44.1876 156.5 43.4308 156.5 42.6117C156.5 40.5741 154.709 38.9223 152.5 38.9223Z" fill="#0F0E12"/>
<path fill-rule="evenodd" clip-rule="evenodd" d="M124.5 55.9223V55.9223C124.283 55.9223 124.07 55.8549 123.891 55.7316C123.224 55.2721 122.397 55 121.5 55C119.291 55 117.5 56.6518 117.5 58.6894V58.6894C117.5 59.2443 117.527 59.8135 117.654 60.3537C117.957 61.6447 119.258 62.9267 121.113 63.5843C122.785 64.1766 124.49 64.115 125.661 63.5329C126.463 63.1344 127.161 62.4991 127.721 61.7998C128.211 61.1876 128.5 60.4308 128.5 59.6117C128.5 57.5741 126.709 55.9223 124.5 55.9223Z" fill="#0F0E12"/>
<path fill-rule="evenodd" clip-rule="evenodd" d="M181.5 55.9223V55.9223C181.283 55.9223 181.07 55.8549 180.891 55.7316C180.224 55.2721 179.397 55 178.5 55C176.291 55 174.5 56.6518 174.5 58.6894V58.6894C174.5 59.2443 174.527 59.8135 174.654 60.3537C174.957 61.6447 176.258 62.9267 178.113 63.5843C179.785 64.1766 181.49 64.115 182.661 63.5329C183.463 63.1344 184.161 62.4991 184.721 61.7998C185.211 61.1876 185.5 60.4308 185.5 59.6117C185.5 57.5741 183.709 55.9223 181.5 55.9223Z" fill="#0F0E12"/>
<path fill-rule="evenodd" clip-rule="evenodd" d="M171.5 38.9223V38.9223C171.283 38.9223 171.07 38.8549 170.891 38.7316C170.224 38.2721 169.397 38 168.5 38C166.291 38 164.5 39.6518 164.5 41.6894V41.6894C164.5 42.2443 164.527 42.8135 164.654 43.3537C164.957 44.6447 166.258 45.9267 168.113 46.5843C169.785 47.1766 171.49 47.115 172.661 46.5329C173.463 46.1344 174.161 45.4991 174.721 44.7998C175.211 44.1876 175.5 43.4308 175.5 42.6117C175.5 40.5741 173.709 38.9223 171.5 38.9223Z" fill="#0F0E12"/>
<path fill-rule="evenodd" clip-rule="evenodd" d="M190.5 38.9223V38.9223C190.283 38.9223 190.07 38.8549 189.891 38.7316C189.224 38.2721 188.397 38 187.5 38C185.291 38 183.5 39.6518 183.5 41.6894V41.6894C183.5 42.2443 183.527 42.8135 183.654 43.3537C183.957 44.6447 185.258 45.9267 187.113 46.5843C188.785 47.1766 190.49 47.115 191.661 46.5329C192.463 46.1344 193.161 45.4991 193.721 44.7998C194.211 44.1876 194.5 43.4308 194.5 42.6117C194.5 40.5741 192.709 38.9223 190.5 38.9223Z" fill="#0F0E12"/>
<path fill-rule="evenodd" clip-rule="evenodd" d="M162.5 55.9223V55.9223C162.283 55.9223 162.07 55.8549 161.891 55.7316C161.224 55.2721 160.397 55 159.5 55C157.291 55 155.5 56.6518 155.5 58.6894V58.6894C155.5 59.2443 155.527 59.8135 155.654 60.3537C155.957 61.6447 157.258 62.9267 159.113 63.5843C160.785 64.1766 162.49 64.115 163.661 63.5329C164.463 63.1344 165.161 62.4991 165.721 61.7998C166.211 61.1876 166.5 60.4308 166.5 59.6117C166.5 57.5741 164.709 55.9223 162.5 55.9223Z" fill="#0F0E12"/>
<path fill-rule="evenodd" clip-rule="evenodd" d="M219.5 55.9223V55.9223C219.283 55.9223 219.07 55.8549 218.891 55.7316C218.224 55.2721 217.397 55 216.5 55C214.291 55 212.5 56.6518 212.5 58.6894V58.6894C212.5 59.2443 212.527 59.8135 212.654 60.3537C212.957 61.6447 214.258 62.9267 216.113 63.5843C217.785 64.1766 219.49 64.115 220.661 63.5329C221.463 63.1344 222.161 62.4991 222.721 61.7998C223.211 61.1876 223.5 60.4308 223.5 59.6117C223.5 57.5741 221.709 55.9223 219.5 55.9223Z" fill="#0F0E12"/>
<path fill-rule="evenodd" clip-rule="evenodd" d="M209.5 38.9223V38.9223C209.283 38.9223 209.07 38.8549 208.891 38.7316C208.224 38.2721 207.397 38 206.5 38C204.291 38 202.5 39.6518 202.5 41.6894V41.6894C202.5 42.2443 202.527 42.8135 202.654 43.3537C202.957 44.6447 204.258 45.9267 206.113 46.5843C207.785 47.1766 209.49 47.115 210.661 46.5329C211.463 46.1344 212.161 45.4991 212.721 44.7998C213.211 44.1876 213.5 43.4308 213.5 42.6117C213.5 40.5741 211.709 38.9223 209.5 38.9223Z" fill="#0F0E12"/>
<path fill-rule="evenodd" clip-rule="evenodd" d="M228.5 38.9223V38.9223C228.283 38.9223 228.07 38.8549 227.891 38.7316C227.224 38.2721 226.397 38 225.5 38C223.291 38 221.5 39.6518 221.5 41.6894V41.6894C221.5 42.2443 221.527 42.8135 221.654 43.3537C221.957 44.6447 223.258 45.9267 225.113 46.5843C226.785 47.1766 228.49 47.115 229.661 46.5329C230.463 46.1344 231.161 45.4991 231.721 44.7998C232.211 44.1876 232.5 43.4308 232.5 42.6117C232.5 40.5741 230.709 38.9223 228.5 38.9223Z" fill="#0F0E12"/>
<path fill-rule="evenodd" clip-rule="evenodd" d="M200.5 55.9223V55.9223C200.283 55.9223 200.07 55.8549 199.891 55.7316C199.224 55.2721 198.397 55 197.5 55C195.291 55 193.5 56.6518 193.5 58.6894V58.6894C193.5 59.2443 193.527 59.8135 193.654 60.3537C193.957 61.6447 195.258 62.9267 197.113 63.5843C198.785 64.1766 200.49 64.115 201.661 63.5329C202.463 63.1344 203.161 62.4991 203.721 61.7998C204.211 61.1876 204.5 60.4308 204.5 59.6117C204.5 57.5741 202.709 55.9223 200.5 55.9223Z" fill="#0F0E12"/>
<path fill-rule="evenodd" clip-rule="evenodd" d="M29.5 89.9223V89.9223C29.2827 89.9223 29.0703 89.8549 28.8914 89.7316C28.2243 89.2721 27.3966 89 26.5 89C24.2909 89 22.5 90.6518 22.5 92.6894V92.6894C22.5 93.2443 22.527 93.8135 22.6538 94.3537C22.9568 95.6447 24.2582 96.9267 26.1133 97.5843C27.7845 98.1766 29.49 98.115 30.6615 97.5329C31.4634 97.1344 32.1615 96.4991 32.7209 95.7998C33.2106 95.1876 33.5 94.4308 33.5 93.6117C33.5 91.5741 31.7091 89.9223 29.5 89.9223Z" fill="#0F0E12"/>
<path fill-rule="evenodd" clip-rule="evenodd" d="M19.5 72.9223V72.9223C19.2827 72.9223 19.0703 72.8549 18.8914 72.7316C18.2243 72.2721 17.3966 72 16.5 72C14.2909 72 12.5 73.6518 12.5 75.6894V75.6894C12.5 76.2443 12.527 76.8135 12.6538 77.3537C12.9568 78.6447 14.2582 79.9267 16.1133 80.5843C17.7845 81.1766 19.49 81.115 20.6615 80.5329C21.4634 80.1344 22.1615 79.4991 22.7209 78.7998C23.2106 78.1876 23.5 77.4308 23.5 76.6117C23.5 74.5741 21.7091 72.9223 19.5 72.9223Z" fill="#0F0E12"/>
<path fill-rule="evenodd" clip-rule="evenodd" d="M38.5 72.9223V72.9223C38.2827 72.9223 38.0703 72.8549 37.8914 72.7316C37.2243 72.2721 36.3966 72 35.5 72C33.2909 72 31.5 73.6518 31.5 75.6894V75.6894C31.5 76.2443 31.527 76.8135 31.6538 77.3537C31.9568 78.6447 33.2582 79.9267 35.1133 80.5843C36.7845 81.1766 38.49 81.115 39.6615 80.5329C40.4634 80.1344 41.1615 79.4991 41.7209 78.7998C42.2106 78.1876 42.5 77.4308 42.5 76.6117C42.5 74.5741 40.7091 72.9223 38.5 72.9223Z" fill="#0F0E12"/>
<path fill-rule="evenodd" clip-rule="evenodd" d="M10.5 89.9223V89.9223C10.2827 89.9223 10.0703 89.8549 9.89136 89.7316C9.22432 89.2721 8.39661 89 7.5 89C5.29086 89 3.5 90.6518 3.5 92.6894V92.6894C3.5 93.2443 3.52698 93.8135 3.65378 94.3537C3.95677 95.6447 5.2582 96.9267 7.11334 97.5843C8.78453 98.1766 10.49 98.115 11.6615 97.5329C12.4634 97.1344 13.1615 96.4991 13.7209 95.7998C14.2106 95.1876 14.5 94.4308 14.5 93.6117C14.5 91.5741 12.7091 89.9223 10.5 89.9223Z" fill="#0F0E12"/>
<path fill-rule="evenodd" clip-rule="evenodd" d="M67.5 89.9223V89.9223C67.2827 89.9223 67.0703 89.8549 66.8914 89.7316C66.2243 89.2721 65.3966 89 64.5 89C62.2909 89 60.5 90.6518 60.5 92.6894V92.6894C60.5 93.2443 60.527 93.8135 60.6538 94.3537C60.9568 95.6447 62.2582 96.9267 64.1133 97.5843C65.7845 98.1766 67.49 98.115 68.6615 97.5329C69.4634 97.1344 70.1615 96.4991 70.7209 95.7998C71.2106 95.1876 71.5 94.4308 71.5 93.6117C71.5 91.5741 69.7091 89.9223 67.5 89.9223Z" fill="#0F0E12"/>
<path fill-rule="evenodd" clip-rule="evenodd" d="M57.5 72.9223V72.9223C57.2827 72.9223 57.0703 72.8549 56.8914 72.7316C56.2243 72.2721 55.3966 72 54.5 72C52.2909 72 50.5 73.6518 50.5 75.6894V75.6894C50.5 76.2443 50.527 76.8135 50.6538 77.3537C50.9568 78.6447 52.2582 79.9267 54.1133 80.5843C55.7845 81.1766 57.49 81.115 58.6615 80.5329C59.4634 80.1344 60.1615 79.4991 60.7209 78.7998C61.2106 78.1876 61.5 77.4308 61.5 76.6117C61.5 74.5741 59.7091 72.9223 57.5 72.9223Z" fill="#0F0E12"/>
<path fill-rule="evenodd" clip-rule="evenodd" d="M76.5 72.9223V72.9223C76.2827 72.9223 76.0703 72.8549 75.8914 72.7316C75.2243 72.2721 74.3966 72 73.5 72C71.2909 72 69.5 73.6518 69.5 75.6894V75.6894C69.5 76.2443 69.527 76.8135 69.6538 77.3537C69.9568 78.6447 71.2582 79.9267 73.1133 80.5843C74.7845 81.1766 76.49 81.115 77.6615 80.5329C78.4634 80.1344 79.1615 79.4991 79.7209 78.7998C80.2106 78.1876 80.5 77.4308 80.5 76.6117C80.5 74.5741 78.7091 72.9223 76.5 72.9223Z" fill="#0F0E12"/>
<path fill-rule="evenodd" clip-rule="evenodd" d="M48.5 89.9223V89.9223C48.2827 89.9223 48.0703 89.8549 47.8914 89.7316C47.2243 89.2721 46.3966 89 45.5 89C43.2909 89 41.5 90.6518 41.5 92.6894V92.6894C41.5 93.2443 41.527 93.8135 41.6538 94.3537C41.9568 95.6447 43.2582 96.9267 45.1133 97.5843C46.7845 98.1766 48.49 98.115 49.6615 97.5329C50.4634 97.1344 51.1615 96.4991 51.7209 95.7998C52.2106 95.1876 52.5 94.4308 52.5 93.6117C52.5 91.5741 50.7091 89.9223 48.5 89.9223Z" fill="#0F0E12"/>
<path fill-rule="evenodd" clip-rule="evenodd" d="M105.5 89.9223V89.9223C105.283 89.9223 105.07 89.8549 104.891 89.7316C104.224 89.2721 103.397 89 102.5 89C100.291 89 98.5 90.6518 98.5 92.6894V92.6894C98.5 93.2443 98.527 93.8135 98.6538 94.3537C98.9568 95.6447 100.258 96.9267 102.113 97.5843C103.785 98.1766 105.49 98.115 106.661 97.5329C107.463 97.1344 108.161 96.4991 108.721 95.7998C109.211 95.1876 109.5 94.4308 109.5 93.6117C109.5 91.5741 107.709 89.9223 105.5 89.9223Z" fill="#0F0E12"/>
<path fill-rule="evenodd" clip-rule="evenodd" d="M95.5 72.9223V72.9223C95.2827 72.9223 95.0703 72.8549 94.8914 72.7316C94.2243 72.2721 93.3966 72 92.5 72C90.2909 72 88.5 73.6518 88.5 75.6894V75.6894C88.5 76.2443 88.527 76.8135 88.6538 77.3537C88.9568 78.6447 90.2582 79.9267 92.1133 80.5843C93.7845 81.1766 95.49 81.115 96.6615 80.5329C97.4634 80.1344 98.1615 79.4991 98.7209 78.7998C99.2106 78.1876 99.5 77.4308 99.5 76.6117C99.5 74.5741 97.7091 72.9223 95.5 72.9223Z" fill="#0F0E12"/>
<path fill-rule="evenodd" clip-rule="evenodd" d="M114.5 72.9223V72.9223C114.283 72.9223 114.07 72.8549 113.891 72.7316C113.224 72.2721 112.397 72 111.5 72C109.291 72 107.5 73.6518 107.5 75.6894V75.6894C107.5 76.2443 107.527 76.8135 107.654 77.3537C107.957 78.6447 109.258 79.9267 111.113 80.5843C112.785 81.1766 114.49 81.115 115.661 80.5329C116.463 80.1344 117.161 79.4991 117.721 78.7998C118.211 78.1876 118.5 77.4308 118.5 76.6117C118.5 74.5741 116.709 72.9223 114.5 72.9223Z" fill="#0F0E12"/>
<path fill-rule="evenodd" clip-rule="evenodd" d="M86.5 89.9223V89.9223C86.2827 89.9223 86.0703 89.8549 85.8914 89.7316C85.2243 89.2721 84.3966 89 83.5 89C81.2909 89 79.5 90.6518 79.5 92.6894V92.6894C79.5 93.2443 79.527 93.8135 79.6538 94.3537C79.9568 95.6447 81.2582 96.9267 83.1133 97.5843C84.7845 98.1766 86.49 98.115 87.6615 97.5329C88.4634 97.1344 89.1615 96.4991 89.7209 95.7998C90.2106 95.1876 90.5 94.4308 90.5 93.6117C90.5 91.5741 88.7091 89.9223 86.5 89.9223Z" fill="#0F0E12"/>
<path fill-rule="evenodd" clip-rule="evenodd" d="M143.5 89.9223V89.9223C143.283 89.9223 143.07 89.8549 142.891 89.7316C142.224 89.2721 141.397 89 140.5 89C138.291 89 136.5 90.6518 136.5 92.6894V92.6894C136.5 93.2443 136.527 93.8135 136.654 94.3537C136.957 95.6447 138.258 96.9267 140.113 97.5843C141.785 98.1766 143.49 98.115 144.661 97.5329C145.463 97.1344 146.161 96.4991 146.721 95.7998C147.211 95.1876 147.5 94.4308 147.5 93.6117C147.5 91.5741 145.709 89.9223 143.5 89.9223Z" fill="#0F0E12"/>
<path fill-rule="evenodd" clip-rule="evenodd" d="M133.5 72.9223V72.9223C133.283 72.9223 133.07 72.8549 132.891 72.7316C132.224 72.2721 131.397 72 130.5 72C128.291 72 126.5 73.6518 126.5 75.6894V75.6894C126.5 76.2443 126.527 76.8135 126.654 77.3537C126.957 78.6447 128.258 79.9267 130.113 80.5843C131.785 81.1766 133.49 81.115 134.661 80.5329C135.463 80.1344 136.161 79.4991 136.721 78.7998C137.211 78.1876 137.5 77.4308 137.5 76.6117C137.5 74.5741 135.709 72.9223 133.5 72.9223Z" fill="#0F0E12"/>
<path fill-rule="evenodd" clip-rule="evenodd" d="M152.5 72.9223V72.9223C152.283 72.9223 152.07 72.8549 151.891 72.7316C151.224 72.2721 150.397 72 149.5 72C147.291 72 145.5 73.6518 145.5 75.6894V75.6894C145.5 76.2443 145.527 76.8135 145.654 77.3537C145.957 78.6447 147.258 79.9267 149.113 80.5843C150.785 81.1766 152.49 81.115 153.661 80.5329C154.463 80.1344 155.161 79.4991 155.721 78.7998C156.211 78.1876 156.5 77.4308 156.5 76.6117C156.5 74.5741 154.709 72.9223 152.5 72.9223Z" fill="#0F0E12"/>
<path fill-rule="evenodd" clip-rule="evenodd" d="M124.5 89.9223V89.9223C124.283 89.9223 124.07 89.8549 123.891 89.7316C123.224 89.2721 122.397 89 121.5 89C119.291 89 117.5 90.6518 117.5 92.6894V92.6894C117.5 93.2443 117.527 93.8135 117.654 94.3537C117.957 95.6447 119.258 96.9267 121.113 97.5843C122.785 98.1766 124.49 98.115 125.661 97.5329C126.463 97.1344 127.161 96.4991 127.721 95.7998C128.211 95.1876 128.5 94.4308 128.5 93.6117C128.5 91.5741 126.709 89.9223 124.5 89.9223Z" fill="#0F0E12"/>
<path fill-rule="evenodd" clip-rule="evenodd" d="M181.5 89.9223V89.9223C181.283 89.9223 181.07 89.8549 180.891 89.7316C180.224 89.2721 179.397 89 178.5 89C176.291 89 174.5 90.6518 174.5 92.6894V92.6894C174.5 93.2443 174.527 93.8135 174.654 94.3537C174.957 95.6447 176.258 96.9267 178.113 97.5843C179.785 98.1766 181.49 98.115 182.661 97.5329C183.463 97.1344 184.161 96.4991 184.721 95.7998C185.211 95.1876 185.5 94.4308 185.5 93.6117C185.5 91.5741 183.709 89.9223 181.5 89.9223Z" fill="#0F0E12"/>
<path fill-rule="evenodd" clip-rule="evenodd" d="M171.5 72.9223V72.9223C171.283 72.9223 171.07 72.8549 170.891 72.7316C170.224 72.2721 169.397 72 168.5 72C166.291 72 164.5 73.6518 164.5 75.6894V75.6894C164.5 76.2443 164.527 76.8135 164.654 77.3537C164.957 78.6447 166.258 79.9267 168.113 80.5843C169.785 81.1766 171.49 81.115 172.661 80.5329C173.463 80.1344 174.161 79.4991 174.721 78.7998C175.211 78.1876 175.5 77.4308 175.5 76.6117C175.5 74.5741 173.709 72.9223 171.5 72.9223Z" fill="#0F0E12"/>
<path fill-rule="evenodd" clip-rule="evenodd" d="M190.5 72.9223V72.9223C190.283 72.9223 190.07 72.8549 189.891 72.7316C189.224 72.2721 188.397 72 187.5 72C185.291 72 183.5 73.6518 183.5 75.6894V75.6894C183.5 76.2443 183.527 76.8135 183.654 77.3537C183.957 78.6447 185.258 79.9267 187.113 80.5843C188.785 81.1766 190.49 81.115 191.661 80.5329C192.463 80.1344 193.161 79.4991 193.721 78.7998C194.211 78.1876 194.5 77.4308 194.5 76.6117C194.5 74.5741 192.709 72.9223 190.5 72.9223Z" fill="#0F0E12"/>
<path fill-rule="evenodd" clip-rule="evenodd" d="M162.5 89.9223V89.9223C162.283 89.9223 162.07 89.8549 161.891 89.7316C161.224 89.2721 160.397 89 159.5 89C157.291 89 155.5 90.6518 155.5 92.6894V92.6894C155.5 93.2443 155.527 93.8135 155.654 94.3537C155.957 95.6447 157.258 96.9267 159.113 97.5843C160.785 98.1766 162.49 98.115 163.661 97.5329C164.463 97.1344 165.161 96.4991 165.721 95.7998C166.211 95.1876 166.5 94.4308 166.5 93.6117C166.5 91.5741 164.709 89.9223 162.5 89.9223Z" fill="#0F0E12"/>
<path fill-rule="evenodd" clip-rule="evenodd" d="M219.5 89.9223V89.9223C219.283 89.9223 219.07 89.8549 218.891 89.7316C218.224 89.2721 217.397 89 216.5 89C214.291 89 212.5 90.6518 212.5 92.6894V92.6894C212.5 93.2443 212.527 93.8135 212.654 94.3537C212.957 95.6447 214.258 96.9267 216.113 97.5843C217.785 98.1766 219.49 98.115 220.661 97.5329C221.463 97.1344 222.161 96.4991 222.721 95.7998C223.211 95.1876 223.5 94.4308 223.5 93.6117C223.5 91.5741 221.709 89.9223 219.5 89.9223Z" fill="#0F0E12"/>
<path fill-rule="evenodd" clip-rule="evenodd" d="M209.5 72.9223V72.9223C209.283 72.9223 209.07 72.8549 208.891 72.7316C208.224 72.2721 207.397 72 206.5 72C204.291 72 202.5 73.6518 202.5 75.6894V75.6894C202.5 76.2443 202.527 76.8135 202.654 77.3537C202.957 78.6447 204.258 79.9267 206.113 80.5843C207.785 81.1766 209.49 81.115 210.661 80.5329C211.463 80.1344 212.161 79.4991 212.721 78.7998C213.211 78.1876 213.5 77.4308 213.5 76.6117C213.5 74.5741 211.709 72.9223 209.5 72.9223Z" fill="#0F0E12"/>
<path fill-rule="evenodd" clip-rule="evenodd" d="M228.5 72.9223V72.9223C228.283 72.9223 228.07 72.8549 227.891 72.7316C227.224 72.2721 226.397 72 225.5 72C223.291 72 221.5 73.6518 221.5 75.6894V75.6894C221.5 76.2443 221.527 76.8135 221.654 77.3537C221.957 78.6447 223.258 79.9267 225.113 80.5843C226.785 81.1766 228.49 81.115 229.661 80.5329C230.463 80.1344 231.161 79.4991 231.721 78.7998C232.211 78.1876 232.5 77.4308 232.5 76.6117C232.5 74.5741 230.709 72.9223 228.5 72.9223Z" fill="#0F0E12"/>
<path fill-rule="evenodd" clip-rule="evenodd" d="M200.5 89.9223V89.9223C200.283 89.9223 200.07 89.8549 199.891 89.7316C199.224 89.2721 198.397 89 197.5 89C195.291 89 193.5 90.6518 193.5 92.6894V92.6894C193.5 93.2443 193.527 93.8135 193.654 94.3537C193.957 95.6447 195.258 96.9267 197.113 97.5843C198.785 98.1766 200.49 98.115 201.661 97.5329C202.463 97.1344 203.161 96.4991 203.721 95.7998C204.211 95.1876 204.5 94.4308 204.5 93.6117C204.5 91.5741 202.709 89.9223 200.5 89.9223Z" fill="#0F0E12"/>
<path fill-rule="evenodd" clip-rule="evenodd" d="M29.5 123.922V123.922C29.2827 123.922 29.0703 123.855 28.8914 123.732C28.2243 123.272 27.3966 123 26.5 123C24.2909 123 22.5 124.652 22.5 126.689V126.689C22.5 127.244 22.527 127.813 22.6538 128.354C22.9568 129.645 24.2582 130.927 26.1133 131.584C27.7845 132.177 29.49 132.115 30.6615 131.533C31.4634 131.134 32.1615 130.499 32.7209 129.8C33.2106 129.188 33.5 128.431 33.5 127.612C33.5 125.574 31.7091 123.922 29.5 123.922Z" fill="#0F0E12"/>
<path fill-rule="evenodd" clip-rule="evenodd" d="M19.5 106.922V106.922C19.2827 106.922 19.0703 106.855 18.8914 106.732C18.2243 106.272 17.3966 106 16.5 106C14.2909 106 12.5 107.652 12.5 109.689V109.689C12.5 110.244 12.527 110.813 12.6538 111.354C12.9568 112.645 14.2582 113.927 16.1133 114.584C17.7845 115.177 19.49 115.115 20.6615 114.533C21.4634 114.134 22.1615 113.499 22.7209 112.8C23.2106 112.188 23.5 111.431 23.5 110.612C23.5 108.574 21.7091 106.922 19.5 106.922Z" fill="#0F0E12"/>
<path fill-rule="evenodd" clip-rule="evenodd" d="M38.5 106.922V106.922C38.2827 106.922 38.0703 106.855 37.8914 106.732C37.2243 106.272 36.3966 106 35.5 106C33.2909 106 31.5 107.652 31.5 109.689V109.689C31.5 110.244 31.527 110.813 31.6538 111.354C31.9568 112.645 33.2582 113.927 35.1133 114.584C36.7845 115.177 38.49 115.115 39.6615 114.533C40.4634 114.134 41.1615 113.499 41.7209 112.8C42.2106 112.188 42.5 111.431 42.5 110.612C42.5 108.574 40.7091 106.922 38.5 106.922Z" fill="#0F0E12"/>
<path fill-rule="evenodd" clip-rule="evenodd" d="M10.5 123.922V123.922C10.2827 123.922 10.0703 123.855 9.89136 123.732C9.22432 123.272 8.39661 123 7.5 123C5.29086 123 3.5 124.652 3.5 126.689V126.689C3.5 127.244 3.52698 127.813 3.65378 128.354C3.95677 129.645 5.2582 130.927 7.11334 131.584C8.78453 132.177 10.49 132.115 11.6615 131.533C12.4634 131.134 13.1615 130.499 13.7209 129.8C14.2106 129.188 14.5 128.431 14.5 127.612C14.5 125.574 12.7091 123.922 10.5 123.922Z" fill="#0F0E12"/>
<path fill-rule="evenodd" clip-rule="evenodd" d="M67.5 123.922V123.922C67.2827 123.922 67.0703 123.855 66.8914 123.732C66.2243 123.272 65.3966 123 64.5 123C62.2909 123 60.5 124.652 60.5 126.689V126.689C60.5 127.244 60.527 127.813 60.6538 128.354C60.9568 129.645 62.2582 130.927 64.1133 131.584C65.7845 132.177 67.49 132.115 68.6615 131.533C69.4634 131.134 70.1615 130.499 70.7209 129.8C71.2106 129.188 71.5 128.431 71.5 127.612C71.5 125.574 69.7091 123.922 67.5 123.922Z" fill="#0F0E12"/>
<path fill-rule="evenodd" clip-rule="evenodd" d="M57.5 106.922V106.922C57.2827 106.922 57.0703 106.855 56.8914 106.732C56.2243 106.272 55.3966 106 54.5 106C52.2909 106 50.5 107.652 50.5 109.689V109.689C50.5 110.244 50.527 110.813 50.6538 111.354C50.9568 112.645 52.2582 113.927 54.1133 114.584C55.7845 115.177 57.49 115.115 58.6615 114.533C59.4634 114.134 60.1615 113.499 60.7209 112.8C61.2106 112.188 61.5 111.431 61.5 110.612C61.5 108.574 59.7091 106.922 57.5 106.922Z" fill="#0F0E12"/>
<path fill-rule="evenodd" clip-rule="evenodd" d="M76.5 106.922V106.922C76.2827 106.922 76.0703 106.855 75.8914 106.732C75.2243 106.272 74.3966 106 73.5 106C71.2909 106 69.5 107.652 69.5 109.689V109.689C69.5 110.244 69.527 110.813 69.6538 111.354C69.9568 112.645 71.2582 113.927 73.1133 114.584C74.7845 115.177 76.49 115.115 77.6615 114.533C78.4634 114.134 79.1615 113.499 79.7209 112.8C80.2106 112.188 80.5 111.431 80.5 110.612C80.5 108.574 78.7091 106.922 76.5 106.922Z" fill="#0F0E12"/>
<path fill-rule="evenodd" clip-rule="evenodd" d="M48.5 123.922V123.922C48.2827 123.922 48.0703 123.855 47.8914 123.732C47.2243 123.272 46.3966 123 45.5 123C43.2909 123 41.5 124.652 41.5 126.689V126.689C41.5 127.244 41.527 127.813 41.6538 128.354C41.9568 129.645 43.2582 130.927 45.1133 131.584C46.7845 132.177 48.49 132.115 49.6615 131.533C50.4634 131.134 51.1615 130.499 51.7209 129.8C52.2106 129.188 52.5 128.431 52.5 127.612C52.5 125.574 50.7091 123.922 48.5 123.922Z" fill="#0F0E12"/>
<path fill-rule="evenodd" clip-rule="evenodd" d="M105.5 123.922V123.922C105.283 123.922 105.07 123.855 104.891 123.732C104.224 123.272 103.397 123 102.5 123C100.291 123 98.5 124.652 98.5 126.689V126.689C98.5 127.244 98.527 127.813 98.6538 128.354C98.9568 129.645 100.258 130.927 102.113 131.584C103.785 132.177 105.49 132.115 106.661 131.533C107.463 131.134 108.161 130.499 108.721 129.8C109.211 129.188 109.5 128.431 109.5 127.612C109.5 125.574 107.709 123.922 105.5 123.922Z" fill="#0F0E12"/>
<path fill-rule="evenodd" clip-rule="evenodd" d="M95.5 106.922V106.922C95.2827 106.922 95.0703 106.855 94.8914 106.732C94.2243 106.272 93.3966 106 92.5 106C90.2909 106 88.5 107.652 88.5 109.689V109.689C88.5 110.244 88.527 110.813 88.6538 111.354C88.9568 112.645 90.2582 113.927 92.1133 114.584C93.7845 115.177 95.49 115.115 96.6615 114.533C97.4634 114.134 98.1615 113.499 98.7209 112.8C99.2106 112.188 99.5 111.431 99.5 110.612C99.5 108.574 97.7091 106.922 95.5 106.922Z" fill="#0F0E12"/>
<path fill-rule="evenodd" clip-rule="evenodd" d="M114.5 106.922V106.922C114.283 106.922 114.07 106.855 113.891 106.732C113.224 106.272 112.397 106 111.5 106C109.291 106 107.5 107.652 107.5 109.689V109.689C107.5 110.244 107.527 110.813 107.654 111.354C107.957 112.645 109.258 113.927 111.113 114.584C112.785 115.177 114.49 115.115 115.661 114.533C116.463 114.134 117.161 113.499 117.721 112.8C118.211 112.188 118.5 111.431 118.5 110.612C118.5 108.574 116.709 106.922 114.5 106.922Z" fill="#0F0E12"/>
<path fill-rule="evenodd" clip-rule="evenodd" d="M86.5 123.922V123.922C86.2827 123.922 86.0703 123.855 85.8914 123.732C85.2243 123.272 84.3966 123 83.5 123C81.2909 123 79.5 124.652 79.5 126.689V126.689C79.5 127.244 79.527 127.813 79.6538 128.354C79.9568 129.645 81.2582 130.927 83.1133 131.584C84.7845 132.177 86.49 132.115 87.6615 131.533C88.4634 131.134 89.1615 130.499 89.7209 129.8C90.2106 129.188 90.5 128.431 90.5 127.612C90.5 125.574 88.7091 123.922 86.5 123.922Z" fill="#0F0E12"/>
<path fill-rule="evenodd" clip-rule="evenodd" d="M143.5 123.922V123.922C143.283 123.922 143.07 123.855 142.891 123.732C142.224 123.272 141.397 123 140.5 123C138.291 123 136.5 124.652 136.5 126.689V126.689C136.5 127.244 136.527 127.813 136.654 128.354C136.957 129.645 138.258 130.927 140.113 131.584C141.785 132.177 143.49 132.115 144.661 131.533C145.463 131.134 146.161 130.499 146.721 129.8C147.211 129.188 147.5 128.431 147.5 127.612C147.5 125.574 145.709 123.922 143.5 123.922Z" fill="#0F0E12"/>
<path fill-rule="evenodd" clip-rule="evenodd" d="M133.5 106.922V106.922C133.283 106.922 133.07 106.855 132.891 106.732C132.224 106.272 131.397 106 130.5 106C128.291 106 126.5 107.652 126.5 109.689V109.689C126.5 110.244 126.527 110.813 126.654 111.354C126.957 112.645 128.258 113.927 130.113 114.584C131.785 115.177 133.49 115.115 134.661 114.533C135.463 114.134 136.161 113.499 136.721 112.8C137.211 112.188 137.5 111.431 137.5 110.612C137.5 108.574 135.709 106.922 133.5 106.922Z" fill="#0F0E12"/>
<path fill-rule="evenodd" clip-rule="evenodd" d="M152.5 106.922V106.922C152.283 106.922 152.07 106.855 151.891 106.732C151.224 106.272 150.397 106 149.5 106C147.291 106 145.5 107.652 145.5 109.689V109.689C145.5 110.244 145.527 110.813 145.654 111.354C145.957 112.645 147.258 113.927 149.113 114.584C150.785 115.177 152.49 115.115 153.661 114.533C154.463 114.134 155.161 113.499 155.721 112.8C156.211 112.188 156.5 111.431 156.5 110.612C156.5 108.574 154.709 106.922 152.5 106.922Z" fill="#0F0E12"/>
<path fill-rule="evenodd" clip-rule="evenodd" d="M124.5 123.922V123.922C124.283 123.922 124.07 123.855 123.891 123.732C123.224 123.272 122.397 123 121.5 123C119.291 123 117.5 124.652 117.5 126.689V126.689C117.5 127.244 117.527 127.813 117.654 128.354C117.957 129.645 119.258 130.927 121.113 131.584C122.785 132.177 124.49 132.115 125.661 131.533C126.463 131.134 127.161 130.499 127.721 129.8C128.211 129.188 128.5 128.431 128.5 127.612C128.5 125.574 126.709 123.922 124.5 123.922Z" fill="#0F0E12"/>
<path fill-rule="evenodd" clip-rule="evenodd" d="M181.5 123.922V123.922C181.283 123.922 181.07 123.855 180.891 123.732C180.224 123.272 179.397 123 178.5 123C176.291 123 174.5 124.652 174.5 126.689V126.689C174.5 127.244 174.527 127.813 174.654 128.354C174.957 129.645 176.258 130.927 178.113 131.584C179.785 132.177 181.49 132.115 182.661 131.533C183.463 131.134 184.161 130.499 184.721 129.8C185.211 129.188 185.5 128.431 185.5 127.612C185.5 125.574 183.709 123.922 181.5 123.922Z" fill="#0F0E12"/>
<path fill-rule="evenodd" clip-rule="evenodd" d="M171.5 106.922V106.922C171.283 106.922 171.07 106.855 170.891 106.732C170.224 106.272 169.397 106 168.5 106C166.291 106 164.5 107.652 164.5 109.689V109.689C164.5 110.244 164.527 110.813 164.654 111.354C164.957 112.645 166.258 113.927 168.113 114.584C169.785 115.177 171.49 115.115 172.661 114.533C173.463 114.134 174.161 113.499 174.721 112.8C175.211 112.188 175.5 111.431 175.5 110.612C175.5 108.574 173.709 106.922 171.5 106.922Z" fill="#0F0E12"/>
<path fill-rule="evenodd" clip-rule="evenodd" d="M190.5 106.922V106.922C190.283 106.922 190.07 106.855 189.891 106.732C189.224 106.272 188.397 106 187.5 106C185.291 106 183.5 107.652 183.5 109.689V109.689C183.5 110.244 183.527 110.813 183.654 111.354C183.957 112.645 185.258 113.927 187.113 114.584C188.785 115.177 190.49 115.115 191.661 114.533C192.463 114.134 193.161 113.499 193.721 112.8C194.211 112.188 194.5 111.431 194.5 110.612C194.5 108.574 192.709 106.922 190.5 106.922Z" fill="#0F0E12"/>
<path fill-rule="evenodd" clip-rule="evenodd" d="M162.5 123.922V123.922C162.283 123.922 162.07 123.855 161.891 123.732C161.224 123.272 160.397 123 159.5 123C157.291 123 155.5 124.652 155.5 126.689V126.689C155.5 127.244 155.527 127.813 155.654 128.354C155.957 129.645 157.258 130.927 159.113 131.584C160.785 132.177 162.49 132.115 163.661 131.533C164.463 131.134 165.161 130.499 165.721 129.8C166.211 129.188 166.5 128.431 166.5 127.612C166.5 125.574 164.709 123.922 162.5 123.922Z" fill="#0F0E12"/>
<path fill-rule="evenodd" clip-rule="evenodd" d="M219.5 123.922V123.922C219.283 123.922 219.07 123.855 218.891 123.732C218.224 123.272 217.397 123 216.5 123C214.291 123 212.5 124.652 212.5 126.689V126.689C212.5 127.244 212.527 127.813 212.654 128.354C212.957 129.645 214.258 130.927 216.113 131.584C217.785 132.177 219.49 132.115 220.661 131.533C221.463 131.134 222.161 130.499 222.721 129.8C223.211 129.188 223.5 128.431 223.5 127.612C223.5 125.574 221.709 123.922 219.5 123.922Z" fill="#0F0E12"/>
<path fill-rule="evenodd" clip-rule="evenodd" d="M209.5 106.922V106.922C209.283 106.922 209.07 106.855 208.891 106.732C208.224 106.272 207.397 106 206.5 106C204.291 106 202.5 107.652 202.5 109.689V109.689C202.5 110.244 202.527 110.813 202.654 111.354C202.957 112.645 204.258 113.927 206.113 114.584C207.785 115.177 209.49 115.115 210.661 114.533C211.463 114.134 212.161 113.499 212.721 112.8C213.211 112.188 213.5 111.431 213.5 110.612C213.5 108.574 211.709 106.922 209.5 106.922Z" fill="#0F0E12"/>
<path fill-rule="evenodd" clip-rule="evenodd" d="M228.5 106.922V106.922C228.283 106.922 228.07 106.855 227.891 106.732C227.224 106.272 226.397 106 225.5 106C223.291 106 221.5 107.652 221.5 109.689V109.689C221.5 110.244 221.527 110.813 221.654 111.354C221.957 112.645 223.258 113.927 225.113 114.584C226.785 115.177 228.49 115.115 229.661 114.533C230.463 114.134 231.161 113.499 231.721 112.8C232.211 112.188 232.5 111.431 232.5 110.612C232.5 108.574 230.709 106.922 228.5 106.922Z" fill="#0F0E12"/>
<path fill-rule="evenodd" clip-rule="evenodd" d="M200.5 123.922V123.922C200.283 123.922 200.07 123.855 199.891 123.732C199.224 123.272 198.397 123 197.5 123C195.291 123 193.5 124.652 193.5 126.689V126.689C193.5 127.244 193.527 127.813 193.654 128.354C193.957 129.645 195.258 130.927 197.113 131.584C198.785 132.177 200.49 132.115 201.661 131.533C202.463 131.134 203.161 130.499 203.721 129.8C204.211 129.188 204.5 128.431 204.5 127.612C204.5 125.574 202.709 123.922 200.5 123.922Z" fill="#0F0E12"/>
<path fill-rule="evenodd" clip-rule="evenodd" d="M29.5 157.922V157.922C29.2827 157.922 29.0703 157.855 28.8914 157.732C28.2243 157.272 27.3966 157 26.5 157C24.2909 157 22.5 158.652 22.5 160.689V160.689C22.5 161.244 22.527 161.813 22.6538 162.354C22.9568 163.645 24.2582 164.927 26.1133 165.584C27.7845 166.177 29.49 166.115 30.6615 165.533C31.4634 165.134 32.1615 164.499 32.7209 163.8C33.2106 163.188 33.5 162.431 33.5 161.612C33.5 159.574 31.7091 157.922 29.5 157.922Z" fill="#0F0E12"/>
<path fill-rule="evenodd" clip-rule="evenodd" d="M19.5 140.922V140.922C19.2827 140.922 19.0703 140.855 18.8914 140.732C18.2243 140.272 17.3966 140 16.5 140C14.2909 140 12.5 141.652 12.5 143.689V143.689C12.5 144.244 12.527 144.813 12.6538 145.354C12.9568 146.645 14.2582 147.927 16.1133 148.584C17.7845 149.177 19.49 149.115 20.6615 148.533C21.4634 148.134 22.1615 147.499 22.7209 146.8C23.2106 146.188 23.5 145.431 23.5 144.612C23.5 142.574 21.7091 140.922 19.5 140.922Z" fill="#0F0E12"/>
<path fill-rule="evenodd" clip-rule="evenodd" d="M38.5 140.922V140.922C38.2827 140.922 38.0703 140.855 37.8914 140.732C37.2243 140.272 36.3966 140 35.5 140C33.2909 140 31.5 141.652 31.5 143.689V143.689C31.5 144.244 31.527 144.813 31.6538 145.354C31.9568 146.645 33.2582 147.927 35.1133 148.584C36.7845 149.177 38.49 149.115 39.6615 148.533C40.4634 148.134 41.1615 147.499 41.7209 146.8C42.2106 146.188 42.5 145.431 42.5 144.612C42.5 142.574 40.7091 140.922 38.5 140.922Z" fill="#0F0E12"/>
<path fill-rule="evenodd" clip-rule="evenodd" d="M10.5 157.922V157.922C10.2827 157.922 10.0703 157.855 9.89136 157.732C9.22432 157.272 8.39661 157 7.5 157C5.29086 157 3.5 158.652 3.5 160.689V160.689C3.5 161.244 3.52698 161.813 3.65378 162.354C3.95677 163.645 5.2582 164.927 7.11334 165.584C8.78453 166.177 10.49 166.115 11.6615 165.533C12.4634 165.134 13.1615 164.499 13.7209 163.8C14.2106 163.188 14.5 162.431 14.5 161.612C14.5 159.574 12.7091 157.922 10.5 157.922Z" fill="#0F0E12"/>
<path fill-rule="evenodd" clip-rule="evenodd" d="M67.5 157.922V157.922C67.2827 157.922 67.0703 157.855 66.8914 157.732C66.2243 157.272 65.3966 157 64.5 157C62.2909 157 60.5 158.652 60.5 160.689V160.689C60.5 161.244 60.527 161.813 60.6538 162.354C60.9568 163.645 62.2582 164.927 64.1133 165.584C65.7845 166.177 67.49 166.115 68.6615 165.533C69.4634 165.134 70.1615 164.499 70.7209 163.8C71.2106 163.188 71.5 162.431 71.5 161.612C71.5 159.574 69.7091 157.922 67.5 157.922Z" fill="#0F0E12"/>
<path fill-rule="evenodd" clip-rule="evenodd" d="M57.5 140.922V140.922C57.2827 140.922 57.0703 140.855 56.8914 140.732C56.2243 140.272 55.3966 140 54.5 140C52.2909 140 50.5 141.652 50.5 143.689V143.689C50.5 144.244 50.527 144.813 50.6538 145.354C50.9568 146.645 52.2582 147.927 54.1133 148.584C55.7845 149.177 57.49 149.115 58.6615 148.533C59.4634 148.134 60.1615 147.499 60.7209 146.8C61.2106 146.188 61.5 145.431 61.5 144.612C61.5 142.574 59.7091 140.922 57.5 140.922Z" fill="#0F0E12"/>
<path fill-rule="evenodd" clip-rule="evenodd" d="M76.5 140.922V140.922C76.2827 140.922 76.0703 140.855 75.8914 140.732C75.2243 140.272 74.3966 140 73.5 140C71.2909 140 69.5 141.652 69.5 143.689V143.689C69.5 144.244 69.527 144.813 69.6538 145.354C69.9568 146.645 71.2582 147.927 73.1133 148.584C74.7845 149.177 76.49 149.115 77.6615 148.533C78.4634 148.134 79.1615 147.499 79.7209 146.8C80.2106 146.188 80.5 145.431 80.5 144.612C80.5 142.574 78.7091 140.922 76.5 140.922Z" fill="#0F0E12"/>
<path fill-rule="evenodd" clip-rule="evenodd" d="M48.5 157.922V157.922C48.2827 157.922 48.0703 157.855 47.8914 157.732C47.2243 157.272 46.3966 157 45.5 157C43.2909 157 41.5 158.652 41.5 160.689V160.689C41.5 161.244 41.527 161.813 41.6538 162.354C41.9568 163.645 43.2582 164.927 45.1133 165.584C46.7845 166.177 48.49 166.115 49.6615 165.533C50.4634 165.134 51.1615 164.499 51.7209 163.8C52.2106 163.188 52.5 162.431 52.5 161.612C52.5 159.574 50.7091 157.922 48.5 157.922Z" fill="#0F0E12"/>
<path fill-rule="evenodd" clip-rule="evenodd" d="M105.5 157.922V157.922C105.283 157.922 105.07 157.855 104.891 157.732C104.224 157.272 103.397 157 102.5 157C100.291 157 98.5 158.652 98.5 160.689V160.689C98.5 161.244 98.527 161.813 98.6538 162.354C98.9568 163.645 100.258 164.927 102.113 165.584C103.785 166.177 105.49 166.115 106.661 165.533C107.463 165.134 108.161 164.499 108.721 163.8C109.211 163.188 109.5 162.431 109.5 161.612C109.5 159.574 107.709 157.922 105.5 157.922Z" fill="#0F0E12"/>
<path fill-rule="evenodd" clip-rule="evenodd" d="M95.5 140.922V140.922C95.2827 140.922 95.0703 140.855 94.8914 140.732C94.2243 140.272 93.3966 140 92.5 140C90.2909 140 88.5 141.652 88.5 143.689V143.689C88.5 144.244 88.527 144.813 88.6538 145.354C88.9568 146.645 90.2582 147.927 92.1133 148.584C93.7845 149.177 95.49 149.115 96.6615 148.533C97.4634 148.134 98.1615 147.499 98.7209 146.8C99.2106 146.188 99.5 145.431 99.5 144.612C99.5 142.574 97.7091 140.922 95.5 140.922Z" fill="#0F0E12"/>
<path fill-rule="evenodd" clip-rule="evenodd" d="M114.5 140.922V140.922C114.283 140.922 114.07 140.855 113.891 140.732C113.224 140.272 112.397 140 111.5 140C109.291 140 107.5 141.652 107.5 143.689V143.689C107.5 144.244 107.527 144.813 107.654 145.354C107.957 146.645 109.258 147.927 111.113 148.584C112.785 149.177 114.49 149.115 115.661 148.533C116.463 148.134 117.161 147.499 117.721 146.8C118.211 146.188 118.5 145.431 118.5 144.612C118.5 142.574 116.709 140.922 114.5 140.922Z" fill="#0F0E12"/>
<path fill-rule="evenodd" clip-rule="evenodd" d="M86.5 157.922V157.922C86.2827 157.922 86.0703 157.855 85.8914 157.732C85.2243 157.272 84.3966 157 83.5 157C81.2909 157 79.5 158.652 79.5 160.689V160.689C79.5 161.244 79.527 161.813 79.6538 162.354C79.9568 163.645 81.2582 164.927 83.1133 165.584C84.7845 166.177 86.49 166.115 87.6615 165.533C88.4634 165.134 89.1615 164.499 89.7209 163.8C90.2106 163.188 90.5 162.431 90.5 161.612C90.5 159.574 88.7091 157.922 86.5 157.922Z" fill="#0F0E12"/>
<path fill-rule="evenodd" clip-rule="evenodd" d="M143.5 157.922V157.922C143.283 157.922 143.07 157.855 142.891 157.732C142.224 157.272 141.397 157 140.5 157C138.291 157 136.5 158.652 136.5 160.689V160.689C136.5 161.244 136.527 161.813 136.654 162.354C136.957 163.645 138.258 164.927 140.113 165.584C141.785 166.177 143.49 166.115 144.661 165.533C145.463 165.134 146.161 164.499 146.721 163.8C147.211 163.188 147.5 162.431 147.5 161.612C147.5 159.574 145.709 157.922 143.5 157.922Z" fill="#0F0E12"/>
<path fill-rule="evenodd" clip-rule="evenodd" d="M133.5 140.922V140.922C133.283 140.922 133.07 140.855 132.891 140.732C132.224 140.272 131.397 140 130.5 140C128.291 140 126.5 141.652 126.5 143.689V143.689C126.5 144.244 126.527 144.813 126.654 145.354C126.957 146.645 128.258 147.927 130.113 148.584C131.785 149.177 133.49 149.115 134.661 148.533C135.463 148.134 136.161 147.499 136.721 146.8C137.211 146.188 137.5 145.431 137.5 144.612C137.5 142.574 135.709 140.922 133.5 140.922Z" fill="#0F0E12"/>
<path fill-rule="evenodd" clip-rule="evenodd" d="M152.5 140.922V140.922C152.283 140.922 152.07 140.855 151.891 140.732C151.224 140.272 150.397 140 149.5 140C147.291 140 145.5 141.652 145.5 143.689V143.689C145.5 144.244 145.527 144.813 145.654 145.354C145.957 146.645 147.258 147.927 149.113 148.584C150.785 149.177 152.49 149.115 153.661 148.533C154.463 148.134 155.161 147.499 155.721 146.8C156.211 146.188 156.5 145.431 156.5 144.612C156.5 142.574 154.709 140.922 152.5 140.922Z" fill="#0F0E12"/>
<path fill-rule="evenodd" clip-rule="evenodd" d="M124.5 157.922V157.922C124.283 157.922 124.07 157.855 123.891 157.732C123.224 157.272 122.397 157 121.5 157C119.291 157 117.5 158.652 117.5 160.689V160.689C117.5 161.244 117.527 161.813 117.654 162.354C117.957 163.645 119.258 164.927 121.113 165.584C122.785 166.177 124.49 166.115 125.661 165.533C126.463 165.134 127.161 164.499 127.721 163.8C128.211 163.188 128.5 162.431 128.5 161.612C128.5 159.574 126.709 157.922 124.5 157.922Z" fill="#0F0E12"/>
<path fill-rule="evenodd" clip-rule="evenodd" d="M181.5 157.922V157.922C181.283 157.922 181.07 157.855 180.891 157.732C180.224 157.272 179.397 157 178.5 157C176.291 157 174.5 158.652 174.5 160.689V160.689C174.5 161.244 174.527 161.813 174.654 162.354C174.957 163.645 176.258 164.927 178.113 165.584C179.785 166.177 181.49 166.115 182.661 165.533C183.463 165.134 184.161 164.499 184.721 163.8C185.211 163.188 185.5 162.431 185.5 161.612C185.5 159.574 183.709 157.922 181.5 157.922Z" fill="#0F0E12"/>
<path fill-rule="evenodd" clip-rule="evenodd" d="M171.5 140.922V140.922C171.283 140.922 171.07 140.855 170.891 140.732C170.224 140.272 169.397 140 168.5 140C166.291 140 164.5 141.652 164.5 143.689V143.689C164.5 144.244 164.527 144.813 164.654 145.354C164.957 146.645 166.258 147.927 168.113 148.584C169.785 149.177 171.49 149.115 172.661 148.533C173.463 148.134 174.161 147.499 174.721 146.8C175.211 146.188 175.5 145.431 175.5 144.612C175.5 142.574 173.709 140.922 171.5 140.922Z" fill="#0F0E12"/>
<path fill-rule="evenodd" clip-rule="evenodd" d="M190.5 140.922V140.922C190.283 140.922 190.07 140.855 189.891 140.732C189.224 140.272 188.397 140 187.5 140C185.291 140 183.5 141.652 183.5 143.689V143.689C183.5 144.244 183.527 144.813 183.654 145.354C183.957 146.645 185.258 147.927 187.113 148.584C188.785 149.177 190.49 149.115 191.661 148.533C192.463 148.134 193.161 147.499 193.721 146.8C194.211 146.188 194.5 145.431 194.5 144.612C194.5 142.574 192.709 140.922 190.5 140.922Z" fill="#0F0E12"/>
<path fill-rule="evenodd" clip-rule="evenodd" d="M162.5 157.922V157.922C162.283 157.922 162.07 157.855 161.891 157.732C161.224 157.272 160.397 157 159.5 157C157.291 157 155.5 158.652 155.5 160.689V160.689C155.5 161.244 155.527 161.813 155.654 162.354C155.957 163.645 157.258 164.927 159.113 165.584C160.785 166.177 162.49 166.115 163.661 165.533C164.463 165.134 165.161 164.499 165.721 163.8C166.211 163.188 166.5 162.431 166.5 161.612C166.5 159.574 164.709 157.922 162.5 157.922Z" fill="#0F0E12"/>
<path fill-rule="evenodd" clip-rule="evenodd" d="M219.5 157.922V157.922C219.283 157.922 219.07 157.855 218.891 157.732C218.224 157.272 217.397 157 216.5 157C214.291 157 212.5 158.652 212.5 160.689V160.689C212.5 161.244 212.527 161.813 212.654 162.354C212.957 163.645 214.258 164.927 216.113 165.584C217.785 166.177 219.49 166.115 220.661 165.533C221.463 165.134 222.161 164.499 222.721 163.8C223.211 163.188 223.5 162.431 223.5 161.612C223.5 159.574 221.709 157.922 219.5 157.922Z" fill="#0F0E12"/>
<path fill-rule="evenodd" clip-rule="evenodd" d="M209.5 140.922V140.922C209.283 140.922 209.07 140.855 208.891 140.732C208.224 140.272 207.397 140 206.5 140C204.291 140 202.5 141.652 202.5 143.689V143.689C202.5 144.244 202.527 144.813 202.654 145.354C202.957 146.645 204.258 147.927 206.113 148.584C207.785 149.177 209.49 149.115 210.661 148.533C211.463 148.134 212.161 147.499 212.721 146.8C213.211 146.188 213.5 145.431 213.5 144.612C213.5 142.574 211.709 140.922 209.5 140.922Z" fill="#0F0E12"/>
<path fill-rule="evenodd" clip-rule="evenodd" d="M228.5 140.922V140.922C228.283 140.922 228.07 140.855 227.891 140.732C227.224 140.272 226.397 140 225.5 140C223.291 140 221.5 141.652 221.5 143.689V143.689C221.5 144.244 221.527 144.813 221.654 145.354C221.957 146.645 223.258 147.927 225.113 148.584C226.785 149.177 228.49 149.115 229.661 148.533C230.463 148.134 231.161 147.499 231.721 146.8C232.211 146.188 232.5 145.431 232.5 144.612C232.5 142.574 230.709 140.922 228.5 140.922Z" fill="#0F0E12"/>
<path fill-rule="evenodd" clip-rule="evenodd" d="M200.5 157.922V157.922C200.283 157.922 200.07 157.855 199.891 157.732C199.224 157.272 198.397 157 197.5 157C195.291 157 193.5 158.652 193.5 160.689V160.689C193.5 161.244 193.527 161.813 193.654 162.354C193.957 163.645 195.258 164.927 197.113 165.584C198.785 166.177 200.49 166.115 201.661 165.533C202.463 165.134 203.161 164.499 203.721 163.8C204.211 163.188 204.5 162.431 204.5 161.612C204.5 159.574 202.709 157.922 200.5 157.922Z" fill="#0F0E12"/>
</g>
<defs>
<clipPath id="clip0_664_58152">
<rect width="227" height="170" fill="white"/>
</clipPath>
</defs>
</svg>
