<svg width="200" height="200" viewBox="0 0 200 200" fill="none" xmlns="http://www.w3.org/2000/svg">
<path fill-rule="evenodd" clip-rule="evenodd" d="M72.2045 66.316C72.2401 68.4834 71.5764 70.6713 70.0745 72.2344C64.4608 78.0766 61.2149 85.6273 61.5601 93.7412C61.6889 96.7694 62.3095 99.677 63.3533 102.41C64.2185 104.675 63.9436 107.257 62.5966 109.273C59.7541 113.528 58.1543 118.33 58.1543 123.413C58.1543 140.87 77.0226 155.021 100.298 155.021C123.573 155.021 142.441 140.87 142.441 123.413C142.441 117.029 139.917 111.086 135.577 106.117C133.936 104.238 133.383 101.611 134.054 99.2086C134.824 96.4558 135.175 93.5727 135.049 90.6147C134.805 84.8849 132.801 79.587 129.5 75.0863C128.174 73.2788 127.795 70.9386 128.169 68.7284C128.317 67.8517 128.394 66.9582 128.394 66.0513C128.394 54.4136 115.815 44.9795 100.298 44.9795C84.7812 44.9795 72.2023 54.4136 72.2023 66.0513C72.2023 66.1396 72.203 66.2279 72.2045 66.316Z" fill="#171619"/>
<path fill-rule="evenodd" clip-rule="evenodd" d="M74.7681 69.3895C74.8004 71.3591 74.1973 73.3474 72.8324 74.7678C67.731 80.077 64.7813 86.9386 65.095 94.3121C65.2121 97.064 65.776 99.7062 66.7246 102.19C67.5108 104.248 67.261 106.594 66.0369 108.427C63.4538 112.293 62 116.657 62 121.277C62 137.14 79.1465 150 100.298 150C121.449 150 138.596 137.14 138.596 121.277C138.596 115.475 136.302 110.075 132.358 105.558C130.866 103.851 130.364 101.464 130.974 99.2806C131.673 96.779 131.992 94.159 131.878 91.4709C131.657 86.2639 129.835 81.4495 126.835 77.3595C125.63 75.7169 125.286 73.5903 125.626 71.5818C125.761 70.7851 125.83 69.9731 125.83 69.1489C125.83 58.5733 114.399 50 100.298 50C86.1971 50 74.7661 58.5733 74.7661 69.1489C74.7661 69.2292 74.7668 69.3095 74.7681 69.3895Z" fill="#DEE2E2"/>
<path fill-rule="evenodd" clip-rule="evenodd" d="M98.943 100.04C98.5239 99.9687 98.1858 99.9565 97.8708 99.9725C98.1769 105.116 103.869 109.374 111.123 109.066C114.736 108.912 117.406 107.725 119.138 105.968C120.867 104.214 121.735 101.819 121.619 99.0965C121.598 98.6162 121.971 98.2103 122.452 98.1899C122.932 98.1695 123.338 98.5423 123.358 99.0225C123.492 102.173 122.482 105.055 120.377 107.19C118.276 109.322 115.156 110.636 111.197 110.805C103.533 111.131 96.7077 106.669 96.1529 100.348C95.9954 100.423 95.8253 100.512 95.6312 100.62C95.1484 100.888 94.5396 100.714 94.2715 100.231C94.0033 99.7485 94.1773 99.1397 94.6602 98.8716C95.3665 98.4793 96.0048 98.1783 96.8813 98.0643L96.8902 98.0631C97.4942 97.9846 98.2278 97.8892 99.2797 98.0688C99.8241 98.1618 100.19 98.6785 100.097 99.2229C100.004 99.7673 99.4874 100.133 98.943 100.04ZM101.756 80.1025C101.756 83.1026 103.021 85.5346 104.581 85.5346C106.142 85.5346 107.407 83.1026 107.407 80.1025C107.407 77.1024 106.142 74.6704 104.581 74.6704C103.021 74.6704 101.756 77.1024 101.756 80.1025ZM114.819 80.2436C114.819 82.9962 116.001 85.2275 117.459 85.2275C118.917 85.2275 120.099 82.9962 120.099 80.2436C120.099 77.4911 118.917 75.2598 117.459 75.2598C116.001 75.2598 114.819 77.4911 114.819 80.2436Z" fill="#171619"/>
</svg>
