<svg width="332" height="195" viewBox="0 0 332 195" fill="none" xmlns="http://www.w3.org/2000/svg">
<path d="M74.823 10.2699C72.717 10.2699 71.4198 10.8 70.9315 11.8603C70.5652 12.648 70.2142 14.193 69.8785 16.4954C69.5733 18.7978 69.4207 20.8881 69.4207 22.7664C69.4207 23.8873 69.7869 24.6598 70.5194 25.0839C71.252 25.508 72.6254 25.7201 74.6398 25.7201C75.9828 25.7201 76.9747 25.4777 77.6157 24.993C78.2566 24.5083 78.6992 23.6903 78.9434 22.5392C79.6453 19.237 81.0799 17.586 83.2469 17.586C86.9705 17.586 88.8323 22.009 88.8323 30.855C88.8323 36.4595 88.0235 40.5796 86.4059 43.2152C85.4292 44.8208 84.0862 45.6236 82.377 45.6236C80.5763 45.6236 79.5385 44.427 79.2638 42.0337C79.1112 40.4887 78.9128 39.3981 78.6687 38.7619C78.455 38.1257 78.0277 37.5198 77.3868 36.9442C76.3796 36.0051 74.9145 35.5355 72.9917 35.5355C71.6182 35.5355 70.6873 35.7779 70.199 36.2626C69.7106 36.7473 69.497 37.6713 69.558 39.0345C69.558 39.2769 69.5427 40.6856 69.5122 43.2606C69.5122 48.5016 70.0616 51.6977 71.1604 52.8489C71.5266 53.3033 71.8929 53.6062 72.2592 53.7577C72.6559 53.8789 73.6631 54.0606 75.2808 54.303C76.0743 54.4242 76.7458 54.8331 77.2952 55.5299C77.8446 56.2267 78.1193 57.0295 78.1193 57.9383C78.1193 60.271 76.7458 61.7706 73.9989 62.4371C70.0311 63.3762 64.4609 63.8458 57.2884 63.8458C51.001 63.8458 46.6669 63.4822 44.2862 62.7552C43.218 62.4219 42.3481 61.816 41.6767 60.9375C41.0052 60.059 40.6695 59.0895 40.6695 58.0292C40.6695 56.6963 41.1578 55.6208 42.1345 54.8029C42.3787 54.6211 43.218 54.2424 44.6525 53.6668C46.3617 53.0003 47.3842 51.4553 47.7199 49.0317C48.2693 45.3055 48.544 36.8079 48.544 23.5389C48.544 17.8132 48.3456 14.1021 47.9488 12.4056C47.552 10.7091 46.5906 9.52764 45.0645 8.86116C43.5385 8.19468 42.5313 7.61908 42.0429 7.13437C41.5851 6.61936 41.3562 5.89229 41.3562 4.95316C41.3562 3.6202 42.0124 2.51445 43.3248 1.63591C44.6372 0.727069 46.2549 0.272651 48.1777 0.272651C49.3986 0.272651 51.1841 0.363535 53.5342 0.545302C58.5092 0.939131 64.4609 1.13605 71.3893 1.13605C82.4686 1.13605 89.9311 0.8331 93.7768 0.227209C94.2956 0.16662 94.6924 0.136326 94.9671 0.136326C96.0354 0.136326 97.0578 0.742217 98.0345 1.954C100.72 5.34699 102.063 9.10351 102.063 13.2236C102.063 15.1018 101.621 16.6014 100.736 17.7223C99.8506 18.8432 98.6907 19.4037 97.2562 19.4037C96.188 19.4037 95.3792 19.1916 94.8298 18.7675C94.2804 18.3434 92.8764 16.8589 90.6178 14.3142C89.2443 12.7389 87.5809 11.7088 85.6276 11.2241C83.7047 10.7394 80.1032 10.4213 74.823 10.2699Z" fill="#F15A22"/>
<path d="M170.37 23.6298V34.7176C170.37 41.4127 169.867 46.1538 168.86 48.9409C166.693 54.818 161.931 59.0744 154.576 61.71C150.119 63.3459 145.083 64.1639 139.467 64.1639C129.67 64.1639 121.826 61.8463 115.935 57.2113C113.066 54.9392 111.082 52.3036 109.984 49.3044C108.885 46.3052 108.336 41.9731 108.336 36.308C108.336 34.0965 108.412 30.4612 108.564 25.402C108.656 21.8272 108.702 19.4643 108.702 18.3131C108.702 15.7986 108.503 14.0567 108.107 13.0872C107.74 12.1178 106.916 11.209 105.634 10.3607C103.62 9.05807 102.613 7.60393 102.613 5.99832C102.613 4.81683 103.116 3.77167 104.124 2.86284C105.161 1.954 106.519 1.33296 108.198 0.99972C111.556 0.33324 115.523 0 120.102 0C125.138 0 129.319 0.378682 132.646 1.13605C135.912 1.86312 137.545 3.51417 137.545 6.08921C137.545 7.36158 137.071 8.37644 136.125 9.13381C135.912 9.31558 134.996 9.78514 133.378 10.5425C132.402 10.9666 131.73 11.7391 131.364 12.86C131.028 13.9809 130.86 15.8289 130.86 18.4039C130.86 21.0396 130.738 26.7349 130.494 35.4901C130.341 40.7007 131.761 44.6693 134.752 47.3958C137.194 49.6376 140.337 50.7585 144.183 50.7585C146.625 50.7585 148.837 50.3193 150.821 49.4407C152.805 48.5319 154.316 47.305 155.354 45.7599C156.178 44.5784 156.743 43.2606 157.048 41.8065C157.353 40.3524 157.506 38.3681 157.506 35.8536V25.8564C157.353 18.1919 157.124 13.7083 156.819 12.4056C156.544 11.0727 155.567 10.0275 153.889 9.27013C152.302 8.57336 151.218 7.93717 150.638 7.36158C150.058 6.78598 149.768 6.07406 149.768 5.22581C149.768 3.40814 150.852 2.09032 153.019 1.27237C155.216 0.424124 158.726 0 163.549 0C168.28 0 171.698 0.408977 173.804 1.22693C175.941 2.04488 177.009 3.34755 177.009 5.13493C177.009 6.01347 176.826 6.6648 176.459 7.08893C176.093 7.51305 175.132 8.16438 173.575 9.04293C171.957 9.95176 171.027 10.9363 170.782 11.9966C170.569 13.0267 170.431 16.9044 170.37 23.6298Z" fill="#F15A22"/>
<path d="M208.668 20.7669V41.6247C208.668 46.3204 209.08 49.3498 209.904 50.7131C210.911 52.3187 213.033 53.1215 216.268 53.1215C219.747 53.1215 222.494 52.3641 224.509 50.8494C226.523 49.3347 227.927 46.9717 228.721 43.7605C229.178 41.7913 230.216 40.8068 231.834 40.8068C233.452 40.8068 234.764 41.5338 235.771 42.988C236.809 44.4118 237.328 46.2749 237.328 48.5773C237.328 52.3338 235.924 56.3479 233.116 60.6194C232.231 61.9827 231.452 62.9066 230.781 63.3914C230.109 63.9064 229.301 64.1639 228.354 64.1639L218.191 62.9369H186.189C184.083 62.9369 182.603 62.6946 181.748 62.2099C180.497 61.5131 179.871 60.4679 179.871 59.0744C179.871 58.2261 180.069 57.6051 180.466 57.2113C180.894 56.7871 181.901 56.1964 183.488 55.439C185.228 54.6211 186.342 53.4699 186.83 51.9855C187.227 50.7434 187.425 47.1232 187.425 41.1249C187.425 38.3378 187.349 34.3237 187.196 29.0828C187.044 24.0539 186.952 20.2671 186.922 17.7223C186.922 15.2988 186.723 13.6477 186.326 12.7692C185.96 11.8603 185.167 11.209 183.946 10.8152C181.931 10.1184 180.649 9.55793 180.1 9.13381C179.123 8.37644 178.635 7.51305 178.635 6.54362C178.635 4.33212 180.482 2.65077 184.175 1.49958C187.318 0.49986 191.53 0 196.811 0C202.732 0 207.157 0.302946 210.087 0.908837C213.872 1.72679 215.764 3.3627 215.764 5.81656C215.764 6.81628 215.505 7.55849 214.986 8.04321C214.498 8.52792 213.277 9.17925 211.323 9.9972C210.164 10.5122 209.431 11.3908 209.126 12.6328C208.821 13.8749 208.668 16.5863 208.668 20.7669Z" fill="#F15A22"/>
<path d="M265.189 20.7669V41.6247C265.189 46.3204 265.601 49.3498 266.425 50.7131C267.432 52.3187 269.553 53.1215 272.789 53.1215C276.268 53.1215 279.015 52.3641 281.03 50.8494C283.044 49.3347 284.448 46.9717 285.242 43.7605C285.699 41.7913 286.737 40.8068 288.355 40.8068C289.972 40.8068 291.285 41.5338 292.292 42.988C293.33 44.4118 293.849 46.2749 293.849 48.5773C293.849 52.3338 292.445 56.3479 289.637 60.6194C288.751 61.9827 287.973 62.9066 287.302 63.3914C286.63 63.9064 285.821 64.1639 284.875 64.1639L274.712 62.9369H242.71C240.604 62.9369 239.124 62.6946 238.269 62.2099C237.018 61.5131 236.392 60.4679 236.392 59.0744C236.392 58.2261 236.59 57.6051 236.987 57.2113C237.414 56.7871 238.422 56.1964 240.009 55.439C241.748 54.6211 242.862 53.4699 243.351 51.9855C243.748 50.7434 243.946 47.1232 243.946 41.1249C243.946 38.3378 243.87 34.3237 243.717 29.0828C243.564 24.0539 243.473 20.2671 243.442 17.7223C243.442 15.2988 243.244 13.6477 242.847 12.7692C242.481 11.8603 241.687 11.209 240.467 10.8152C238.452 10.1184 237.17 9.55793 236.621 9.13381C235.644 8.37644 235.156 7.51305 235.156 6.54362C235.156 4.33212 237.002 2.65077 240.695 1.49958C243.839 0.49986 248.051 0 253.331 0C259.253 0 263.678 0.302946 266.608 0.908837C270.393 1.72679 272.285 3.3627 272.285 5.81656C272.285 6.81628 272.026 7.55849 271.507 8.04321C271.019 8.52792 269.798 9.17925 267.844 9.9972C266.684 10.5122 265.952 11.3908 265.647 12.6328C265.342 13.8749 265.189 16.5863 265.189 20.7669Z" fill="#F15A22"/>
<path d="M27.4091 128.037L21.2743 128.082C16.9708 128.143 13.8271 128.234 11.8432 128.355C10.0729 128.506 8.80628 128.582 8.04325 128.582C6.18144 128.582 4.70115 128.113 3.60238 127.174C2.53413 126.234 2 125.113 2 123.811C2 122.963 2.19839 122.296 2.59517 121.811C2.99195 121.327 3.95337 120.569 5.47945 119.539C6.36457 118.933 6.975 117.994 7.31073 116.722C7.64647 115.419 8.01273 112.647 8.4095 108.406C8.98941 101.802 9.27937 93.6677 9.27937 84.0038C9.27937 80.4593 9.03519 78.1115 8.54685 76.9603C8.08903 75.7788 6.99026 74.8094 5.25053 74.052C3.23612 73.2038 2.22891 71.9617 2.22891 70.3258C2.22891 68.9928 2.82408 67.9022 4.01442 67.054C5.23527 66.2057 6.79187 65.7816 8.6842 65.7816C9.72193 65.7816 11.0496 65.827 12.6672 65.9179C15.3531 66.0391 18.2527 66.0997 21.3659 66.0997C23.655 66.0997 28.1569 66.0088 34.8716 65.827C36.9776 65.7665 38.8852 65.7362 40.5944 65.7362C44.6537 65.7362 47.9195 66.0694 50.3918 66.7359C52.8945 67.3721 55.0615 68.4627 56.8928 70.0077C59.8839 72.5221 61.3795 75.8848 61.3795 80.0958C61.3795 82.1861 60.9369 84.231 60.0518 86.2304C59.1667 88.1996 57.9763 89.7749 56.4808 90.9564C55.4125 91.8046 54.8784 92.5771 54.8784 93.2739C54.8784 94.0313 55.5194 94.6675 56.8013 95.1825C59.304 96.1822 61.5779 97.8635 63.6228 100.227C65.7288 102.68 66.7818 105.755 66.7818 109.451C66.7818 113.814 65.1794 117.797 61.9747 121.402C57.7322 126.159 51.46 128.537 43.1582 128.537C42.0289 128.537 39.2514 128.461 34.8258 128.31C30.797 128.158 28.3248 128.067 27.4091 128.037ZM30.5681 78.7325V88.0935C30.5681 89.578 30.7512 90.6231 31.1175 91.229C31.5142 91.8349 32.1857 92.1379 33.1319 92.1379C35.3905 92.1379 37.0539 91.4562 38.1221 90.093C39.1904 88.6994 39.7245 86.5334 39.7245 83.5948C39.7245 80.7471 39.1751 78.5508 38.0764 77.0057C36.9776 75.4304 35.421 74.6428 33.4066 74.6428C32.3383 74.6428 31.5905 74.9457 31.1632 75.5516C30.7665 76.1272 30.5681 77.1875 30.5681 78.7325ZM30.5681 104.907V109.224C30.5681 113.193 30.858 115.828 31.4379 117.131C32.0178 118.434 33.1929 119.085 34.9632 119.085C39.6024 119.085 41.9221 116.389 41.9221 110.996C41.9221 104.271 39.3277 100.908 34.1391 100.908C32.7961 100.908 31.8652 101.196 31.3464 101.772C30.8275 102.347 30.5681 103.392 30.5681 104.907Z" fill="#F15A22"/>
<path d="M73.7462 66.0543H97.2782C102.04 66.0543 105.504 65.9634 107.671 65.7816C109.868 65.5695 112.005 65.1606 114.08 64.5547C114.721 64.3729 115.225 64.282 115.591 64.282C117.178 64.282 118.582 65.1303 119.803 66.8268C121.817 69.5836 122.825 72.916 122.825 76.824C122.825 78.7931 122.397 80.3533 121.543 81.5045C120.719 82.6254 119.574 83.1858 118.109 83.1858C117.102 83.1858 116.308 82.9889 115.728 82.5951C115.179 82.171 114.431 81.247 113.485 79.8231C112.142 77.7934 110.433 76.4453 108.357 75.7788C106.313 75.082 102.94 74.7336 98.2396 74.7336C94.7297 74.7336 92.5932 75.3547 91.8301 76.5968C91.4333 77.2632 91.1892 78.1569 91.0976 79.2778C91.0366 80.3987 91.0061 83.2616 91.0061 87.8663C91.0061 89.684 91.3113 90.8201 91.9217 91.2745C92.5321 91.6986 94.1345 91.9107 96.7288 91.9107C98.0107 91.9107 98.9416 91.6532 99.5215 91.1381C100.101 90.5928 100.468 89.6386 100.62 88.2753C100.834 86.5182 101.048 85.3216 101.261 84.6854C101.505 84.0189 101.933 83.4433 102.543 82.9586C103.184 82.4133 103.932 82.1407 104.786 82.1407C106.038 82.1407 107.106 82.7314 107.991 83.9129C108.632 84.7914 109.166 86.3516 109.594 88.5934C110.051 90.8049 110.28 93.1224 110.28 95.546C110.28 100.333 109.533 104.256 108.037 107.315C107.213 108.982 105.962 109.815 104.283 109.815C103.245 109.815 102.528 109.557 102.131 109.042C101.734 108.497 101.429 107.391 101.215 105.725C100.758 102.302 98.7432 100.59 95.1722 100.59C93.7988 100.59 92.8526 101.029 92.3337 101.908C91.8454 102.756 91.6012 104.347 91.6012 106.679C91.6012 108.103 91.6928 109.951 91.8759 112.223C92.0896 114.465 92.3032 115.949 92.5169 116.676C92.761 117.585 93.5088 118.221 94.7602 118.585C96.0421 118.918 98.1633 119.085 101.124 119.085C105.702 119.085 109.151 118.509 111.471 117.358C113.79 116.177 115.683 114.056 117.148 110.996C118.002 109.239 118.765 108.058 119.437 107.452C120.139 106.846 121.039 106.543 122.138 106.543C123.42 106.543 124.473 107.103 125.297 108.224C126.152 109.315 126.579 110.693 126.579 112.359C126.579 114.177 126.106 116.449 125.16 119.176C124.213 121.902 123.054 124.326 121.68 126.446C120.978 127.476 120.398 128.158 119.94 128.491C119.483 128.855 118.903 129.037 118.201 129.037C117.621 129.037 116.781 128.946 115.683 128.764C113.729 128.4 111.12 128.173 107.854 128.082H69.0306C67.474 128.082 66.2684 127.749 65.4138 127.083C64.5592 126.386 64.1319 125.416 64.1319 124.174C64.1319 123.296 64.315 122.66 64.6813 122.266C65.0476 121.872 65.8869 121.372 67.1993 120.766C68.115 120.372 68.7864 119.888 69.2137 119.312C69.6716 118.736 70.0226 117.888 70.2667 116.767C71.2739 112.193 71.7775 106.028 71.7775 98.2725C71.7775 86.5788 71.045 79.2021 69.58 76.1423C69.2748 75.5365 68.939 75.1123 68.5728 74.87C68.2065 74.6276 67.4435 74.3398 66.2837 74.0066C64.5439 73.4916 63.6741 72.3404 63.6741 70.553C63.6741 69.5836 63.964 68.7202 64.5439 67.9628C65.1239 67.2054 65.8869 66.7056 66.8331 66.4632C68.0234 66.1906 70.3278 66.0543 73.7462 66.0543Z" fill="#F15A22"/>
<path d="M185.903 96.6821L194.556 115.086C195.38 116.782 196.067 117.903 196.616 118.449C197.166 118.964 198.005 119.312 199.134 119.494C201.332 119.827 202.431 120.933 202.431 122.811C202.431 125.023 201.088 126.613 198.402 127.582C195.716 128.552 191.321 129.037 185.217 129.037C178.319 129.037 173.206 128.749 169.88 128.173C168.354 127.901 167.133 127.355 166.217 126.537C165.332 125.689 164.889 124.674 164.889 123.493C164.889 122.584 165.118 121.887 165.576 121.402C166.064 120.887 166.95 120.418 168.231 119.994C169.666 119.509 170.383 118.691 170.383 117.54C170.383 115.51 169.147 114.313 166.675 113.95C164.019 113.586 160.281 113.405 155.458 113.405C151.399 113.405 148.972 113.647 148.179 114.132C147.69 114.435 147.263 114.98 146.897 115.768C146.531 116.555 146.348 117.313 146.348 118.04C146.348 118.706 146.47 119.145 146.714 119.358C146.988 119.539 147.843 119.857 149.278 120.312C151.139 120.857 152.07 121.948 152.07 123.584C152.07 127.189 147.721 128.991 139.022 128.991C134.078 128.991 130.446 128.658 128.126 127.991C125.99 127.355 124.921 125.962 124.921 123.811C124.921 122.872 125.15 122.145 125.608 121.63C126.097 121.115 126.951 120.645 128.172 120.221C130.156 119.524 131.651 118.555 132.659 117.313C133.696 116.04 135.161 113.344 137.054 109.224L143.509 95.1825C145.89 90.0324 147.477 86.185 148.27 83.6402C149.094 81.0652 149.522 78.5508 149.552 76.0969C149.583 73.4916 149.735 71.689 150.01 70.6893C150.315 69.6593 150.972 68.6596 151.979 67.6902C154.085 65.5695 156.771 64.5092 160.036 64.5092C163.119 64.5092 166.064 65.7059 168.872 68.0991C172.779 71.3709 178.456 80.8986 185.903 96.6821ZM154.039 102.408H163.012C164.66 102.408 165.484 102.044 165.484 101.317C165.484 100.317 164.34 97.8635 162.051 93.9555C161.013 92.1682 160.22 90.9715 159.67 90.3656C159.121 89.7597 158.541 89.4568 157.93 89.4568C156.832 89.4568 155.916 90.4717 155.184 92.5014C155.061 92.7741 154.619 93.8495 153.856 95.7278C152.574 98.8178 151.933 100.666 151.933 101.272C151.933 102.029 152.635 102.408 154.039 102.408Z" fill="#F15A22"/>
<path d="M227.144 68.2355L249.943 88.0481C252.08 89.8961 253.621 90.8201 254.567 90.8201C256.155 90.8201 256.948 89.1387 256.948 85.776C256.948 81.9589 256.719 79.3536 256.261 77.96C255.804 76.5665 254.842 75.5213 253.377 74.8245C252.187 74.2489 251.347 73.643 250.859 73.0069C250.371 72.3404 250.127 71.4921 250.127 70.4621C250.127 67.9174 251.882 66.2815 255.392 65.5544C256.826 65.2514 259.329 65.1 262.9 65.1C267.509 65.1 270.698 65.3726 272.468 65.9179C275.276 66.7662 276.68 68.3718 276.68 70.7348C276.68 72.7039 275.536 74.1883 273.247 75.1881C272.331 75.5819 271.705 75.9303 271.37 76.2332C271.034 76.5362 270.744 76.9906 270.5 77.5965C269.676 79.5959 269.248 83.3827 269.218 88.9569V103.771C269.218 106.043 269.233 109.148 269.264 113.087C269.294 118.418 268.974 122.266 268.302 124.629C267.478 127.567 265.982 129.037 263.815 129.037C262.869 129.037 262.045 128.84 261.343 128.446C260.672 128.052 259.542 127.143 257.955 125.719L230.807 101.59C228.914 99.8933 227.342 99.045 226.091 99.045C224.229 99.045 223.298 101.605 223.298 106.725C223.298 110.936 223.527 113.814 223.985 115.359C224.473 116.904 225.45 118.04 226.915 118.767C228.96 119.767 229.982 121.069 229.982 122.675C229.982 126.886 225.419 128.991 216.294 128.991C212.173 128.991 208.968 128.461 206.679 127.401C204.421 126.31 203.291 124.78 203.291 122.811C203.291 121.781 203.505 121.009 203.932 120.494C204.36 119.979 205.321 119.282 206.817 118.403C208.251 117.555 209.121 116.055 209.426 113.905C209.945 109.997 210.205 104.377 210.205 97.0456C210.205 89.2296 209.747 83.5342 208.831 79.9595C208.495 78.6568 208.068 77.6874 207.549 77.0512C207.03 76.415 206.176 75.8091 204.985 75.2335C203.612 74.567 202.65 73.9157 202.101 73.2795C201.582 72.6433 201.323 71.8708 201.323 70.962C201.323 68.0537 203.841 66.2209 208.877 65.4635C210.586 65.2212 213.577 65.1 217.85 65.1C220.292 65.1 222.062 65.2969 223.161 65.6907C224.29 66.0543 225.618 66.9025 227.144 68.2355Z" fill="#F15A22"/>
<path d="M300.883 64.7819C304.026 64.7819 308.147 65.5544 313.244 67.0994C313.854 67.2812 314.342 67.3721 314.709 67.3721C315.014 67.3721 315.93 67.0994 317.456 66.5541C317.944 66.3723 318.463 66.2815 319.012 66.2815C321.057 66.2815 323.209 67.8871 325.468 71.0983C327.757 74.3095 328.901 77.3693 328.901 80.2775C328.901 81.974 328.382 83.413 327.345 84.5945C326.337 85.7457 325.101 86.3213 323.636 86.3213C322.415 86.3213 321.423 86.079 320.66 85.5942C319.897 85.1095 318.219 83.6705 315.624 81.2773C311.962 77.8843 308.36 76.1878 304.82 76.1878C303.111 76.1878 301.737 76.5968 300.699 77.4147C299.692 78.2327 299.189 79.3081 299.189 80.6411C299.189 83.2767 301.523 85.261 306.193 86.594C312.511 88.4419 316.555 89.79 318.326 90.6383C326.109 94.3948 330 99.9236 330 107.225C330 113.677 327.345 118.949 322.034 123.038C316.601 127.219 309.505 129.309 300.745 129.309C296.838 129.309 292.718 128.855 288.384 127.946C284.05 127.007 280.922 125.916 278.999 124.674C277.534 123.705 276.206 121.599 275.016 118.358C273.856 115.086 273.276 111.905 273.276 108.815C273.276 107.331 273.581 106.21 274.192 105.452C274.955 104.483 275.916 103.998 277.076 103.998C278.236 103.998 279.35 104.589 280.418 105.77C281.059 106.437 282.57 108.573 284.95 112.178C286.08 113.874 287.865 115.283 290.307 116.404C292.779 117.525 295.328 118.085 297.952 118.085C300.211 118.085 302.042 117.676 303.446 116.858C304.85 116.01 305.552 114.935 305.552 113.632C305.552 112.42 305.003 111.375 303.904 110.496C302.805 109.618 301.02 108.8 298.548 108.043C294.183 106.679 290.856 105.437 288.567 104.316C286.278 103.165 284.142 101.726 282.158 99.9993C277.335 95.7581 274.924 90.9412 274.924 85.5488C274.924 82.8829 275.55 80.2927 276.801 77.7782C278.052 75.2335 279.823 73.0371 282.112 71.1892C287.239 66.9176 293.496 64.7819 300.883 64.7819Z" fill="#F15A22"/>
<path d="M37.1442 167.144C35.9844 167.144 35.2366 167.493 34.9009 168.189C34.5957 168.886 34.4431 170.507 34.4431 173.052C34.4431 176.899 34.6873 179.898 35.1756 182.049C35.3282 182.655 35.5571 183.125 35.8623 183.458C36.1675 183.791 36.7475 184.2 37.6021 184.685C39.4333 185.684 40.349 187.002 40.349 188.638C40.349 190.638 39.0671 192.061 36.5033 192.91C33.97 193.728 29.6665 194.137 23.5927 194.137C12.2998 194.137 6.6533 192.016 6.6533 187.775C6.6533 187.048 6.82117 186.472 7.1569 186.048C7.49264 185.594 8.25567 184.973 9.44601 184.185C10.789 183.306 11.6893 182.276 12.1472 181.095C12.6355 179.883 12.9712 177.808 13.1544 174.869C13.307 172.718 13.3833 165.008 13.3833 151.739C13.3833 147.528 13.1696 144.666 12.7423 143.151C12.315 141.636 11.3994 140.53 9.9954 139.834C8.65245 139.197 7.75207 138.622 7.29425 138.107C6.83643 137.562 6.60752 136.865 6.60752 136.017C6.60752 134.896 7.03482 133.926 7.88942 133.108C8.77454 132.26 9.9954 131.639 11.552 131.245C12.8644 130.912 14.6652 130.745 16.9543 130.745C17.9615 130.745 20.4795 130.897 24.5083 131.2C25.2714 131.26 26.477 131.291 28.1251 131.291C30.8721 131.291 34.5346 131.109 39.1129 130.745C42.0124 130.533 44.0421 130.427 45.2019 130.427C51.7335 130.427 57.1358 131.987 61.4088 135.108C65.2545 137.925 67.1773 141.833 67.1773 146.832C67.1773 149.619 66.5059 152.163 65.1629 154.466C63.82 156.738 61.9734 158.45 59.6233 159.601C58.6466 160.086 58.1582 160.661 58.1582 161.328C58.1582 162.206 58.906 162.918 60.4016 163.463C63.6063 164.615 65.9565 166.357 67.452 168.689C68.9476 171.022 70.0158 174.597 70.6568 179.413C70.9315 181.413 71.3283 182.716 71.8471 183.321C72.366 183.897 73.5716 184.458 75.4639 185.003C76.0438 185.185 76.5322 185.578 76.9289 186.184C77.3257 186.76 77.5241 187.411 77.5241 188.138C77.5241 189.077 77.1579 190.032 76.4253 191.001C75.6928 191.94 74.7467 192.682 73.5868 193.228C71.023 194.409 67.5131 195 63.0569 195C57.1053 195 52.8475 193.44 50.2837 190.32C49.1239 188.926 48.132 187.169 47.3079 185.048C46.5143 182.928 45.5681 179.626 44.4694 175.142C43.7674 172.264 42.867 170.234 41.7682 169.053C40.7 167.871 39.1586 167.235 37.1442 167.144ZM34.4889 143.969L33.9853 154.557C33.9853 154.648 33.9853 154.784 33.9853 154.966C33.9853 156.056 34.1379 156.783 34.4431 157.147C34.7788 157.51 35.435 157.692 36.4117 157.692C39.0976 157.692 41.051 157.011 42.2718 155.647C43.4927 154.254 44.1031 152.042 44.1031 149.013C44.1031 143.166 42.0124 140.243 37.831 140.243C36.6406 140.243 35.8013 140.515 35.3129 141.061C34.8246 141.606 34.5499 142.575 34.4889 143.969Z" fill="#F15A22"/>
<path d="M139.147 161.827L147.8 180.231C148.624 181.928 149.311 183.049 149.86 183.594C150.409 184.109 151.249 184.458 152.378 184.639C154.576 184.973 155.674 186.078 155.674 187.957C155.674 190.168 154.331 191.758 151.645 192.728C148.96 193.697 144.564 194.182 138.46 194.182C131.562 194.182 126.45 193.894 123.123 193.319C121.597 193.046 120.376 192.501 119.461 191.683C118.575 190.835 118.133 189.82 118.133 188.638C118.133 187.729 118.362 187.033 118.82 186.548C119.308 186.033 120.193 185.563 121.475 185.139C122.91 184.654 123.627 183.836 123.627 182.685C123.627 180.656 122.391 179.459 119.918 179.095C117.263 178.732 113.524 178.55 108.702 178.55C104.642 178.55 102.216 178.792 101.422 179.277C100.934 179.58 100.507 180.125 100.141 180.913C99.7742 181.701 99.5911 182.458 99.5911 183.185C99.5911 183.852 99.7132 184.291 99.9574 184.503C100.232 184.685 101.087 185.003 102.521 185.457C104.383 186.003 105.314 187.093 105.314 188.729C105.314 192.334 100.965 194.137 92.266 194.137C87.3215 194.137 83.6894 193.803 81.3698 193.137C79.2333 192.501 78.1651 191.107 78.1651 188.956C78.1651 188.017 78.394 187.29 78.8518 186.775C79.3401 186.26 80.1947 185.79 81.4156 185.366C83.3995 184.67 84.895 183.7 85.9023 182.458C86.94 181.186 88.405 178.489 90.2973 174.369L96.7526 160.328C99.1333 155.178 100.72 151.33 101.514 148.786C102.338 146.211 102.765 143.696 102.796 141.242C102.826 138.637 102.979 136.834 103.254 135.835C103.559 134.805 104.215 133.805 105.222 132.836C107.328 130.715 110.014 129.655 113.28 129.655C116.363 129.655 119.308 130.851 122.116 133.245C126.023 136.516 131.7 146.044 139.147 161.827ZM107.283 167.553H116.256C117.904 167.553 118.728 167.19 118.728 166.463C118.728 165.463 117.584 163.009 115.294 159.101C114.257 157.314 113.463 156.117 112.914 155.511C112.364 154.905 111.784 154.602 111.174 154.602C110.075 154.602 109.16 155.617 108.427 157.647C108.305 157.919 107.862 158.995 107.099 160.873C105.817 163.963 105.177 165.811 105.177 166.417C105.177 167.174 105.879 167.553 107.283 167.553Z" fill="#F15A22"/>
<path d="M176.265 193.228H172.969C171.046 193.228 168.894 193.319 166.514 193.5C165.018 193.622 163.98 193.682 163.4 193.682C161.356 193.682 159.692 193.213 158.41 192.273C157.128 191.334 156.487 190.107 156.487 188.593C156.487 187.532 156.762 186.714 157.311 186.139C157.891 185.533 158.822 185.048 160.104 184.685C161.325 184.382 162.149 183.897 162.576 183.231C163.004 182.534 163.339 181.201 163.584 179.232C163.828 176.96 164.041 172.537 164.225 165.963C164.438 159.389 164.545 152.86 164.545 146.377C164.545 143.833 164.347 142.136 163.95 141.288C163.553 140.44 162.622 139.758 161.157 139.243C159.051 138.455 157.998 137.107 157.998 135.199C157.998 133.714 158.715 132.563 160.15 131.745C161.615 130.897 163.645 130.473 166.239 130.473C167.094 130.473 168.101 130.488 169.261 130.518C171.824 130.609 173.686 130.654 174.846 130.654C179.211 130.654 184.14 130.518 189.634 130.245C190.793 130.185 192.243 130.155 193.983 130.155C200.972 130.155 206.497 130.942 210.556 132.517C216.599 134.88 221.147 138.849 224.199 144.423C226.916 149.331 228.274 155.178 228.274 161.964C228.274 165.387 227.77 168.826 226.763 172.279C225.756 175.702 224.398 178.671 222.688 181.186C219.148 186.275 214.264 189.85 208.038 191.91C204.376 193.122 200.469 193.728 196.318 193.728L190.778 193.546L186.017 193.41C182.324 193.288 179.073 193.228 176.265 193.228ZM185.88 143.969V179.141C185.88 181.049 186.292 182.413 187.116 183.231C187.94 184.018 189.313 184.412 191.236 184.412C200.148 184.412 204.604 177.687 204.604 164.236C204.604 156.814 203.567 151.058 201.491 146.968C199.202 142.454 195.326 140.197 189.863 140.197C188.398 140.197 187.36 140.485 186.749 141.061C186.169 141.636 185.88 142.606 185.88 143.969Z" fill="#F15A22"/>
<path d="M244.442 130.245C247.922 130.245 251.203 130.548 254.285 131.154C258.436 131.972 260.512 133.714 260.512 136.38C260.512 137.259 260.298 137.925 259.871 138.379C259.474 138.804 258.436 139.44 256.758 140.288C255.354 140.985 254.423 142.515 253.965 144.878C253.538 147.241 253.324 151.845 253.324 158.692C253.324 170.264 253.614 177.429 254.194 180.186C254.408 181.065 254.728 181.746 255.155 182.231C255.613 182.685 256.391 183.185 257.49 183.73C259.505 184.639 260.512 185.957 260.512 187.684C260.512 190.107 258.65 191.774 254.926 192.682C250.898 193.652 245.968 194.137 240.139 194.137C230.189 194.137 225.214 192.258 225.214 188.502C225.214 187.139 226.19 185.866 228.144 184.685C229.639 183.776 230.525 182.534 230.799 180.958C231.379 177.505 231.669 170.174 231.669 158.965C231.669 151.209 231.272 146.241 230.479 144.06C230.051 142.818 229.029 141.697 227.411 140.697C226.16 139.879 225.321 139.197 224.893 138.652C224.466 138.107 224.252 137.41 224.252 136.562C224.252 135.259 224.878 134.229 226.129 133.472C227.411 132.684 229.655 131.987 232.859 131.381C236.675 130.624 240.536 130.245 244.442 130.245Z" fill="#F15A22"/>
<path d="M291.331 129.927C299.175 129.927 306.027 132.154 311.887 136.607C315.855 139.667 319.075 143.636 321.547 148.513C323.958 153.36 325.164 158.207 325.164 163.054C325.164 170.204 322.783 176.596 318.022 182.231C313.993 187.017 308.728 190.456 302.227 192.546C298.228 193.819 294.215 194.455 290.186 194.455C284.906 194.455 279.854 193.364 275.032 191.183C269.202 188.547 264.64 184.564 261.343 179.232C258.138 174.082 256.536 168.401 256.536 162.191C256.536 154.981 258.596 148.619 262.717 143.105C266.379 138.198 271.308 134.593 277.504 132.29C281.655 130.715 286.264 129.927 291.331 129.927ZM286.981 142.969C284.417 142.969 282.388 144.105 280.892 146.377C279.732 148.074 279.152 150.088 279.152 152.421C279.152 155.844 279.854 159.813 281.258 164.327C282.662 168.81 284.433 172.794 286.569 176.278C287.515 177.762 288.675 178.944 290.049 179.822C291.453 180.701 292.872 181.14 294.306 181.14C296.626 181.14 298.488 180.277 299.892 178.55C301.326 176.823 302.044 174.551 302.044 171.734C302.044 168.068 301.448 164.115 300.258 159.873C299.068 155.632 297.526 152.012 295.634 149.013C294.474 147.165 293.131 145.711 291.605 144.65C290.079 143.59 288.538 143.03 286.981 142.969Z" fill="#F15A22"/>
</svg>
