<svg width="632" height="455" viewBox="0 0 632 455" fill="none" xmlns="http://www.w3.org/2000/svg">
<path fill-rule="evenodd" clip-rule="evenodd" d="M511.54 174.068L511.313 174.239C507.229 169.821 502.334 165.912 496.81 162.621C508.475 150.589 514.523 133.377 511.645 115.543C506.806 85.5554 478.573 65.1685 448.585 70.0078C448.255 70.0611 447.925 70.1173 447.597 70.1764C450.191 62.1527 450.972 53.412 449.539 44.5305C447.813 33.8356 443.112 24.3618 436.416 16.818C443.436 10.2228 452.433 5.58128 462.657 3.9313C489.919 -0.468003 515.585 18.0655 519.984 45.3271C521.343 53.7435 520.515 62.0078 517.919 69.5413C517.301 71.3359 517.463 73.3199 518.43 74.9531C518.856 75.6719 519.709 76.0192 520.519 75.8161C521.908 75.468 523.324 75.1763 524.764 74.9439C552.025 70.5446 577.691 89.0781 582.091 116.34C584.286 129.945 580.77 143.154 573.307 153.519C567.005 154.1 560.287 155.167 553.399 156.734C536.024 160.687 520.831 167.083 511.54 174.068ZM481.219 13.8925C485.917 12.777 495.905 15.839 495.366 21.4814C495.327 21.8943 494.979 22.2051 494.564 22.2115C491.856 22.2534 489.46 20.463 487.011 18.6336C485.224 17.2983 483.409 15.9422 481.425 15.2626C480.625 14.9889 480.397 14.0876 481.219 13.8925ZM513.885 82.9658C508.152 86.0439 506.002 80.6263 508.307 75.4775C508.735 74.5221 510.055 75.1085 510.198 76.1454C510.511 78.4135 511.823 79.9494 513.464 80.7281C514.324 81.1364 514.724 82.5154 513.885 82.9658ZM558.309 98.2915C568.213 98.38 558.664 88.741 552.081 88.6908C551.213 88.6842 551.147 89.7057 551.88 90.1722C554.618 91.9163 556.419 94.4804 557.36 97.5608C557.488 97.9787 557.872 98.2876 558.309 98.2915Z" fill="black"/>
<path fill-rule="evenodd" clip-rule="evenodd" d="M452.455 151C467.026 151 480.756 154.31 492.248 160.115C503.495 149.135 509.403 133.037 506.709 116.34C502.31 89.0781 476.644 70.5446 449.382 74.9439C447.942 75.1763 446.527 75.468 445.137 75.8161C444.327 76.0192 443.474 75.6719 443.049 74.9531C442.081 73.3199 441.919 71.3359 442.538 69.5413C445.133 62.0079 445.961 53.7435 444.603 45.3271C440.203 18.0655 414.537 -0.468003 387.276 3.9313C367.578 7.1099 352.438 21.3907 347.211 39.3538C345.976 43.6009 344.745 47.9042 343.62 52.2262C371.642 54.763 393.598 78.3175 393.598 107C393.598 125.013 384.941 140.997 371.564 151.028L371.582 151.048C380.791 151.464 389.386 154.57 396.829 159.656C399.756 161.657 402.883 162.669 405.867 162.463C407.65 162.341 409.491 161.786 411.203 160.874C422.931 154.621 437.174 151 452.455 151ZM405.469 13.7654C410.102 12.7795 419.95 15.9046 419.566 21.353C419.536 21.7776 419.176 22.0974 418.75 22.0947C416.083 22.0778 413.691 20.3011 411.247 18.4857C409.453 17.153 407.631 15.7995 405.651 15.1062C404.858 14.8283 404.647 13.9405 405.469 13.7654ZM437.746 82.9053C432.063 86.0748 429.826 80.6925 432.048 75.5073C432.461 74.5452 433.79 75.1104 433.95 76.1449C434.299 78.4076 435.636 79.9223 437.289 80.6746C438.156 81.069 438.578 82.4415 437.746 82.9053ZM483.309 98.2914C493.213 98.3799 483.664 88.741 477.081 88.6907C476.213 88.6841 476.147 89.7057 476.88 90.1721C479.618 91.9162 481.419 94.4804 482.36 97.5607C482.488 97.9786 482.872 98.2875 483.309 98.2914Z" fill="black"/>
<path fill-rule="evenodd" clip-rule="evenodd" d="M597.031 304.788C592.365 306.328 586.643 307.535 580.243 308.287C569.241 282.277 547.154 264 520.75 264C517.466 264 514.17 263.705 510.921 263.133C515.247 258.172 518.697 252.429 521.03 246.144C523.194 240.644 524.661 233.201 525.212 224.916C534.989 221.247 546.059 220.254 556.72 222.313C557.06 222.378 557.412 222.313 557.704 222.128C558.709 221.49 558.488 219.942 557.325 219.694C552.466 218.661 548.013 218.369 540.669 218.818C540.278 218.841 539.888 218.896 539.505 218.973C534.885 219.892 530.032 220.176 525.434 219.734C525.448 218.993 525.455 218.249 525.455 217.5C525.455 211.368 524.967 205.552 524.09 200.408C523.728 197.656 523.103 194.968 522.237 192.36C521.122 188.662 519.657 185.269 517.75 182.729C516.775 181.127 515.704 179.571 514.544 178.065C523.075 171.652 537.529 165.472 554.508 161.61C566.881 158.795 578.576 157.669 588.062 158.075C588.808 158.025 589.563 158 590.325 158C606.065 158 618.825 168.745 618.825 182C618.825 195.255 606.065 206 590.325 206C586.11 206 581.213 205.713 576.542 204.909C575.753 204.838 574.953 204.75 574.145 204.645C571.212 204.264 568.444 203.694 565.948 202.99C565.425 202.842 564.857 203.009 564.497 203.417C563.744 204.269 564.255 205.632 565.385 205.762C576.283 207.016 589.069 208.823 598.881 210.716C600.001 210.791 601.115 210.901 602.224 211.048C619.492 214.399 635.097 239.14 630.516 263.786C629.008 271.899 625.507 279.409 620.612 285.739C614.454 293.705 606.592 301.631 597.031 304.788ZM598.375 167.35C603.047 166.237 608.053 170.557 605.619 174.451C605.249 175.043 604.406 174.878 604.07 174.266C602.789 171.93 600.922 170.101 598.446 168.991C597.652 168.635 597.528 167.551 598.375 167.35ZM556.326 197.761C551.694 198.221 550.77 203.567 554.308 205.746C555.094 206.23 555.851 205.12 555.732 204.205C555.523 202.597 556.13 200.897 557.035 199.596C557.54 198.871 557.205 197.674 556.326 197.761ZM567.17 226.868C571.819 226.637 573.005 221.343 569.579 218.992C568.818 218.469 568.007 219.541 568.081 220.461C568.21 222.077 567.521 223.745 566.552 225C566.012 225.699 566.287 226.912 567.17 226.868ZM614.537 235.6C618.019 230.558 610.044 222.288 605.078 220.97C604.263 220.754 604.025 221.657 604.598 222.276C606.169 223.972 607.196 226.254 608.207 228.5C609.565 231.517 610.894 234.47 613.471 235.85C613.841 236.048 614.299 235.945 614.537 235.6Z" fill="black"/>
<path fill-rule="evenodd" clip-rule="evenodd" d="M464.224 281.965C464.287 281.9 464.35 281.836 464.414 281.772C466.075 281.923 467.757 282 469.455 282C483.819 282 496.893 276.494 506.686 267.482C507.506 267.597 508.319 267.732 509.125 267.886C512.952 268.619 516.853 269 520.75 269C554.992 269 582.75 303.474 582.75 346C582.75 388.526 554.992 423 520.75 423C520.636 423 520.523 423 520.409 422.999C515.35 422.965 510.266 423.402 505.281 424.268C502.509 424.749 499.658 425 496.75 425C491.457 425 486.357 424.169 481.569 422.63C483.44 417.096 484.455 411.167 484.455 405C484.455 392.196 480.074 380.401 472.732 371.053C471.848 369.929 471.289 368.56 471.125 367.112C469.383 351.711 460.791 338.344 448.508 331.963C459.402 323.755 466.455 310.704 466.455 296C466.455 291.099 465.672 286.381 464.224 281.965ZM529.029 282.402C534.86 279.984 546.508 282.954 542.961 291.28C541.809 293.985 539.357 291.797 536.329 289.094C534.215 287.207 531.82 285.069 529.39 284.171C528.547 283.86 528.199 282.747 529.029 282.402ZM517.885 342.002C515.392 342.882 512.666 341.722 511.092 339.597C510.395 338.657 509.632 337.796 508.807 337.039C508.128 336.416 507.214 337.086 507.502 337.962C507.777 338.801 508.058 339.627 508.345 340.442C509.248 343.009 508.046 345.868 505.553 346.96C504.85 347.267 504.143 347.579 503.43 347.895C502.548 348.285 502.7 349.46 503.664 349.491C504.739 349.526 505.854 349.472 506.985 349.334C509.539 349.022 512.168 350.196 513.198 352.555C513.551 353.365 513.911 354.181 514.275 355.004C514.666 355.886 515.84 355.734 515.872 354.77C515.908 353.66 515.849 352.508 515.701 351.34C515.387 348.866 516.518 346.371 518.546 344.923C519.6 344.17 520.561 343.335 521.395 342.427C522.018 341.747 521.348 340.834 520.472 341.121C519.596 341.408 518.735 341.702 517.885 342.002ZM571.584 345.307C574.954 343.37 573.937 335.973 570.427 333.636C569.751 333.186 569.15 333.953 569.449 334.708C570.65 337.737 570.948 341.033 570.498 344.37C570.407 345.046 570.992 345.647 571.584 345.307Z" fill="black"/>
<path fill-rule="evenodd" clip-rule="evenodd" d="M367.688 249.015L367.674 248.903C367.513 247.654 367.518 246.44 367.701 245.274C370.741 225.88 368.679 206.703 363.687 192.335C360.192 182.278 353.664 171.762 345.228 163.564C352.405 158.745 360.665 156 369.455 156C378.378 156 386.756 158.828 394.008 163.784C397.621 166.254 401.844 167.752 406.21 167.452C408.77 167.275 411.29 166.493 413.555 165.286C424.522 159.44 437.95 156 452.455 156C479.695 156 503.138 168.131 513.613 185.549C515.085 187.436 516.398 190.294 517.47 193.87C518.26 196.235 518.824 198.667 519.144 201.153C519.981 206.018 520.455 211.585 520.455 217.5C520.455 228.352 518.858 238.034 516.36 244.358C509.304 263.416 490.966 277 469.455 277C466.921 277 464.43 276.811 461.997 276.448C454.908 261.776 440.089 251.538 422.828 251.021C422.582 250.992 422.334 250.979 422.084 250.982C421.211 250.994 420.335 251 419.455 251C418.521 251 417.599 251.085 416.697 251.249C410.104 251.941 403.935 254.058 398.503 257.285C392.669 253.455 385.984 250.772 378.678 249.593C374.969 248.994 371.292 248.813 367.688 249.015ZM384.683 169.186C384.779 163.649 374.077 160.156 369.323 163.546C368.666 164.014 369.103 164.894 369.909 164.941C374.672 165.219 379.222 166.957 383.317 169.744C383.881 170.128 384.672 169.868 384.683 169.186ZM465.303 165.977C470.283 162.096 481.672 165.643 481.387 171.674C481.355 172.356 480.564 172.614 479.999 172.23C475.72 169.318 470.948 167.555 465.937 167.385C465.125 167.358 464.662 166.476 465.303 165.977ZM414.883 243.839C417.506 238.864 422.56 238.724 425.684 243.419C426.21 244.211 425.223 245.193 424.295 244.986C421.818 244.431 418.751 244.499 416.185 245.19C415.336 245.419 414.472 244.617 414.883 243.839Z" fill="black"/>
<path fill-rule="evenodd" clip-rule="evenodd" d="M221.448 153.981C222.731 154.45 224.039 154.867 225.369 155.231C226.534 155.55 227.684 155.926 228.799 156.39C232.304 157.844 236.053 159.173 240.015 160.361C241.124 159.471 242.274 158.639 243.447 157.864C250.321 153.32 258.542 150.342 265.803 148.775C278.332 146.072 293.32 146.41 304.893 147.001C305.191 147.016 305.49 147.055 305.788 147.118C313.321 147.514 320.048 148.89 325.822 150.972C331.018 152.846 335.933 155.747 340.431 159.339C343.206 158.426 345.865 157.44 348.396 156.39C349.511 155.926 350.661 155.55 351.826 155.231C373.021 149.432 388.598 130.035 388.598 107C388.598 79.3857 366.212 57 338.598 57C321.817 57 306.967 65.2666 297.898 77.9497C295.73 80.9808 292.324 83 288.598 83C284.871 83 281.465 80.9808 279.297 77.9497C270.517 65.6707 256.319 57.5311 240.195 57.025C239.288 64.1826 236.948 71.2783 233.068 77.8961C227.53 87.3432 219.607 94.5253 210.516 99.1289C216.139 100.609 221.309 103.632 225.346 108.296C236.67 121.379 233.987 141.158 221.448 153.981ZM362.433 78.4063C364.817 72.7031 355.541 67.3558 350.481 67.5437C349.627 67.5754 349.658 68.5448 350.381 69.0011C352.154 70.1207 353.56 71.8834 354.944 73.6192C356.866 76.0303 358.748 78.3894 361.515 78.9012C361.899 78.9722 362.282 78.7666 362.433 78.4063ZM284.46 90.6411C286.303 94.953 292.197 94.953 294.04 90.6411C294.34 89.9382 293.614 89.3306 292.881 89.5473C290.276 90.3176 288.224 90.3176 285.619 89.5473C284.886 89.3306 284.16 89.9382 284.46 90.6411Z" fill="black"/>
<path fill-rule="evenodd" clip-rule="evenodd" d="M290.638 206.428C291.288 206.624 291.993 206.36 292.344 205.778C292.484 205.547 292.625 205.316 292.767 205.086C293.191 204.397 292.69 203.499 291.881 203.5C291.793 203.5 291.704 203.488 291.619 203.466C285.845 201.933 281.531 201.297 274.294 201.556C272.314 201.627 270.35 201.906 268.387 202.186L268.387 202.186C267.984 202.243 267.58 202.3 267.177 202.356C266.701 202.421 266.224 202.48 265.746 202.532C264.209 187.494 256.513 173.269 243.693 163.828C250.316 158.709 259.102 155.336 266.857 153.663C278.673 151.113 293.064 151.404 304.638 151.994C304.712 151.998 304.784 152.013 304.853 152.039C304.928 152.068 305.009 152.086 305.09 152.089C312.356 152.431 318.744 153.735 324.126 155.676C339.932 161.376 353.437 178.105 358.951 193.976C363.662 207.534 365.668 225.88 362.749 244.5C362.485 246.18 362.487 247.872 362.703 249.542C340.327 253.037 321.733 271.3 317.83 295.485C317.146 299.727 316.946 303.936 317.191 308.049C313.891 307.963 310.614 308.005 307.397 308.355C303.532 308.775 299.458 309 295.249 309C280.997 309 268.293 306.424 260.048 302.403C257.47 301.146 254.961 299.732 252.46 298.323L251.971 298.048C254.994 294.765 257.381 290.865 258.559 286.34C260.316 279.596 259.234 271.694 253.637 265.228C249.569 260.528 243.884 257.589 237.793 256.133C246.097 251.517 253.315 244.688 258.469 235.896C264.094 226.303 266.481 215.706 265.962 205.371C274.015 203.683 282.5 203.968 290.638 206.428ZM332.07 174.419C335.033 168.879 327.077 165.271 322.421 165.958C321.55 166.087 321.679 167.188 322.417 167.669C323.982 168.69 325.453 170.418 326.784 171.982C329 174.587 330.83 176.738 332.07 174.419ZM287.249 246C279.249 246 279.249 257 287.249 257C290.249 257 290.249 246 287.249 246ZM299.962 211.003C305.73 211.124 306.907 205.698 302.517 203.109C301.675 202.613 300.798 203.861 300.879 204.836C301.002 206.318 300.353 207.785 299.391 208.914C298.785 209.624 299.029 210.983 299.962 211.003Z" fill="black"/>
<path fill-rule="evenodd" clip-rule="evenodd" d="M149.307 188.101C148.172 193.164 146.297 198.144 143.643 202.893C148.566 205.659 153.048 209.259 156.885 213.691C170.959 229.952 172.542 252.617 163.911 272.753C175.852 282.069 183.079 295.641 184.687 309.999C197.095 309.975 205.923 309.653 212.205 308.781C213.191 308.644 214.202 308.511 215.226 308.377L215.237 308.375L215.245 308.374L215.252 308.373C218.535 307.942 221.951 307.493 225.073 306.843C236.919 304.376 250.515 296.79 253.565 285.08C254.955 279.744 254.101 273.584 249.7 268.5C241.651 259.201 224.609 257.565 211.55 263.516C211.153 263.697 210.696 263.681 210.315 263.468C209.725 263.136 209.461 262.419 209.705 261.789C209.904 261.275 210.098 260.757 210.286 260.237C210.749 258.96 211.946 258.093 213.303 258.025C229.58 257.216 245.142 248.476 254 233.367C267.966 209.545 259.977 178.912 236.155 164.945C229.893 161.274 223.161 159.12 216.384 158.372C206.305 165.76 193.737 167.873 183.122 164.172C183.015 164.208 182.908 164.245 182.801 164.282C174.331 177.753 163.136 185.496 151.144 187.755L149.307 188.101ZM221.396 168.723C225.717 167.311 233.8 169.363 231.968 175.104C231.013 178.096 228.813 176.148 226.199 173.833L226.199 173.833C224.768 172.567 223.215 171.191 221.673 170.455C220.878 170.076 220.559 168.996 221.396 168.723ZM200.455 220C204.455 220 204.455 213 200.455 213C197.665 213 193.903 215.919 191.881 217.685C191.269 218.22 191.569 219.176 192.374 219.29C194.473 219.585 197.879 220 200.455 220ZM243.283 276.442C245.864 271.719 239.722 267.562 234.585 269.651C233.77 269.982 234.031 271.065 234.876 271.313C237.788 272.167 240.059 273.943 241.698 276.388C242.089 276.97 242.947 277.057 243.283 276.442Z" fill="black"/>
<path fill-rule="evenodd" clip-rule="evenodd" d="M245.634 303.529C246.53 302.904 247.41 302.24 248.263 301.539L250.271 302.67C252.733 304.058 255.351 305.533 258.063 306.856C264.833 310.156 274.004 312.464 284.291 313.439C288.527 319.219 291.881 325.571 294.02 331.78C298.681 345.319 300.654 363.577 297.749 382.107C297.123 386.1 297.996 390.164 299.671 393.842C301.449 397.746 302.653 402.068 303.136 406.67C305.228 426.586 293.024 444.192 275.876 445.994C270.439 446.565 264.835 446.267 259.231 445.968C253.563 445.666 247.894 445.364 242.397 445.962C238.533 446.382 234.458 446.607 230.249 446.607C215.998 446.607 203.293 444.031 195.048 440.01C194.651 439.816 194.255 439.619 193.86 439.418C203.084 430.837 208.854 418.592 208.854 405C208.854 402.669 208.684 400.375 208.355 398.131C207.743 393.958 206.986 389.762 206.248 385.676L206.247 385.67L206.246 385.666C206.034 384.496 205.825 383.335 205.621 382.187C203.806 371.973 199.164 361.924 191.715 353.318C190.158 351.519 188.521 349.833 186.816 348.261C198.471 341.764 212.49 340.069 225.609 344.026C226.276 344.227 227 343.956 227.36 343.36C227.504 343.122 227.649 342.885 227.794 342.649C228.231 341.941 227.716 341.018 226.884 341.019C226.794 341.019 226.703 341.007 226.616 340.984C221.104 339.521 216.923 338.875 210.257 339.046C208.067 339.102 205.897 339.42 203.729 339.739C203.275 339.806 202.82 339.872 202.366 339.937C194.789 341.009 186.858 340.379 180.617 337.658C183.752 330.334 185.175 322.613 185.018 314.998C197.347 314.972 206.426 314.653 213.049 313.733C214.012 313.6 215.004 313.469 216.03 313.334L216.04 313.333L216.044 313.333L216.057 313.331L216.059 313.331L216.154 313.318C219.373 312.895 222.943 312.426 226.248 311.738C232.74 310.386 239.746 307.634 245.634 303.529ZM235.942 348.97C241.721 349.019 243.039 342.923 238.619 340.308C237.805 339.826 236.99 340.965 237.113 341.903C237.354 343.74 236.538 345.628 235.369 347.007C234.785 347.697 235.037 348.963 235.942 348.97ZM222.455 384.019C214.455 384.019 214.455 395.019 222.455 395.019C225.455 395.019 225.455 384.019 222.455 384.019ZM293.554 400.288C295.643 402.225 297.176 407.587 296.131 409.932C295.851 410.559 295.143 410.208 295.069 409.526C294.743 406.529 294.011 403.65 292.823 401.102C292.499 400.406 292.991 399.766 293.554 400.288Z" fill="black"/>
<path fill-rule="evenodd" clip-rule="evenodd" d="M376.456 296C376.456 282.02 382.83 269.529 392.831 261.276C393.209 260.964 393.592 260.658 393.981 260.358C389.144 257.489 383.727 255.472 377.881 254.529C351.842 250.327 327.166 269.02 322.767 296.282C321.864 301.874 321.885 307.392 322.713 312.667C322.898 313.847 321.858 314.886 320.679 314.696C311.02 313.137 301.519 314.214 292.859 317.414C295.301 321.609 297.291 325.924 298.747 330.152C303.686 344.495 305.715 363.58 302.689 382.882C302.254 385.656 302.831 388.718 304.222 391.771C306.223 396.166 307.569 401.011 308.109 406.147C309.117 415.748 307.109 425.116 302.807 432.797C312.198 435.126 322.625 436.185 333.77 436.185C349.948 436.185 365.016 431.893 377.969 424.385C375.698 418.356 374.455 411.823 374.455 405C374.455 390.781 379.856 377.817 388.708 368.058C389.973 366.664 391.308 365.335 392.707 364.078C393.846 363.055 394.671 361.689 395.063 360.163C397.218 351.774 401.46 344.317 407.195 338.692C389.331 332.728 376.456 315.871 376.456 296ZM328.812 321.558C333.351 322.589 335.92 317.811 333.255 314.623C332.663 313.915 331.594 314.728 331.417 315.634C331.105 317.225 329.991 318.645 328.72 319.592C328.012 320.12 327.95 321.362 328.812 321.558ZM335.446 367.241C327.446 367.241 327.446 378.241 335.446 378.241C338.446 378.241 338.446 367.241 335.446 367.241Z" fill="black"/>
<path fill-rule="evenodd" clip-rule="evenodd" d="M381.455 296C381.455 273.909 399.364 256 421.455 256C443.547 256 461.455 273.909 461.455 296C461.455 311.528 452.607 324.99 439.677 331.618C438.756 332.09 438.95 333.711 439.951 333.975C453.685 337.611 464.273 351.024 466.157 367.674C466.423 370.03 467.334 372.277 468.799 374.142C475.474 382.64 479.455 393.355 479.455 405C479.455 432.614 457.069 455 429.455 455C401.841 455 379.455 432.614 379.455 405C379.455 390.227 385.862 376.95 396.049 367.797C397.938 366.1 399.273 363.866 399.905 361.408C402.503 351.299 408.409 342.881 416.142 337.897C417.015 337.334 416.68 335.732 415.652 335.582C396.311 332.771 381.455 316.12 381.455 296ZM431.244 267.445C435.183 264.071 442.719 268.108 440.825 273.784C440.583 274.51 439.599 274.52 439.111 273.93C437.473 271.949 434.632 269.72 431.935 269.079C431.151 268.892 430.632 267.969 431.244 267.445ZM464.481 380.868C459.151 382.561 454.495 375.9 458.757 371.321C459.343 370.692 460.356 371.269 460.464 372.122C460.78 374.612 462.081 377.503 464.347 378.911C465.106 379.383 465.333 380.598 464.481 380.868ZM431.88 329.563C428.832 332.244 429.236 335.888 432.885 337.704C433.672 338.096 434.421 337.172 434.16 336.332C433.617 334.58 433.413 332.56 433.587 330.794C433.68 329.848 432.594 328.935 431.88 329.563Z" fill="black"/>
<path fill-rule="evenodd" clip-rule="evenodd" d="M123.438 128.632C142.968 140.082 152.825 161.716 150.218 182.842C161.104 180.791 171.655 173.476 179.654 159.832C180.335 158.671 181.812 158.247 183.048 158.78C193.014 163.083 205.914 160.999 215.716 152.515C228.753 141.231 231.372 122.898 221.566 111.568C214.148 102.998 201.745 100.889 190.501 105.255C188.463 106.046 186.048 104.257 186.439 102.107C186.651 100.938 187.65 100.058 188.835 99.9808C204.829 98.9362 220.038 90.2354 228.755 75.3673C242.721 51.5452 234.732 20.9118 210.91 6.94551C199.334 0.159169 186.151 -1.44319 174.052 1.4359C154.772 6.02414 131.682 15.5856 118.259 30.1669C105.912 43.5804 95.994 66.1404 92.3357 89.4754C90.5572 100.82 90.3525 111.552 91.5272 121.227C102.295 120.415 113.418 122.757 123.438 128.632ZM197.201 11.598C201.55 11.6048 210.345 15.7989 210.263 20.3901C210.255 20.8727 209.799 21.1986 209.326 21.1004C206.883 20.5932 204.689 18.6732 202.448 16.7123C200.755 15.231 199.035 13.7264 197.161 12.7899C196.423 12.4208 196.375 11.5967 197.201 11.598ZM179.703 108.56C173.807 107.942 172.857 101.82 178.18 99.0423C179.04 98.5933 179.821 99.7369 179.485 100.647C178.743 102.657 178.935 104.854 180.359 106.604C180.964 107.347 180.655 108.66 179.703 108.56ZM215.823 120.56C217.617 117.208 213.038 112.203 208.927 112.333C208.103 112.36 208.057 113.358 208.747 113.81C211.195 115.412 213.068 117.675 214.377 120.361C214.677 120.977 215.499 121.164 215.823 120.56Z" fill="black"/>
<path fill-rule="evenodd" clip-rule="evenodd" d="M33.3625 302.185C30.1101 300.278 27.2606 298.004 24.8721 295.407C19.5149 289.58 15.0991 282.705 10.9141 275.987C2.00394 261.684 -1.51068 240.01 2.33567 215.475C5.99404 192.14 15.912 169.58 28.2594 156.167C41.6818 141.586 64.7722 132.024 84.0524 127.436C96.1506 124.557 109.334 126.159 120.91 132.946C144.732 146.912 152.721 177.545 138.755 201.367C137.652 203.249 138.365 205.733 140.291 206.758C145.083 209.311 149.424 212.712 153.104 216.964C165.434 231.208 167.251 251.428 159.748 269.804C159.122 269.403 158.485 269.012 157.838 268.632C145.106 261.168 130.596 259.406 117.294 262.572C97.6432 267.248 73.3986 277.117 58.9799 292.781C55.0318 297.07 51.3479 302.188 48.023 307.9C44.4857 306.964 41.0733 305.826 37.8412 304.446C36.3187 303.796 34.8232 303.041 33.3625 302.185ZM108.466 137.162C113.601 136.457 123.415 141.033 121.251 147.099C121.124 147.456 120.77 147.685 120.392 147.653C117.533 147.412 115.48 145.185 113.381 142.909C111.88 141.281 110.356 139.628 108.497 138.658C107.735 138.26 107.614 137.279 108.466 137.162ZM77.4552 179C80.4552 179 83.4552 180 83.4552 183C83.4552 186 80.4552 189 77.4552 189C75.4552 189 75.4551 179 77.4552 179ZM77.4552 243C80.4552 243 83.4552 247 83.4552 250C83.4552 253 80.4552 254 77.4552 254C74.4552 254 74.4551 243 77.4552 243ZM145.66 226.93C148.005 221.789 140.69 214.51 136.01 218.27C135.478 218.698 135.707 219.499 136.327 219.785C139.826 221.397 142.189 224.098 144.184 226.955C144.568 227.505 145.381 227.541 145.66 226.93Z" fill="black"/>
<path fill-rule="evenodd" clip-rule="evenodd" d="M59.9233 435.995C54.3411 430.086 49.7473 423.041 45.4214 416.159C36.4316 401.859 32.873 380.108 36.7348 355.475C40.3932 332.14 50.3112 309.58 62.6586 296.167C76.081 281.586 99.1713 272.024 118.451 267.436C130.55 264.557 143.733 266.159 155.309 272.945C179.131 286.912 187.12 317.545 173.154 341.367C172.425 342.61 172.84 344.229 174.079 344.964C179.122 347.957 183.826 351.843 187.934 356.59C194.794 364.515 199.04 373.736 200.698 383.062C200.908 384.245 201.122 385.43 201.336 386.615C202.072 390.687 202.809 394.773 203.408 398.856C203.702 400.861 203.854 402.913 203.854 405C203.854 428.196 185.05 447 161.854 447C161.263 447 160.676 446.988 160.091 446.964C159.515 446.988 158.936 447 158.354 447C142.261 447 128.536 437.674 123.216 424.576C123.074 424.227 122.731 424 122.354 424C121.959 424 121.587 424.21 121.388 424.552C107.726 447.97 86.2503 452.326 69.0169 442.923C65.5273 441.019 62.4729 438.694 59.9233 435.995ZM142.963 277.342C147.534 276.447 156.676 279.673 155.007 285.226C154.053 288.4 151.496 286.003 148.485 283.182L148.485 283.182C146.759 281.564 144.884 279.806 143.076 278.879C142.319 278.491 142.127 277.506 142.963 277.342ZM128.354 323C128.354 320 125.354 319 122.354 319C120.354 319 120.354 329 122.354 329C125.354 329 128.354 326 128.354 323ZM184.057 382.094C190.671 377.358 182.747 361.965 174.32 363.402C170.286 364.09 173.41 368.14 176.997 372.792C179.23 375.689 181.644 378.818 182.621 381.514C182.84 382.118 183.535 382.469 184.057 382.094Z" fill="black"/>
</svg>
