<svg width="672" height="498" viewBox="0 0 672 498" fill="none" xmlns="http://www.w3.org/2000/svg">
<path fill-rule="evenodd" clip-rule="evenodd" d="M266.799 61.4929C274.747 66.4153 281.641 72.8773 287.065 80.4625C290.113 84.7252 294.904 87.5649 300.144 87.5649C305.385 87.5649 310.176 84.7252 313.224 80.4625C321.76 68.5245 333.938 59.3687 348.135 54.6185C348.604 52.9778 349.077 51.3422 349.551 49.7131C356.175 26.9468 375.365 8.84738 400.329 4.81885C418.561 1.87657 436.231 7.02794 449.674 17.6275C457.536 11.0913 467.198 6.50958 478.026 4.76341C510.258 -0.434814 540.604 21.4644 545.806 53.6768C547.411 63.6217 546.433 73.3869 543.364 82.2885C542.633 84.409 542.824 86.7533 543.968 88.683C544.471 89.5324 545.48 89.9428 546.438 89.7028C548.08 89.2914 549.754 88.9468 551.456 88.6722C583.689 83.474 614.035 105.373 619.236 137.586C620.66 146.404 620.052 155.081 617.756 163.14C638.272 164.64 654.35 178.677 654.35 195.771C654.35 209.652 643.749 224.459 628.779 230.603C652.882 235.919 677.248 274.174 670.858 307.422C668.729 318.497 663.785 328.75 656.875 337.391C648.179 348.265 637.079 359.086 623.579 363.395C622.464 363.751 621.305 364.094 620.106 364.424C620.134 365.506 620.148 366.592 620.148 367.682C620.148 423.837 583.487 469.359 538.263 469.359C538.113 469.359 537.963 469.359 537.813 469.358C531.131 469.313 524.417 469.89 517.833 471.033C514.172 471.669 510.407 472 506.566 472C502.895 472 499.294 471.698 495.786 471.116C484.932 487.328 466.461 498 445.5 498C423.176 498 403.677 485.896 393.195 467.886C379.014 474.75 363.068 478.595 346.129 478.595C336.722 478.595 327.734 477.979 319.29 476.662C313.9 481.385 307.312 484.472 300 485.24C293.259 485.948 286.311 485.578 279.364 485.208H279.363C272.336 484.833 265.309 484.459 258.494 485.2C253.703 485.721 248.651 486 243.433 486C229.357 486 216.498 483.973 206.682 480.628C200.265 483.657 193.095 485.351 185.529 485.351C184.831 485.351 184.136 485.336 183.446 485.308C182.766 485.336 182.082 485.35 181.394 485.351C162.384 485.351 146.17 474.334 139.885 458.861C139.718 458.449 139.313 458.181 138.868 458.181C138.401 458.181 137.961 458.43 137.726 458.832C121.588 486.497 96.2184 491.642 75.8607 480.535C71.7385 478.286 68.1304 475.538 65.1186 472.35C58.5243 465.371 53.0978 457.048 47.9875 448.919C37.368 432.025 33.1642 406.332 37.7262 377.233C39.4639 366.15 42.397 355.214 46.2316 345.069C45.7053 344.858 45.1827 344.642 44.6639 344.42C42.8286 343.637 41.0258 342.726 39.2649 341.694C35.3441 339.395 31.909 336.654 29.0296 333.523C22.5715 326.499 17.2482 318.21 12.2032 310.112C1.46188 292.87 -2.77501 266.741 1.8618 237.165C6.27199 209.035 18.2282 181.838 33.1131 165.668C46.7207 150.886 68.5709 140.383 89.0001 134.127C88.9928 126.548 89.6084 118.597 90.896 110.384C95.387 81.7386 107.562 54.0441 122.72 37.5779C139.197 19.6779 167.542 7.94041 191.211 2.30795C206.062 -1.22639 222.246 0.740646 236.456 9.07149C255.764 20.3913 266.6 40.6302 266.799 61.4929ZM527.54 196.068L527.313 196.239C523.229 191.821 518.334 187.912 512.81 184.621C524.475 172.589 530.523 155.377 527.645 137.543C522.806 107.555 494.573 87.1685 464.586 92.0078C464.255 92.0611 463.925 92.1173 463.597 92.1764C466.191 84.1527 466.972 75.412 465.539 66.5305C463.813 55.8356 459.112 46.3618 452.416 38.8181C459.436 32.2228 468.433 27.5813 478.657 25.9313C505.919 21.532 531.585 40.0655 535.984 67.3271C537.343 75.7435 536.515 84.0079 533.919 91.5413C533.301 93.3359 533.463 95.3199 534.43 96.9531C534.856 97.6719 535.709 98.0192 536.519 97.8161C537.908 97.468 539.324 97.1763 540.764 96.9439C568.025 92.5446 593.691 111.078 598.091 138.34C600.286 151.945 596.77 165.154 589.307 175.519C583.005 176.1 576.287 177.167 569.399 178.734C552.024 182.687 536.831 189.083 527.54 196.068ZM497.219 35.8925C501.917 34.777 511.905 37.839 511.366 43.4814C511.327 43.8943 510.979 44.2051 510.564 44.2115C507.856 44.2535 505.46 42.463 503.011 40.6336C501.224 39.2983 499.409 37.9422 497.425 37.2626C496.625 36.9889 496.397 36.0876 497.219 35.8925ZM529.885 104.966C524.152 108.044 522.001 102.626 524.307 97.4775C524.735 96.5221 526.055 97.1085 526.198 98.1454C526.511 100.414 527.823 101.949 529.464 102.728C530.324 103.136 530.724 104.515 529.885 104.966ZM574.309 120.291C584.213 120.38 574.664 110.741 568.081 110.691C567.213 110.684 567.147 111.706 567.88 112.172C570.618 113.916 572.419 116.48 573.36 119.561C573.488 119.979 573.872 120.288 574.309 120.291ZM508.248 182.115C496.756 176.31 483.026 173 468.455 173C453.174 173 438.931 176.621 427.203 182.874C425.491 183.786 423.65 184.341 421.867 184.463C418.883 184.669 415.756 183.657 412.829 181.656C405.386 176.57 396.791 173.464 387.582 173.048L387.564 173.028C400.941 162.997 409.598 147.013 409.598 129C409.598 100.317 387.642 76.763 359.62 74.2262C360.745 69.9042 361.976 65.6009 363.211 61.3538C368.438 43.3907 383.578 29.1099 403.276 25.9313C430.537 21.532 456.203 40.0655 460.603 67.3271C461.961 75.7435 461.133 84.0079 458.538 91.5413C457.919 93.3359 458.081 95.3199 459.049 96.9531C459.474 97.6719 460.327 98.0192 461.137 97.8161C462.527 97.468 463.942 97.1763 465.382 96.9439C492.644 92.5446 518.31 111.078 522.709 138.34C525.404 155.037 519.495 171.135 508.248 182.115ZM435.566 43.353C435.95 37.9046 426.102 34.7795 421.469 35.7654C420.647 35.9405 420.858 36.8283 421.651 37.1062C423.631 37.7995 425.453 39.153 427.247 40.4857C429.691 42.3011 432.083 44.0778 434.75 44.0947C435.176 44.0974 435.536 43.7776 435.566 43.353ZM448.048 97.5073C445.826 102.692 448.063 108.075 453.746 104.905C454.578 104.441 454.156 103.069 453.289 102.675C451.636 101.922 450.299 100.408 449.95 98.1449C449.79 97.1104 448.461 96.5452 448.048 97.5073ZM493.081 110.691C499.664 110.741 509.213 120.38 499.309 120.291C498.872 120.288 498.488 119.979 498.36 119.561C497.419 116.48 495.618 113.916 492.88 112.172C492.147 111.706 492.213 110.684 493.081 110.691ZM613.031 326.788C608.365 328.328 602.643 329.535 596.243 330.287C585.241 304.277 563.154 286 536.75 286C533.466 286 530.17 285.705 526.921 285.133C531.247 280.172 534.697 274.429 537.03 268.144C539.194 262.644 540.661 255.201 541.212 246.916C550.989 243.247 562.059 242.254 572.72 244.313C573.06 244.378 573.412 244.313 573.704 244.128C574.709 243.49 574.488 241.942 573.325 241.694C568.466 240.661 564.013 240.369 556.669 240.818C556.278 240.841 555.888 240.896 555.505 240.973C550.885 241.892 546.032 242.176 541.434 241.734C541.448 240.993 541.455 240.249 541.455 239.5C541.455 233.368 540.967 227.552 540.09 222.408C539.728 219.656 539.103 216.968 538.237 214.36C537.122 210.662 535.657 207.269 533.75 204.729C532.775 203.127 531.704 201.571 530.544 200.065C539.075 193.652 553.529 187.472 570.508 183.61C582.881 180.795 594.576 179.669 604.062 180.075C604.808 180.025 605.563 180 606.325 180C622.065 180 634.825 190.745 634.825 204C634.825 217.255 622.065 228 606.325 228C602.11 228 597.213 227.713 592.542 226.909C591.753 226.838 590.953 226.75 590.145 226.645C587.212 226.264 584.444 225.694 581.948 224.99C581.425 224.842 580.857 225.009 580.497 225.417C579.744 226.269 580.255 227.632 581.385 227.762C592.283 229.016 605.069 230.823 614.881 232.716C616.001 232.791 617.115 232.901 618.224 233.048C635.492 236.399 651.097 261.14 646.516 285.786C645.008 293.899 641.507 301.409 636.612 307.739C630.454 315.705 622.592 323.631 613.031 326.788ZM614.375 189.35C619.047 188.237 624.053 192.557 621.619 196.451C621.249 197.043 620.406 196.878 620.07 196.266C618.789 193.93 616.922 192.101 614.446 190.991C613.652 190.635 613.528 189.551 614.375 189.35ZM572.326 219.761C567.694 220.221 566.77 225.567 570.308 227.746C571.094 228.23 571.851 227.12 571.732 226.205C571.523 224.597 572.13 222.897 573.035 221.596C573.54 220.871 573.205 219.674 572.326 219.761ZM583.17 248.868C587.819 248.637 589.005 243.343 585.579 240.992C584.818 240.469 584.007 241.541 584.081 242.461C584.21 244.077 583.521 245.745 582.552 247C582.012 247.699 582.287 248.912 583.17 248.868ZM630.537 257.6C634.019 252.558 626.044 244.288 621.078 242.97C620.263 242.754 620.025 243.657 620.598 244.276C622.169 245.972 623.196 248.254 624.207 250.5C625.565 253.517 626.894 256.47 629.471 257.85C629.841 258.048 630.299 257.945 630.537 257.6ZM480.335 303.852L480.224 303.965C481.672 308.381 482.455 313.099 482.455 318C482.455 332.704 475.402 345.755 464.508 353.963C476.791 360.344 485.383 373.711 487.125 389.112C487.289 390.56 487.848 391.929 488.732 393.053C496.074 402.401 500.455 414.196 500.455 427C500.455 433.167 499.44 439.096 497.569 444.63C502.357 446.169 507.457 447 512.75 447C515.658 447 518.509 446.749 521.281 446.268C526.266 445.402 531.35 444.965 536.409 444.999C536.523 445 536.636 445 536.75 445C570.992 445 598.75 410.526 598.75 368C598.75 325.474 570.992 291 536.75 291C532.853 291 528.952 290.619 525.125 289.886C524.319 289.732 523.506 289.597 522.686 289.482C512.893 298.494 499.819 304 485.455 304C483.757 304 482.075 303.923 480.414 303.772L480.335 303.852ZM558.961 313.28C562.508 304.954 550.86 301.984 545.029 304.402C544.199 304.747 544.547 305.86 545.39 306.171C547.82 307.069 550.215 309.207 552.329 311.094C555.357 313.797 557.809 315.985 558.961 313.28ZM527.092 361.597C528.666 363.722 531.392 364.882 533.885 364.002C534.735 363.702 535.596 363.408 536.472 363.121C537.348 362.834 538.018 363.747 537.395 364.427C536.562 365.335 535.6 366.17 534.546 366.923C532.518 368.371 531.387 370.866 531.701 373.339C531.849 374.508 531.908 375.66 531.872 376.77C531.84 377.734 530.666 377.886 530.276 377.004C529.911 376.181 529.552 375.365 529.198 374.555C528.168 372.196 525.539 371.022 522.985 371.334C521.854 371.472 520.739 371.526 519.664 371.491C518.7 371.46 518.548 370.285 519.43 369.895C520.143 369.579 520.85 369.267 521.553 368.96C524.046 367.868 525.248 365.009 524.345 362.442C524.058 361.626 523.777 360.801 523.502 359.962C523.214 359.086 524.128 358.416 524.807 359.039C525.632 359.796 526.395 360.657 527.092 361.597ZM586.427 355.636C589.937 357.973 590.954 365.37 587.584 367.307C586.992 367.647 586.407 367.046 586.498 366.37C586.948 363.033 586.65 359.736 585.449 356.708C585.15 355.953 585.752 355.186 586.427 355.636ZM383.688 271.015L383.674 270.903C383.513 269.654 383.518 268.44 383.701 267.274C386.741 247.88 384.679 228.703 379.687 214.335C376.192 204.278 369.664 193.762 361.228 185.564C368.405 180.745 376.665 178 385.455 178C394.378 178 402.756 180.828 410.008 185.784C413.621 188.254 417.844 189.752 422.21 189.452C424.77 189.275 427.29 188.493 429.555 187.286C440.522 181.44 453.95 178 468.455 178C495.695 178 519.138 190.131 529.613 207.549C531.085 209.436 532.398 212.294 533.47 215.87C534.26 218.235 534.824 220.667 535.144 223.153C535.981 228.018 536.455 233.585 536.455 239.5C536.455 250.352 534.858 260.034 532.36 266.358C525.304 285.416 506.966 299 485.455 299C482.921 299 480.43 298.811 477.997 298.448C470.908 283.776 456.089 273.538 438.828 273.021C438.582 272.992 438.334 272.979 438.084 272.982C437.211 272.994 436.335 273 435.455 273C434.521 273 433.599 273.085 432.697 273.249C426.104 273.941 419.935 276.058 414.503 279.285C408.669 275.455 401.984 272.772 394.678 271.593C390.969 270.994 387.292 270.813 383.688 271.015ZM400.683 191.186C400.779 185.649 390.077 182.156 385.323 185.546C384.666 186.014 385.103 186.894 385.909 186.941C390.672 187.219 395.222 188.957 399.317 191.744C399.881 192.128 400.672 191.868 400.683 191.186ZM481.303 187.977C486.283 184.096 497.672 187.643 497.387 193.674C497.355 194.356 496.564 194.614 495.999 194.23C491.72 191.318 486.948 189.555 481.937 189.385C481.125 189.358 480.662 188.476 481.303 187.977ZM430.883 265.839C433.506 260.864 438.56 260.724 441.684 265.419C442.21 266.211 441.223 267.193 440.295 266.986C437.818 266.431 434.751 266.499 432.185 267.19C431.336 267.419 430.472 266.617 430.883 265.839ZM241.369 177.231C240.039 176.867 238.731 176.45 237.448 175.981C249.987 163.158 252.67 143.379 241.346 130.296C237.309 125.632 232.139 122.609 226.516 121.129C235.607 116.525 243.53 109.343 249.068 99.8961C252.948 93.2783 255.288 86.1826 256.195 79.025C272.319 79.5311 286.517 87.6707 295.297 99.9497C297.465 102.981 300.871 105 304.598 105C308.324 105 311.73 102.981 313.898 99.9497C322.967 87.2666 337.817 79 354.598 79C382.212 79 404.598 101.386 404.598 129C404.598 152.035 389.021 171.432 367.826 177.231C366.661 177.55 365.511 177.926 364.396 178.389C361.865 179.44 359.206 180.426 356.431 181.339C351.933 177.747 347.018 174.846 341.822 172.972C336.048 170.89 329.321 169.514 321.788 169.118C321.49 169.055 321.191 169.016 320.893 169.001C309.32 168.41 294.332 168.072 281.803 170.775C274.542 172.342 266.321 175.32 259.447 179.864C258.274 180.639 257.124 181.471 256.015 182.361C252.053 181.173 248.304 179.844 244.799 178.389C243.684 177.926 242.534 177.55 241.369 177.231ZM366.481 89.5437C371.541 89.3558 380.818 94.7031 378.433 100.406C378.282 100.767 377.899 100.972 377.515 100.901C374.748 100.389 372.867 98.0304 370.944 95.6194L370.944 95.6192L370.944 95.6189C369.56 93.8832 368.154 92.1206 366.381 91.001C365.659 90.5448 365.627 89.5754 366.481 89.5437ZM310.04 112.641C308.197 116.953 302.303 116.953 300.46 112.641C300.16 111.938 300.886 111.331 301.619 111.547C304.223 112.318 306.276 112.318 308.881 111.547C309.614 111.331 310.34 111.938 310.04 112.641ZM306.638 228.428C307.288 228.624 307.993 228.36 308.344 227.778C308.484 227.547 308.625 227.316 308.767 227.086C309.191 226.397 308.69 225.499 307.881 225.5L307.857 225.5C307.848 225.499 307.839 225.499 307.83 225.499L307.806 225.497L307.785 225.495L307.768 225.493C307.717 225.488 307.667 225.478 307.619 225.466C301.845 223.933 297.531 223.297 290.294 223.556C288.314 223.627 286.35 223.906 284.387 224.186L284.071 224.23L283.82 224.266C283.606 224.296 283.391 224.326 283.177 224.356C282.701 224.421 282.224 224.48 281.746 224.532C280.209 209.494 272.513 195.269 259.693 185.828C266.316 180.709 275.102 177.336 282.857 175.663C294.673 173.113 309.064 173.404 320.638 173.994C320.712 173.998 320.784 174.013 320.853 174.039C320.928 174.068 321.009 174.085 321.09 174.089C328.356 174.431 334.744 175.735 340.126 177.676C355.932 183.376 369.437 200.105 374.951 215.976C379.662 229.534 381.668 247.88 378.749 266.5C378.485 268.18 378.487 269.872 378.703 271.542C356.327 275.037 337.733 293.3 333.83 317.485C333.146 321.727 332.946 325.936 333.191 330.049C329.891 329.963 326.614 330.005 323.397 330.355C319.532 330.775 315.458 331 311.249 331C296.997 331 284.293 328.424 276.048 324.403C273.47 323.146 270.961 321.732 268.46 320.323L267.971 320.048C270.994 316.765 273.381 312.865 274.559 308.34C276.316 301.596 275.234 293.694 269.637 287.228C265.569 282.529 259.884 279.589 253.793 278.133C262.097 273.517 269.315 266.688 274.469 257.896C280.094 248.303 282.481 237.706 281.962 227.371C290.015 225.683 298.5 225.968 306.638 228.428ZM348.07 196.419C351.033 190.879 343.077 187.271 338.421 187.958C337.55 188.087 337.679 189.188 338.417 189.669C339.982 190.69 341.453 192.418 342.784 193.982C345 196.587 346.83 198.738 348.07 196.419ZM303.249 268C295.249 268 295.249 279 303.249 279C306.249 279 306.249 268 303.249 268ZM315.962 233.003C321.73 233.124 322.907 227.698 318.517 225.109C317.675 224.613 316.798 225.861 316.879 226.836C317.002 228.318 316.353 229.785 315.391 230.914C314.785 231.624 315.029 232.983 315.962 233.003ZM159.643 224.893C162.297 220.144 164.172 215.164 165.307 210.101L167.144 209.755C179.136 207.496 190.331 199.753 198.801 186.282C198.908 186.245 199.015 186.208 199.122 186.172C209.737 189.873 222.305 187.76 232.384 180.372C239.16 181.12 245.893 183.274 252.155 186.945C275.977 200.912 283.966 231.545 270 255.367C261.142 270.476 245.58 279.216 229.303 280.025C227.946 280.093 226.749 280.96 226.286 282.237C226.098 282.758 225.904 283.275 225.705 283.789C225.461 284.419 225.725 285.137 226.315 285.468C226.696 285.681 227.153 285.697 227.55 285.516C240.609 279.565 257.651 281.201 265.7 290.5C270.101 295.584 270.955 301.744 269.565 307.08C266.515 318.789 252.919 326.376 241.073 328.843C237.951 329.493 234.535 329.942 231.252 330.373L231.226 330.377C230.202 330.511 229.191 330.644 228.205 330.781C221.923 331.653 213.095 331.975 200.687 331.999C199.079 317.641 191.851 304.069 179.911 294.753C188.542 274.617 186.959 251.952 172.885 235.691C169.048 231.259 164.566 227.659 159.643 224.893ZM247.968 197.104C249.8 191.363 241.717 189.311 237.396 190.723C236.559 190.996 236.878 192.076 237.673 192.456C239.215 193.191 240.768 194.567 242.199 195.833C244.813 198.148 247.013 200.096 247.968 197.104ZM216.455 235C220.455 235 220.455 242 216.455 242C213.879 242 210.473 241.585 208.374 241.29C207.569 241.176 207.269 240.22 207.881 239.685C209.903 237.919 213.665 235 216.455 235ZM250.585 291.651C255.722 289.562 261.864 293.719 259.283 298.442C258.947 299.057 258.089 298.97 257.698 298.388C256.059 295.943 253.787 294.167 250.876 293.313C250.031 293.065 249.769 291.982 250.585 291.651ZM261.634 325.529C262.53 324.904 263.41 324.24 264.263 323.539L266.271 324.67C268.733 326.058 271.351 327.533 274.063 328.856C280.833 332.156 290.004 334.464 300.291 335.439C304.527 341.219 307.881 347.571 310.02 353.78C314.682 367.319 316.654 385.577 313.749 404.107C313.123 408.1 313.996 412.164 315.671 415.843C317.449 419.746 318.653 424.068 319.136 428.67C321.228 448.586 309.024 466.192 291.876 467.994C286.439 468.565 280.835 468.267 275.231 467.968H275.23C269.562 467.666 263.894 467.364 258.397 467.962C254.533 468.382 250.458 468.607 246.249 468.607C231.998 468.607 219.293 466.031 211.048 462.01C210.651 461.817 210.255 461.619 209.86 461.418C219.084 452.837 224.854 440.592 224.854 427C224.854 424.669 224.684 422.375 224.355 420.13C223.743 415.958 222.986 411.762 222.248 407.676L222.246 407.666C222.034 406.496 221.825 405.335 221.621 404.187C219.806 393.973 215.164 383.924 207.715 375.318C206.158 373.519 204.522 371.833 202.816 370.261C214.471 363.764 228.49 362.069 241.609 366.026C242.276 366.227 243 365.956 243.36 365.36C243.504 365.122 243.649 364.885 243.794 364.649C244.231 363.941 243.716 363.018 242.884 363.019C242.794 363.019 242.703 363.007 242.616 362.984C237.104 361.521 232.923 360.875 226.257 361.046C224.067 361.102 221.897 361.42 219.729 361.739L219.677 361.746C219.24 361.811 218.803 361.875 218.366 361.937C210.789 363.009 202.858 362.379 196.617 359.658C199.752 352.334 201.175 344.613 201.018 336.998C213.347 336.972 222.426 336.653 229.049 335.733C230.012 335.6 231.004 335.469 232.03 335.334L232.04 335.333L232.044 335.333L232.154 335.318H232.154C235.374 334.895 238.943 334.426 242.248 333.738C248.74 332.386 255.746 329.634 261.634 325.529ZM251.942 370.97C257.721 371.019 259.039 364.923 254.619 362.308C253.805 361.826 252.99 362.965 253.113 363.903C253.354 365.74 252.538 367.628 251.369 369.007C250.785 369.697 251.037 370.962 251.942 370.97ZM238.455 406.019C230.455 406.019 230.455 417.019 238.455 417.019C241.455 417.019 241.455 406.019 238.455 406.019ZM309.554 422.288C311.643 424.225 313.176 429.587 312.131 431.932C311.851 432.559 311.143 432.208 311.069 431.526C310.743 428.529 310.011 425.65 308.823 423.102C308.499 422.406 308.991 421.766 309.554 422.288ZM408.831 283.276C398.83 291.53 392.455 304.02 392.455 318C392.455 337.871 405.331 354.728 423.195 360.692C417.46 366.318 413.218 373.774 411.063 382.163C410.671 383.689 409.846 385.055 408.707 386.078C407.308 387.335 405.973 388.664 404.708 390.058C395.856 399.817 390.455 412.781 390.455 427C390.455 433.823 391.698 440.356 393.968 446.385C381.016 453.893 365.948 458.185 349.77 458.185C338.625 458.185 328.198 457.126 318.807 454.797C323.109 447.116 325.117 437.748 324.109 428.147C323.569 423.011 322.223 418.166 320.221 413.771C318.831 410.718 318.254 407.656 318.689 404.882C321.715 385.58 319.686 366.495 314.747 352.152C313.291 347.924 311.301 343.609 308.859 339.414C317.519 336.214 327.02 335.137 336.679 336.696C337.858 336.887 338.898 335.847 338.713 334.667C337.885 329.392 337.864 323.874 338.766 318.282C343.166 291.02 367.841 272.327 393.881 276.529C399.727 277.472 405.144 279.489 409.981 282.358C409.592 282.658 409.209 282.964 408.831 283.276ZM349.255 336.623C351.92 339.811 349.351 344.589 344.812 343.558C343.95 343.362 344.011 342.12 344.72 341.592C345.991 340.645 347.105 339.225 347.416 337.634C347.594 336.728 348.663 335.915 349.255 336.623ZM351.446 389.241C343.446 389.241 343.446 400.241 351.446 400.241C354.446 400.241 354.446 389.241 351.446 389.241ZM397.455 318C397.455 295.909 415.364 278 437.455 278C459.547 278 477.455 295.909 477.455 318C477.455 333.528 468.607 346.99 455.677 353.618C454.756 354.09 454.95 355.711 455.951 355.975C469.685 359.611 480.273 373.024 482.157 389.674C482.423 392.03 483.334 394.277 484.799 396.142C491.474 404.64 495.455 415.355 495.455 427C495.455 454.614 473.069 477 445.455 477C417.841 477 395.455 454.614 395.455 427C395.455 412.227 401.862 398.95 412.049 389.797C413.938 388.1 415.273 385.866 415.905 383.408C418.503 373.299 424.409 364.881 432.142 359.897C433.015 359.334 432.68 357.732 431.652 357.582C412.311 354.771 397.455 338.12 397.455 318ZM447.244 289.445C451.183 286.071 458.72 290.108 456.825 295.784C456.583 296.51 455.599 296.52 455.111 295.93C453.473 293.949 450.632 291.72 447.935 291.079C447.151 290.892 446.632 289.969 447.244 289.445ZM480.481 402.868C475.151 404.561 470.495 397.9 474.757 393.321C475.343 392.692 476.356 393.269 476.464 394.122C476.78 396.612 478.081 399.503 480.347 400.911C481.106 401.383 481.333 402.598 480.481 402.868ZM447.88 351.563C444.832 354.244 445.236 357.888 448.885 359.704C449.672 360.096 450.421 359.172 450.16 358.332C449.617 356.58 449.413 354.56 449.587 352.794C449.68 351.848 448.594 350.935 447.88 351.563ZM166.218 204.842C168.824 183.716 158.968 162.082 139.438 150.632C129.418 144.757 118.295 142.415 107.527 143.227C106.352 133.552 106.557 122.82 108.336 111.475C111.994 88.1404 121.912 65.5804 134.259 52.1669C147.682 37.5856 170.772 28.0241 190.052 23.4359C202.151 20.5568 215.334 22.1592 226.909 28.9455C250.732 42.9118 258.721 73.5452 244.755 97.3673C236.038 112.235 220.829 120.936 204.835 121.981C203.65 122.058 202.651 122.938 202.439 124.107C202.048 126.258 204.463 128.046 206.501 127.255C217.745 122.889 230.148 124.998 237.565 133.568C247.372 144.898 244.753 163.231 231.716 174.515C221.914 182.999 209.014 185.083 199.048 180.78C197.812 180.247 196.335 180.671 195.654 181.832C187.655 195.476 177.103 202.791 166.218 204.842ZM226.263 42.3901C226.345 37.7989 217.55 33.6048 213.201 33.598C212.375 33.5967 212.423 34.4209 213.161 34.7899C215.035 35.7264 216.755 37.231 218.448 38.7123C220.689 40.6732 222.883 42.5932 225.326 43.1004C225.799 43.1986 226.255 42.8727 226.263 42.3901ZM194.18 121.042C188.857 123.82 189.807 129.942 195.703 130.56C196.655 130.66 196.963 129.347 196.359 128.604C194.935 126.854 194.743 124.657 195.485 122.647C195.821 121.737 195.04 120.593 194.18 121.042ZM224.927 134.333C229.038 134.203 233.617 139.208 231.823 142.56C231.499 143.164 230.677 142.977 230.377 142.361C229.068 139.675 227.195 137.412 224.747 135.81C224.057 135.358 224.103 134.36 224.927 134.333ZM49.3625 324.185C46.1101 322.278 43.2606 320.004 40.8721 317.407C35.5149 311.58 31.0991 304.705 26.9141 297.987C18.0039 283.684 14.4893 262.01 18.3357 237.475C21.994 214.14 31.912 191.58 44.2594 178.167C57.6818 163.586 80.7722 154.024 100.052 149.436C112.151 146.557 125.334 148.159 136.91 154.945C160.732 168.912 168.721 199.545 154.755 223.367C153.652 225.249 154.365 227.733 156.291 228.758C161.083 231.311 165.424 234.712 169.104 238.964C181.433 253.208 183.251 273.428 175.748 291.804C175.122 291.403 174.485 291.012 173.838 290.632C161.106 283.168 146.596 281.406 133.294 284.572C113.643 289.248 89.3986 299.117 74.9799 314.781C71.0318 319.07 67.3479 324.188 64.0229 329.9C60.4857 328.964 57.0733 327.826 53.8411 326.446C52.3187 325.796 50.8232 325.041 49.3625 324.185ZM124.466 159.162C129.601 158.457 139.415 163.033 137.251 169.099C137.124 169.456 136.77 169.685 136.392 169.653C133.533 169.412 131.48 167.185 129.381 164.909C127.88 163.281 126.356 161.628 124.497 160.658C123.735 160.26 123.614 159.279 124.466 159.162ZM93.4551 201C96.4551 201 99.4551 202 99.4551 205C99.4551 208 96.4551 211 93.4551 211C91.4551 211 91.4551 201 93.4551 201ZM93.4551 265C96.4551 265 99.4551 269 99.4551 272C99.4551 275 96.4551 276 93.4551 276C90.4551 276 90.4551 265 93.4551 265ZM161.66 248.93C164.005 243.789 156.69 236.51 152.01 240.271C151.478 240.698 151.707 241.499 152.327 241.785C155.826 243.397 158.189 246.098 160.184 248.955C160.568 249.505 161.381 249.541 161.66 248.93ZM61.4214 438.159C65.7474 445.041 70.3411 452.086 75.9233 457.995C78.473 460.694 81.5273 463.019 85.0169 464.923C102.25 474.326 123.726 469.97 137.388 446.552C137.587 446.21 137.959 446 138.354 446C138.731 446 139.074 446.227 139.216 446.576C144.536 459.674 158.261 469 174.354 469C174.936 469 175.515 468.988 176.091 468.964C176.676 468.988 177.263 469 177.854 469C201.05 469 219.854 450.196 219.854 427C219.854 424.913 219.702 422.861 219.408 420.856C218.81 416.773 218.072 412.688 217.336 408.617L217.336 408.616L217.336 408.616L217.336 408.615C217.122 407.43 216.908 406.245 216.698 405.062C215.041 395.736 210.794 386.515 203.935 378.59C199.826 373.843 195.122 369.957 190.079 366.964C188.84 366.229 188.426 364.61 189.154 363.367C203.12 339.545 195.131 308.912 171.309 294.945C159.733 288.159 146.55 286.557 134.451 289.436C115.171 294.024 92.081 303.586 78.6586 318.167C66.3113 331.58 56.3933 354.14 52.7349 377.475C48.873 402.109 52.4316 423.859 61.4214 438.159ZM171.007 307.226C172.676 301.673 163.534 298.447 158.963 299.342C158.127 299.506 158.319 300.491 159.076 300.879C160.884 301.806 162.759 303.564 164.485 305.182C167.496 308.003 170.053 310.4 171.007 307.226ZM138.354 341C141.354 341 144.354 342 144.354 345C144.354 348 141.354 351 138.354 351C136.354 351 136.354 341 138.354 341ZM190.32 385.402C198.747 383.965 206.671 399.358 200.057 404.094C199.535 404.469 198.84 404.118 198.621 403.514C197.644 400.818 195.23 397.689 192.997 394.792C189.41 390.141 186.286 386.09 190.32 385.402Z" fill="#0F0E12"/>
</svg>
