<svg width="651" height="304" viewBox="0 0 651 304" fill="none" xmlns="http://www.w3.org/2000/svg">
<path fill-rule="evenodd" clip-rule="evenodd" d="M524 166.929C523.958 166.995 523.916 167.062 523.874 167.13C519.151 162.265 513.424 158.052 506.953 154.643C510.852 145.441 512.29 135.066 510.581 124.472C505.742 94.4843 477.509 74.0974 447.521 78.9367C447.19 78.99 446.861 79.0462 446.532 79.1053C449.126 71.0816 449.908 62.3409 448.474 53.4594C447.463 47.1904 445.429 41.341 442.57 36.0539C449.927 24.0875 462.256 15.2736 477.211 12.8602C504.473 8.46089 530.139 26.9944 534.538 54.256C535.896 62.6724 535.069 70.9367 532.473 78.4702C531.855 80.2648 532.017 82.2488 532.984 83.882C533.41 84.6008 534.263 84.9481 535.073 84.745C536.462 84.3969 537.878 84.1052 539.318 83.8728C566.579 79.4735 592.245 98.007 596.645 125.269C597.488 130.495 597.489 135.662 596.746 140.632C588.824 140.037 581.059 140.394 573 141.929C569.5 142.596 560.6 144.729 553 147.929L552.285 148.23C542.834 152.205 529.851 157.665 524 166.929ZM525.483 80.9289C518.5 85.5 521.5 93.5 530.024 90.3962C525.483 88.5 524.5 86.5 525.483 80.9289Z" fill="black"/>
<path fill-rule="evenodd" clip-rule="evenodd" d="M466 144.929C479.182 144.929 491.677 147.638 502.449 152.454C505.916 144.149 507.184 134.806 505.645 125.269C501.245 98.007 475.579 79.4735 448.318 83.8728C446.878 84.1051 445.462 84.3968 444.073 84.745C443.263 84.9481 442.41 84.6008 441.984 83.8819C441.017 82.2488 440.855 80.2648 441.473 78.4702C444.069 70.9367 444.896 62.6723 443.538 54.2559C439.139 26.9944 413.473 8.46086 386.211 12.8602C366.514 16.0388 351.373 30.3195 346.147 48.2827C345.092 51.9068 344.042 55.5719 343.057 59.2546C367.633 64.7513 386 86.6952 386 112.929C386 125.151 382.014 136.44 375.272 145.568C377.793 145.147 380.373 144.929 383 144.929C393.012 144.929 402.361 148.109 410.374 153.585C413.301 155.586 416.428 156.598 419.411 156.392C421.195 156.27 423.036 155.715 424.747 154.803C436.476 148.55 450.719 144.929 466 144.929ZM433.021 81.8853C427 86.5 429.5 94 438.195 91.0221C434.5 89 432.5 88.5 433.021 81.8853Z" fill="black"/>
<path fill-rule="evenodd" clip-rule="evenodd" d="M577.138 213.985C576.845 214.171 576.494 214.236 576.153 214.17C563.271 211.683 549.791 213.651 538.717 219.412C538.138 227.47 536.689 234.699 534.575 240.074C530.913 249.935 524.502 258.464 516.273 264.726C519.246 275.656 527.348 285.567 539.72 291.686C542.092 292.859 544.531 293.849 547.015 294.66C555.111 298.497 568.771 301.018 584.258 301.018C596.882 301.018 608.292 299.343 616.464 296.646C626.026 293.489 633.887 285.563 640.046 277.597C644.94 271.267 648.442 263.757 649.95 255.644C654.53 230.997 638.926 206.257 621.657 202.906C620.549 202.759 619.434 202.649 618.314 202.574C608.503 200.681 595.717 198.874 584.818 197.62C583.689 197.49 583.177 196.126 583.93 195.274C584.291 194.867 584.858 194.7 585.382 194.848C587.877 195.552 590.645 196.122 593.579 196.503C594.387 196.608 595.187 196.696 595.975 196.767C600.647 197.571 605.544 197.858 609.758 197.858C625.498 197.858 638.258 187.113 638.258 173.858C638.258 170.48 637.43 167.265 635.934 164.349C635.854 164.194 635.797 164.028 635.758 163.858C633.152 152.403 601.246 140.624 572.507 147.162C557.823 150.502 545.111 155.944 536.537 161.996C535.738 162.407 534.977 162.86 534.258 163.358C531.643 165.169 529.237 167.807 527.252 170.934C528.737 172.767 530.089 174.677 531.295 176.658C533.202 179.198 534.667 182.59 535.782 186.289C536.648 188.897 537.273 191.585 537.634 194.337C538.471 199.243 538.954 204.76 538.997 210.58C545.16 212.162 552.289 212.153 558.939 210.83C559.322 210.754 559.712 210.699 560.102 210.675C567.447 210.227 571.9 210.519 576.758 211.552C577.922 211.8 578.142 213.348 577.138 213.985ZM584 218.702C592 221 593 214 585.815 211.929C588 214.5 587 218 584 218.702ZM577.35 190.899C571 189 568.228 196.767 575.622 197.347C574 195 574 192.5 577.35 190.899Z" fill="black"/>
<path fill-rule="evenodd" clip-rule="evenodd" d="M374.137 269.981C377.014 270.604 379.976 270.929 383 270.929C397.29 270.929 410.18 263.675 419.293 252.044C422.627 247.787 427.592 244.929 433 244.929C433.879 244.929 434.756 244.923 435.629 244.911C436.315 244.902 436.992 245.015 437.639 245.241C438.948 245.699 440.061 246.598 440.806 247.768C449.682 261.693 465.263 270.929 483 270.929C504.511 270.929 522.849 257.345 529.905 238.287C532.402 231.963 534 222.281 534 211.429C534 205.514 533.525 199.947 532.689 195.081C532.369 192.596 531.805 190.164 531.015 187.799C529.943 184.223 528.63 181.365 527.158 179.478C516.683 162.06 493.24 149.929 466 149.929C451.495 149.929 438.066 153.369 427.099 159.215C424.835 160.422 422.315 161.204 419.755 161.381C415.388 161.681 411.166 160.183 407.553 157.713C400.3 152.757 391.923 149.929 383 149.929C378.348 149.929 373.844 150.698 369.571 152.136C364.368 157.255 358.151 161.345 351.249 164.08C357.155 171.179 361.745 179.327 364.478 187.193C369.47 201.561 371.532 220.738 368.492 240.132C368.057 242.907 368.635 245.968 370.025 249.021C372.026 253.416 373.372 258.262 373.912 263.398C374.144 265.611 374.217 267.811 374.137 269.981ZM438 239.929C435.629 232.5 429 233 427.5 239.929C431 238.287 435 238.5 438 239.929Z" fill="black"/>
<path fill-rule="evenodd" clip-rule="evenodd" d="M244.25 152.721C243.359 153.31 242.481 153.932 241.624 154.588C240.554 153.856 239.452 153.156 238.316 152.49C233.329 149.566 228.061 147.514 222.696 146.293C229.902 134.103 230.01 118.925 220.748 108.225C216.711 103.561 211.542 100.538 205.919 99.0578C215.01 94.4542 222.932 87.2721 228.471 77.825C231.245 73.0928 233.232 68.1163 234.471 63.0475C249.818 64.0997 263.261 72.0773 271.7 83.8787C273.867 86.9097 277.274 88.9289 281 88.9289C284.726 88.9289 288.133 86.9097 290.3 83.8787C299.369 71.1956 314.219 62.9289 331 62.9289C358.614 62.9289 381 85.3147 381 112.929C381 134.697 367.089 153.217 347.671 160.082C341.596 153.774 334.427 148.644 326.626 145.83C320.852 143.748 314.125 142.372 306.592 141.976C306.293 141.912 305.994 141.874 305.696 141.859C294.123 141.268 279.136 140.929 266.606 143.633C259.346 145.2 251.125 148.178 244.25 152.721ZM276 93.9289C277.5 101 285 101 286.5 93.9289C283 95.5 279 95.5 276 93.9289Z" fill="black"/>
<path fill-rule="evenodd" clip-rule="evenodd" d="M251.72 292.303C251.167 291.978 250.622 291.645 250.087 291.303C253.748 287.747 256.686 283.383 258.036 278.198C259.793 271.453 258.711 263.552 253.114 257.086C249.046 252.386 243.361 249.447 237.27 247.991C245.574 243.375 252.792 236.545 257.946 227.754C262.977 219.174 265.418 209.79 265.506 200.51C273.93 198.517 282.878 198.697 291.441 201.285C292.091 201.482 292.797 201.217 293.148 200.636C293.288 200.405 293.429 200.174 293.57 199.944C293.995 199.255 293.493 198.357 292.684 198.358C292.596 198.358 292.507 198.346 292.422 198.323C286.648 196.791 282.335 196.155 275.097 196.414C273.118 196.485 271.153 196.764 269.191 197.043C268.787 197.101 268.384 197.158 267.98 197.214C267.141 197.329 266.297 197.424 265.452 197.497C264.767 182.385 257.866 167.811 245.781 157.733C252.229 153.146 260.397 150.088 267.661 148.521C279.477 145.971 293.868 146.261 305.441 146.852C305.515 146.856 305.587 146.871 305.656 146.897C305.732 146.926 305.812 146.943 305.893 146.947C313.16 147.289 319.548 148.593 324.93 150.534C340.735 156.233 354.24 172.963 359.755 188.834C364.466 202.392 366.471 220.737 363.552 239.358C362.926 243.351 363.799 247.415 365.474 251.093C367.252 254.997 368.456 259.319 368.939 263.92C371.032 283.837 358.827 301.443 341.679 303.245C336.242 303.816 330.638 303.517 325.034 303.219C319.366 302.917 313.697 302.615 308.2 303.213C304.336 303.633 300.262 303.858 296.052 303.858C281.801 303.858 269.097 301.281 260.852 297.261C258.274 296.004 255.765 294.59 253.264 293.181C253.011 293.038 252.757 292.896 252.504 292.753C252.242 292.606 251.981 292.455 251.72 292.303ZM288 239C280.5 241 280.5 250 288.052 251.358C289.5 248 289.448 243 288 239Z" fill="black"/>
<path fill-rule="evenodd" clip-rule="evenodd" d="M154.121 297.936C150.178 296.383 146.459 294.186 142.958 291.663C143.179 291.476 143.4 291.288 143.619 291.098C170.35 267.961 176.992 229.694 156.093 205.549C152.257 201.117 147.775 197.517 142.851 194.751C144.127 192.468 145.223 190.132 146.143 187.758C147.418 187.532 148.69 187.242 149.957 186.887C160.73 183.869 170.652 176.304 178.318 164.028C189.909 168.162 203.876 165.325 214.391 156.224C216.33 154.546 218.078 152.713 219.623 150.763C225.172 151.792 230.639 153.785 235.788 156.803C259.61 170.77 267.599 201.403 253.633 225.225C244.775 240.334 229.213 249.074 212.936 249.883C211.579 249.951 210.382 250.817 209.919 252.095C209.731 252.615 209.537 253.132 209.338 253.646C209.094 254.277 209.358 254.994 209.948 255.325C210.329 255.539 210.786 255.555 211.183 255.374C224.242 249.423 241.284 251.059 249.333 260.358C253.734 265.442 254.588 271.602 253.198 276.938C250.148 288.647 236.552 296.234 224.706 298.701C221.584 299.351 218.168 299.8 214.885 300.231L214.878 300.232L214.87 300.233C213.842 300.368 212.827 300.501 211.838 300.639C205.308 301.546 196.027 301.858 182.833 301.858C171.007 301.858 161.275 300.753 154.121 297.936ZM199.5 203.5C202.5 204.7 202.846 208.995 198 208.995C195.034 208.909 192.594 208.943 191.69 208.972C191.303 208.984 190.95 208.995 190.5 208.995C192.5 204.5 196.5 202.3 199.5 203.5Z" fill="black"/>
<path fill-rule="evenodd" clip-rule="evenodd" d="M122.647 120.49C144.516 133.311 154.255 158.902 147.95 182.25C158.002 179.642 167.629 172.43 175.056 159.761C175.737 158.6 177.214 158.176 178.45 158.709C188.417 163.012 201.317 160.928 211.119 152.444C224.156 141.16 226.774 122.827 216.968 111.497C209.55 102.927 197.147 100.818 185.903 105.183C183.865 105.974 181.45 104.186 181.841 102.036C182.054 100.867 183.052 99.9871 184.237 99.9097C200.231 98.8651 215.441 90.1643 224.157 75.2962C238.124 51.4741 230.134 20.8407 206.312 6.87441C194.737 0.0880628 181.553 -1.51429 169.455 1.3648C150.175 5.95303 127.084 15.5145 113.662 30.0958C101.314 43.5093 91.3964 66.0693 87.738 89.4043C86.4105 97.8721 85.9598 105.999 86.3052 113.6C98.4153 111.694 111.245 113.805 122.647 120.49ZM175.655 97.2572C168 99 168 106 174.736 107.717C173.509 104.266 173.451 100.217 175.655 97.2572Z" fill="black"/>
<path fill-rule="evenodd" clip-rule="evenodd" d="M24.0808 287.264C26.4694 289.862 29.3188 292.136 32.5713 294.043C34.032 294.899 35.5274 295.654 37.0499 296.304C55.1569 304.035 78.9218 304.158 98.608 303.862C112.847 303.648 127.86 298.125 140.347 287.317C165.577 265.479 170.934 230.336 152.313 208.821C148.633 204.57 144.291 201.168 139.499 198.616C137.574 197.591 136.86 195.107 137.964 193.225C151.93 169.403 143.94 138.77 120.118 124.803C108.543 118.017 95.3593 116.415 83.2611 119.294C63.981 123.882 40.8906 133.443 27.4681 148.025C15.1208 161.438 5.20278 183.998 1.54441 207.333C-2.30194 231.867 1.21268 253.542 10.1229 267.845C14.3078 274.562 18.7237 281.438 24.0808 287.264ZM95 178.929C100.333 178.167 101.5 170 95 169C94 172 94 176 95 178.929ZM95 252.929C102 251.929 102.5 243.5 95 242C93.5 245.5 93.5 250 95 252.929Z" fill="black"/>
</svg>
